<?xml version="1.0" standalone="no"?>
<!DOCTYPE svg PUBLIC "-//W3C//DTD SVG 20010904//EN"
 "http://www.w3.org/TR/2001/REC-SVG-20010904/DTD/svg10.dtd">
<svg version="1.0" xmlns="http://www.w3.org/2000/svg"
 width="400.000000pt" height="400.000000pt" viewBox="0 0 400.000000 400.000000"
 preserveAspectRatio="xMidYMid meet">

<g transform="translate(0.000000,400.000000) scale(0.100000,-0.100000)"
fill="currentColor" stroke="none">
<path d="M1735 3701 c-86 -9 -163 -49 -221 -119 -27 -31 -70 -79 -96 -107 -26
-27 -66 -87 -89 -132 -35 -68 -43 -94 -46 -155 -5 -82 5 -170 33 -270 17 -63
17 -68 1 -86 -9 -10 -17 -33 -17 -50 0 -26 4 -32 21 -32 19 0 21 -4 16 -37 -8
-46 20 -113 66 -160 17 -18 27 -33 23 -33 -5 0 -20 12 -33 26 -13 14 -27 23
-30 20 -4 -4 12 -26 35 -49 23 -24 42 -51 42 -62 0 -10 9 -44 19 -74 10 -31
21 -75 24 -99 5 -37 2 -44 -16 -52 -39 -15 -86 -74 -107 -135 -11 -33 -33 -78
-49 -100 -15 -22 -30 -46 -33 -54 -2 -8 -78 -56 -169 -108 -177 -100 -352
-201 -411 -236 -62 -37 -196 -147 -244 -200 -51 -57 -63 -82 -97 -197 -14 -47
-36 -123 -50 -170 -48 -160 -70 -374 -83 -817 l-7 -213 1391 0 1392 0 0 48 0
47 83 24 c129 36 210 71 235 99 26 30 25 44 -8 157 -54 181 -103 376 -111 440
-5 39 -19 106 -30 150 -26 102 -54 232 -67 316 -10 66 -47 156 -77 185 -8 9
-15 21 -15 28 0 29 -75 97 -148 136 -75 40 -206 94 -287 120 -57 18 -95 39
-95 51 0 7 -21 41 -47 77 -27 36 -66 92 -89 125 l-40 61 46 95 c46 94 83 184
94 229 3 12 9 32 12 43 4 14 2 19 -5 15 -6 -4 -11 -15 -11 -24 0 -31 -68 -162
-85 -162 -8 0 -16 -6 -17 -12 -5 -44 -17 -68 -34 -68 -8 0 -25 -6 -37 -14 -12
-8 -33 -16 -47 -18 -24 -3 -25 -1 -24 47 2 79 7 100 29 107 16 5 14 6 -10 8
-16 1 -34 1 -40 0 -5 -2 -30 -7 -55 -11 -57 -12 -64 -19 -45 -55 20 -38 19
-46 -8 -77 -21 -26 -47 -36 -47 -19 0 6 -17 15 -75 37 -11 5 -26 7 -32 6 -12
-2 -15 6 -17 54 -1 16 -9 21 -38 23 -20 2 -41 8 -46 15 -11 15 -46 125 -49
152 -8 106 -32 165 -74 184 -16 7 -29 17 -29 23 0 6 -13 26 -30 45 -33 37 -34
41 -21 76 9 22 13 23 53 16 24 -4 60 -12 82 -19 44 -13 107 -2 166 30 41 23
32 25 -30 7 -25 -7 -58 -11 -73 -9 -28 3 -28 4 -11 23 9 10 25 19 35 19 10 0
23 9 29 21 10 18 14 19 28 7 9 -8 33 -15 52 -17 44 -3 80 -26 80 -50 0 -16 18
-31 36 -31 8 0 4 89 -6 114 -5 14 -27 44 -49 66 l-40 41 -117 14 c-101 12
-122 12 -145 -1 -35 -18 -53 -18 -46 0 3 7 -3 20 -14 30 -16 13 -18 24 -13 59
10 62 44 133 59 119 5 -4 5 -1 0 7 -4 8 -2 16 5 21 8 5 12 28 11 61 -1 70 13
88 47 57 14 -13 22 -17 18 -10 -15 25 -24 69 -17 81 7 10 62 23 156 36 28 4
127 7 187 6 23 -1 141 -65 203 -111 27 -20 85 -95 85 -109 0 -7 8 -28 19 -49
26 -53 68 -178 81 -243 14 -74 17 -153 8 -269 -7 -90 -7 -93 7 -61 11 24 17
81 20 195 2 89 9 195 15 236 15 97 12 205 -7 272 -8 29 -18 69 -22 88 -15 68
-50 119 -104 154 -57 37 -143 70 -158 61 -5 -4 -9 -2 -9 3 0 12 -136 42 -192
42 -26 0 -65 6 -85 14 -47 17 -138 24 -218 17z m84 -777 c11 -11 -26 -24 -66
-24 -46 0 -50 3 -30 26 8 10 23 13 52 9 21 -3 42 -8 44 -11z m-452 -246 c-3
-8 -6 -5 -6 6 -1 11 2 17 5 13 3 -3 4 -12 1 -19z m28 -68 c6 -22 5 -23 -8 -10
-8 8 -18 26 -22 40 -6 22 -5 23 8 10 8 -8 18 -26 22 -40z m778 -404 c4 -10 1
-13 -9 -9 -7 3 -14 9 -14 14 0 14 17 10 23 -5z m-43 -22 c0 -8 -5 -12 -10 -9
-6 4 -8 11 -5 16 9 14 15 11 15 -7z m-516 -179 c-5 -12 0 -14 24 -9 23 5 36 1
54 -16 13 -12 39 -31 58 -42 19 -12 44 -32 55 -44 11 -12 43 -34 72 -49 49
-25 57 -26 145 -19 67 5 100 12 117 25 13 11 30 19 37 19 8 0 16 11 20 25 4
16 13 25 25 25 10 0 19 5 19 11 0 5 -6 7 -12 4 -7 -4 -6 -1 3 7 9 7 14 19 11
27 -3 8 0 11 7 7 16 -10 14 -42 -5 -60 -9 -9 -13 -24 -9 -35 3 -11 1 -22 -5
-26 -5 -3 -10 -17 -10 -31 0 -13 -11 -51 -25 -84 -26 -62 -30 -80 -17 -80 7 0
40 50 54 83 4 9 9 17 12 17 7 0 -6 -40 -15 -46 -5 -3 -9 -16 -9 -29 0 -13 -5
-36 -12 -50 -16 -35 -5 -41 30 -16 37 26 52 27 52 3 0 -11 9 -27 20 -37 l21
-19 -23 -13 c-13 -7 -33 -12 -44 -13 -12 0 -27 -7 -34 -15 -7 -8 -16 -12 -21
-9 -9 5 -26 -6 -66 -46 -24 -24 -25 -30 -21 -105 3 -44 2 -69 -2 -55 -15 49
-11 129 9 166 17 31 18 38 4 62 -38 72 -52 88 -89 106 -21 11 -48 24 -59 30
-11 6 -38 20 -60 31 -56 29 -126 77 -215 148 -86 69 -102 87 -96 104 3 7 1 15
-4 18 -13 8 -13 45 0 45 5 0 7 -7 4 -15z m776 -310 c7 -33 16 -67 20 -75 6
-12 3 -16 -11 -17 -15 -1 -19 5 -19 32 0 42 -29 95 -53 95 -25 0 -16 23 11 30
16 4 19 9 12 20 -5 8 -10 22 -9 30 0 30 37 -56 49 -115z m-58 -31 c-3 -34 1
-45 20 -58 12 -9 18 -16 13 -16 -6 0 -3 -4 5 -10 8 -5 12 -12 8 -15 -3 -4 -16
3 -27 14 -12 12 -25 21 -30 21 -5 0 -14 23 -20 50 -14 65 -15 62 11 58 20 -3
22 -8 20 -44z m-155 -511 c32 -109 66 -263 59 -270 -4 -4 -20 53 -40 137 -8
36 -27 106 -40 155 -26 93 -30 112 -20 103 3 -4 21 -59 41 -125z m478 -23 c3
-11 10 -20 15 -20 5 0 8 -13 8 -30 -1 -17 -6 -30 -14 -30 -19 0 -27 19 -14 35
9 11 7 17 -9 27 -12 7 -21 18 -21 25 0 21 28 15 35 -7z m104 1 c6 -10 8 -21 5
-24 -3 -3 -1 -15 6 -26 13 -26 6 -27 -17 -3 -19 18 -27 72 -12 72 4 0 13 -8
18 -19z m-905 -77 c3 -8 2 -12 -4 -9 -6 3 -10 10 -10 16 0 14 7 11 14 -7z
m-134 -9 c0 -8 -2 -15 -4 -15 -2 0 -6 7 -10 15 -3 8 -1 15 4 15 6 0 10 -7 10
-15z m-102 -13 c6 -18 -15 -14 -22 4 -4 10 -1 14 6 12 6 -2 14 -10 16 -16z
m-214 -24 c-8 -27 -12 -33 -19 -27 -7 8 7 49 17 49 5 0 6 -10 2 -22z m54 -19
c-3 -8 -7 -3 -11 10 -4 17 -3 21 5 13 5 -5 8 -16 6 -23z m193 4 c13 -16 12
-17 -3 -4 -17 13 -22 21 -14 21 2 0 10 -8 17 -17z m-91 -13 c0 -11 -2 -20 -4
-20 -2 0 -6 9 -9 20 -3 11 -1 20 4 20 5 0 9 -9 9 -20z m-87 -30 c3 -11 1 -20
-4 -20 -5 0 -9 9 -9 20 0 11 2 20 4 20 2 0 6 -9 9 -20z m-111 -42 c-5 -5 -19
-5 -35 1 -37 14 -34 18 9 13 22 -3 32 -8 26 -14z m325 -4 c-3 -3 -12 -4 -19
-1 -8 3 -5 6 6 6 11 1 17 -2 13 -5z m550 -56 c-3 -8 -6 -5 -6 6 -1 11 2 17 5
13 3 -3 4 -12 1 -19z"/>
<path d="M2320 3029 c-68 -19 -91 -32 -106 -61 -8 -16 -24 -38 -35 -49 -10
-10 -19 -28 -19 -39 0 -18 6 -20 85 -19 67 1 87 5 95 18 8 13 9 12 10 -6 0
-14 6 -23 15 -23 8 0 15 -4 15 -10 0 -6 -32 -10 -77 -10 -60 0 -74 -3 -65 -12
7 -7 41 -14 76 -16 58 -4 65 -2 80 19 9 13 24 24 33 24 24 0 28 31 9 59 -11
18 -28 26 -66 31 -27 4 -52 11 -55 15 -3 5 16 16 41 26 44 17 49 17 75 1 28
-16 29 -16 29 7 0 50 -56 67 -140 45z"/>
<path d="M2306 2586 c11 -14 22 -26 27 -26 4 0 7 -7 7 -15 0 -10 -10 -15 -27
-15 -46 0 -75 11 -69 27 7 17 -20 29 -37 15 -22 -17 -113 -22 -133 -7 -11 8
-33 15 -51 15 -17 0 -35 5 -38 10 -3 6 -13 10 -22 10 -11 0 -14 -7 -10 -27 3
-19 -2 -33 -19 -50 -26 -26 -64 -31 -64 -8 0 12 -4 11 -20 -5 -11 -11 -20 -26
-20 -34 0 -7 -7 -19 -15 -26 -8 -7 -15 -21 -15 -31 0 -16 8 -19 48 -19 26 -1
70 -7 97 -14 42 -11 51 -11 53 0 3 10 21 14 62 14 32 0 80 4 107 10 26 5 77
12 113 15 38 4 74 13 88 23 22 17 22 19 8 54 -8 19 -12 38 -9 41 9 9 -16 36
-50 53 l-29 16 18 -26z m-131 -130 c-20 -14 -35 -12 -35 5 0 5 12 9 27 9 26 0
26 -1 8 -14z"/>
<path d="M2020 2270 c0 -5 4 -10 9 -10 6 0 13 5 16 10 3 6 -1 10 -9 10 -9 0
-16 -4 -16 -10z"/>
<path d="M3331 69 c0 -19 4 -43 9 -54 6 -13 7 -2 3 30 -7 59 -13 72 -12 24z"/>
</g>
</svg>
