<?xml version="1.0" standalone="no"?><svg xmlns:xlink="http://www.w3.org/1999/xlink" xmlns="http://www.w3.org/2000/svg" viewBox="0 0 1000 625.0054178694337" preserveAspectRatio="xMaxYMax slice"><g transform="scale(0.866859109388951)"><rect x="0" y="0" width="1153.6" height="721" fill="#ffffff"/><rect x="865.1999999999999" y="0" width="72.1" height="72.1" fill="#ffffff"/><path d="M 901.25 36.05 A 36.05 36.05 0 0 1  937.3 72.1 L 901.25 36.05 A 36.05 36.05 0 0 0 937.3 72.1" fill="#449b4f"/><path d="M 937.3 0 A 72.1 72.1 0 0 1  1009.4 72.1 L 937.3 0 A 72.1 72.1 0 0 0 1009.4 72.1" fill="#f8f8f8"/><path d="M 1009.4 72.1 A 72.1 72.1 0 0 1  1081.5 0 L 1009.4 72.1 A 72.1 72.1 0 0 0 1081.5 0" fill="#daebdc"/><path d="M 432.6 72.1 A 72.1 72.1 0 0 1  504.70000000000005 144.2 L 432.6 72.1 A 72.1 72.1 0 0 0 504.70000000000005 144.2" fill="#e6e6e6"/><rect x="504.69999999999993" y="72.1" width="72.1" height="72.1" fill="#ffffff"/><path d="M 504.7 72.1 A 36.05 36.05 0 0 1  540.75 108.14999999999999 L 504.7 72.1 A 36.05 36.05 0 0 0 540.75 108.14999999999999" fill="#499d54"/><path d="M 504.7 108.15 A 36.05 36.05 0 0 1  540.75 144.2 L 504.7 108.15 A 36.05 36.05 0 0 0 540.75 144.2" fill="#64ac6d"/><path d="M 540.75 108.15 A 36.05 36.05 0 0 1  576.8 144.2 L 540.75 108.15 A 36.05 36.05 0 0 0 576.8 144.2" fill="#b9d9bd"/><path d="M 0 144.2 A 72.1 72.1 0 0 1  72.1 216.29999999999998 L 0 144.2 A 72.1 72.1 0 0 0 72.1 216.29999999999998" fill="#e4e4e4"/><rect x="144.2" y="144.2" width="72.1" height="72.1" fill="#ffffff"/><path d="M 144.2 216.3 A 36.05 36.05 0 0 1  180.25 180.25 L 144.2 216.3 A 36.05 36.05 0 0 0 180.25 180.25" fill="#cde4d0"/><path d="M 180.25 216.3 A 36.05 36.05 0 0 1  216.3 180.25 L 180.25 216.3 A 36.05 36.05 0 0 0 216.3 180.25" fill="#95c69c"/><rect x="216.29999999999998" y="144.2" width="72.1" height="72.1" fill="#ffffff"/><path d="M 252.35 180.25 A 36.05 36.05 0 0 1  288.4 144.2 L 252.35 180.25 A 36.05 36.05 0 0 0 288.4 144.2" fill="#a5cfab"/><path d="M 216.3 216.3 A 36.05 36.05 0 0 1  252.35000000000002 180.25 L 216.3 216.3 A 36.05 36.05 0 0 0 252.35000000000002 180.25" fill="#dbdbdb"/><path d="M 252.35 180.25 A 36.05 36.05 0 0 1  288.4 216.3 L 252.35 180.25 A 36.05 36.05 0 0 0 288.4 216.3" fill="#e6e6e6"/><path d="M 432.6 144.2 A 72.1 72.1 0 0 1  504.70000000000005 216.29999999999998 L 432.6 144.2 A 72.1 72.1 0 0 0 504.70000000000005 216.29999999999998" fill="#dbdbdb"/><path d="M 721 216.29999999999998 A 72.1 72.1 0 0 1  793.1 144.2 L 721 216.29999999999998 A 72.1 72.1 0 0 0 793.1 144.2" fill="#5aa664"/><rect x="865.1999999999999" y="144.2" width="72.1" height="72.1" fill="#ffffff"/><path d="M 865.2 180.25 A 36.05 36.05 0 0 1  901.25 144.2 L 865.2 180.25 A 36.05 36.05 0 0 0 901.25 144.2" fill="#fefefe"/><rect x="937.3" y="144.2" width="72.1" height="72.1" fill="#ffffff"/><path d="M 937.3 180.25 A 36.05 36.05 0 0 1  973.3499999999999 216.3 L 937.3 180.25 A 36.05 36.05 0 0 0 973.3499999999999 216.3" fill="#469c51"/><path d="M 1081.5 216.29999999999998 A 72.1 72.1 0 0 1  1153.6 144.2 L 1081.5 216.29999999999998 A 72.1 72.1 0 0 0 1153.6 144.2" fill="#e1e1e1"/><path d="M 0 216.3 A 72.1 72.1 0 0 1  72.1 288.4 L 0 216.3 A 72.1 72.1 0 0 0 72.1 288.4" fill="#ebebeb"/><rect x="72.1" y="216.29999999999998" width="72.1" height="72.1" fill="#ffffff"/><path d="M 72.1 252.35000000000002 A 36.05 36.05 0 0 1  108.14999999999999 216.3 L 72.1 252.35000000000002 A 36.05 36.05 0 0 0 108.14999999999999 216.3" fill="#e6e6e6"/><path d="M 108.15 216.3 A 36.05 36.05 0 0 1  144.2 252.35000000000002 L 108.15 216.3 A 36.05 36.05 0 0 0 144.2 252.35000000000002" fill="#c3dfc7"/><path d="M 144.2 216.3 A 72.1 72.1 0 0 1  216.29999999999998 288.4 L 144.2 216.3 A 72.1 72.1 0 0 0 216.29999999999998 288.4" fill="#f5f5f5"/><rect x="432.59999999999997" y="216.29999999999998" width="72.1" height="72.1" fill="#ffffff"/><rect x="504.69999999999993" y="216.29999999999998" width="72.1" height="72.1" fill="#ffffff"/><path d="M 504.7 252.35000000000002 A 36.05 36.05 0 0 1  540.75 216.3 L 504.7 252.35000000000002 A 36.05 36.05 0 0 0 540.75 216.3" fill="#abd2b0"/><path d="M 540.75 216.3 A 36.05 36.05 0 0 1  576.8 252.35000000000002 L 540.75 216.3 A 36.05 36.05 0 0 0 576.8 252.35000000000002" fill="#f9f9f9"/><rect x="721" y="216.29999999999998" width="72.1" height="72.1" fill="#ffffff"/><path d="M 721 252.35000000000002 A 36.05 36.05 0 0 1  757.05 216.3 L 721 252.35000000000002 A 36.05 36.05 0 0 0 757.05 216.3" fill="#f1f7f2"/><path d="M 721 252.35 A 36.05 36.05 0 0 1  757.05 288.4 L 721 252.35 A 36.05 36.05 0 0 0 757.05 288.4" fill="#e1e1e1"/><path d="M 757.05 252.35 A 36.05 36.05 0 0 1  793.0999999999999 288.4 L 757.05 252.35 A 36.05 36.05 0 0 0 793.0999999999999 288.4" fill="#efefef"/><path d="M 793.1 288.4 A 72.1 72.1 0 0 1  865.2 216.3 L 793.1 288.4 A 72.1 72.1 0 0 0 865.2 216.3" fill="#7cb884"/><rect x="288.4" y="288.4" width="72.1" height="72.1" fill="#ffffff"/><path d="M 288.4 288.4 A 36.05 36.05 0 0 1  324.45 324.45 L 288.4 288.4 A 36.05 36.05 0 0 0 324.45 324.45" fill="#edf5ee"/><path d="M 288.4 324.45 A 36.05 36.05 0 0 1  324.45 360.5 L 288.4 324.45 A 36.05 36.05 0 0 0 324.45 360.5" fill="#f0f0f0"/><path d="M 504.7 360.5 A 72.1 72.1 0 0 1  576.8 288.4 L 504.7 360.5 A 72.1 72.1 0 0 0 576.8 288.4" fill="#c2dec5"/><rect x="648.9" y="288.4" width="72.1" height="72.1" fill="#ffffff"/><path d="M 684.95 288.4 A 36.05 36.05 0 0 1  721 324.45 L 684.95 288.4 A 36.05 36.05 0 0 0 721 324.45" fill="#d8eada"/><rect x="865.1999999999999" y="288.4" width="72.1" height="72.1" fill="#ffffff"/><path d="M 865.2 324.45 A 36.05 36.05 0 0 1  901.25 288.4 L 865.2 324.45 A 36.05 36.05 0 0 0 901.25 288.4" fill="#ededed"/><path d="M 901.25 324.45 A 36.05 36.05 0 0 1  937.3 288.4 L 901.25 324.45 A 36.05 36.05 0 0 0 937.3 288.4" fill="#f0f0f0"/><path d="M 865.2 360.5 A 36.05 36.05 0 0 1  901.25 324.45 L 865.2 360.5 A 36.05 36.05 0 0 0 901.25 324.45" fill="#e4e4e4"/><path d="M 72.1 360.5 A 72.1 72.1 0 0 1  144.2 432.6 L 72.1 360.5 A 72.1 72.1 0 0 0 144.2 432.6" fill="#53a25d"/><path d="M 144.2 360.5 A 72.1 72.1 0 0 1  216.29999999999998 432.6 L 144.2 360.5 A 72.1 72.1 0 0 0 216.29999999999998 432.6" fill="#f8f8f8"/><rect x="288.4" y="360.5" width="72.1" height="72.1" fill="#ffffff"/><path d="M 324.45 396.55 A 36.05 36.05 0 0 1  360.5 360.5 L 324.45 396.55 A 36.05 36.05 0 0 0 360.5 360.5" fill="#e0e0e0"/><path d="M 324.45 396.55 A 36.05 36.05 0 0 1  360.5 432.6 L 324.45 396.55 A 36.05 36.05 0 0 0 360.5 432.6" fill="#56a460"/><rect x="504.69999999999993" y="360.5" width="72.1" height="72.1" fill="#ffffff"/><path d="M 540.75 432.6 A 36.05 36.05 0 0 1  576.8 396.55 L 540.75 432.6 A 36.05 36.05 0 0 0 576.8 396.55" fill="#ededed"/><path d="M 648.9 360.5 A 72.1 72.1 0 0 1  721 432.6 L 648.9 360.5 A 72.1 72.1 0 0 0 721 432.6" fill="#6db176"/><path d="M 0 504.70000000000005 A 72.1 72.1 0 0 1  72.1 432.6 L 0 504.70000000000005 A 72.1 72.1 0 0 0 72.1 432.6" fill="#a7d0ad"/><rect x="72.1" y="432.59999999999997" width="72.1" height="72.1" fill="#ffffff"/><rect x="144.2" y="432.59999999999997" width="72.1" height="72.1" fill="#ffffff"/><path d="M 144.2 504.7 A 36.05 36.05 0 0 1  180.25 468.65 L 144.2 504.7 A 36.05 36.05 0 0 0 180.25 468.65" fill="#f8f8f8"/><path d="M 216.3 432.6 A 72.1 72.1 0 0 1  288.4 504.70000000000005 L 216.3 432.6 A 72.1 72.1 0 0 0 288.4 504.70000000000005" fill="#8cc193"/><rect x="721" y="432.59999999999997" width="72.1" height="72.1" fill="#ffffff"/><rect x="793.0999999999999" y="432.59999999999997" width="72.1" height="72.1" fill="#ffffff"/><path d="M 829.15 432.6 A 36.05 36.05 0 0 1  865.1999999999999 468.65000000000003 L 829.15 432.6 A 36.05 36.05 0 0 0 865.1999999999999 468.65000000000003" fill="#f9fcf9"/><path d="M 829.15 468.65 A 36.05 36.05 0 0 1  865.1999999999999 504.7 L 829.15 468.65 A 36.05 36.05 0 0 0 865.1999999999999 504.7" fill="#9ecba4"/><rect x="937.3" y="432.59999999999997" width="72.1" height="72.1" fill="#ffffff"/><path d="M 288.4 504.7 A 72.1 72.1 0 0 1  360.5 576.8 L 288.4 504.7 A 72.1 72.1 0 0 0 360.5 576.8" fill="#9dcaa3"/><path d="M 360.5 576.8 A 72.1 72.1 0 0 1  432.6 504.7 L 360.5 576.8 A 72.1 72.1 0 0 0 432.6 504.7" fill="#d9ebdb"/><path d="M 432.6 576.8 A 72.1 72.1 0 0 1  504.70000000000005 504.7 L 432.6 576.8 A 72.1 72.1 0 0 0 504.70000000000005 504.7" fill="#ececec"/><rect x="648.9" y="504.69999999999993" width="72.1" height="72.1" fill="#ffffff"/><path d="M 648.9 540.75 A 36.05 36.05 0 0 1  684.9499999999999 504.7 L 648.9 540.75 A 36.05 36.05 0 0 0 684.9499999999999 504.7" fill="#9fcba5"/><path d="M 684.95 540.75 A 36.05 36.05 0 0 1  721 576.8 L 684.95 540.75 A 36.05 36.05 0 0 0 721 576.8" fill="#ffffff"/><path d="M 937.3 576.8 A 72.1 72.1 0 0 1  1009.4 504.7 L 937.3 576.8 A 72.1 72.1 0 0 0 1009.4 504.7" fill="#99c89f"/><rect x="1081.5" y="504.69999999999993" width="72.1" height="72.1" fill="#ffffff"/><path d="M 1081.5 504.7 A 36.05 36.05 0 0 1  1117.55 540.75 L 1081.5 504.7 A 36.05 36.05 0 0 0 1117.55 540.75" fill="#fbfdfb"/><rect x="72.1" y="576.8" width="72.1" height="72.1" fill="#ffffff"/><path d="M 108.15 612.85 A 36.05 36.05 0 0 1  144.2 648.9 L 108.15 612.85 A 36.05 36.05 0 0 0 144.2 648.9" fill="#fbfbfb"/><path d="M 144.2 576.8 A 72.1 72.1 0 0 1  216.29999999999998 648.9 L 144.2 576.8 A 72.1 72.1 0 0 0 216.29999999999998 648.9" fill="#e6e6e6"/><rect x="288.4" y="576.8" width="72.1" height="72.1" fill="#ffffff"/><path d="M 324.45 612.8499999999999 A 36.05 36.05 0 0 1  360.5 576.8 L 324.45 612.8499999999999 A 36.05 36.05 0 0 0 360.5 576.8" fill="#acd2b1"/><path d="M 288.4 648.9 A 36.05 36.05 0 0 1  324.45 612.85 L 288.4 648.9 A 36.05 36.05 0 0 0 324.45 612.85" fill="#6eb177"/><path d="M 360.5 576.8 A 72.1 72.1 0 0 1  432.6 648.9 L 360.5 576.8 A 72.1 72.1 0 0 0 432.6 648.9" fill="#fafafa"/><rect x="721" y="576.8" width="72.1" height="72.1" fill="#ffffff"/><path d="M 721 612.8499999999999 A 36.05 36.05 0 0 1  757.05 576.8 L 721 612.8499999999999 A 36.05 36.05 0 0 0 757.05 576.8" fill="#e6e6e6"/><rect x="865.1999999999999" y="576.8" width="72.1" height="72.1" fill="#ffffff"/><path d="M 1081.5 648.9 A 72.1 72.1 0 0 1  1153.6 576.8 L 1081.5 648.9 A 72.1 72.1 0 0 0 1153.6 576.8" fill="#dedede"/><rect x="721" y="648.9" width="72.1" height="72.1" fill="#ffffff"/><path d="M 721 648.9 A 36.05 36.05 0 0 1  757.05 684.9499999999999 L 721 648.9 A 36.05 36.05 0 0 0 757.05 684.9499999999999" fill="#ececec"/><rect x="937.3" y="648.9" width="72.1" height="72.1" fill="#ffffff"/><path d="M 937.3 684.9499999999999 A 36.05 36.05 0 0 1  973.3499999999999 648.9 L 937.3 684.9499999999999 A 36.05 36.05 0 0 0 973.3499999999999 648.9" fill="#ebebeb"/></g></svg>