<?xml version="1.0" standalone="no"?><svg xmlns:xlink="http://www.w3.org/1999/xlink" xmlns="http://www.w3.org/2000/svg" viewBox="0 0 1000 625.0054178694337" preserveAspectRatio="xMaxYMax slice"><g transform="scale(0.866859109388951)"><rect x="0" y="0" width="1153.6" height="721" fill="#1e1e28"/><rect x="28.84" y="28.84" width="14.419999999999995" height="14.419999999999995" fill="#1e1e28"/><rect x="28.84" y="28.84" width="7.21" height="7.21" fill="#295436"/><path d="M 28.84 36.05 A 7.21 7.21 0 0 0 36.05 28.84 L 28.84 28.84L28.84 36.05" fill="#254131"/><rect x="36.05" y="28.84" width="7.21" height="7.21" fill="#2c643b"/><path d="M 36.05 36.05 A 7.21 7.21 0 0 1  43.26 28.84 L 36.05 36.05 A 7.21 7.21 0 0 0 43.26 28.84" fill="#2d6a3c"/><rect x="28.84" y="36.05" width="7.21" height="7.21" fill="#359347"/><g transform="translate(28.84,36.05) scale(0.3605) rotate(0)"><path d="M10 5L5 0L0 5L5 10L0 15L5 20L10 15L15 20L20 15L15 10L20 5L15 0L10 5Z" fill="#20202a"/></g><rect x="36.05" y="36.05" width="7.21" height="7.21" fill="#47474b"/><path d="M 36.05 43.26 A 7.21 7.21 0 0 1  43.26 36.05 L 43.26 43.26L36.05 43.26" fill="#23232d"/><rect x="173.04" y="28.84" width="14.419999999999995" height="14.419999999999995" fill="#1e1e28"/><rect x="173.04" y="28.84" width="7.21" height="7.21" fill="#38a04b"/><g transform="translate(173.04,28.84) scale(0.3605) rotate(0)"><path d="M19.9981 0.00193429L3.72652 -7.68637e-07L8.4784 4.75382L0 13.2345L6.76585 20L15.2462 11.5208L20 16.2746L19.9981 0.00193429Z" fill="#545456"/></g><rect x="180.25" y="28.84" width="7.21" height="7.21" fill="#2d2d35"/><g transform="translate(180.25,28.84) scale(0.3605) rotate(0)"><rect width="20" height="2" fill="#3bb04f"/><rect y="4" width="20" height="2" fill="#3bb04f"/><rect y="8" width="20" height="2" fill="#3bb04f"/><rect y="12" width="20" height="2" fill="#3bb04f"/><rect y="16" width="20" height="2" fill="#3bb04f"/></g><rect x="173.04" y="36.05" width="7.21" height="7.21" fill="#2d2d35"/><g transform="translate(173.04,36.05) scale(0.3605) rotate(0)"><path d="M19.9981 0.00193429L3.72652 -7.68637e-07L8.4784 4.75382L0 13.2345L6.76585 20L15.2462 11.5208L20 16.2746L19.9981 0.00193429Z" fill="#515154"/></g><rect x="180.25" y="36.05" width="7.21" height="7.21" fill="#4a4a4e"/><g transform="translate(180.25,36.05) scale(0.3605) rotate(0)"><path d="M10 5L5 0L0 5L5 10L0 15L5 20L10 15L15 20L20 15L15 10L20 5L15 0L10 5Z" fill="#2c663b"/></g><rect x="245.14" y="28.84" width="14.419999999999995" height="14.419999999999995" fill="#1e1e28"/><rect x="252.35" y="28.84" width="7.21" height="7.21" fill="#25252e"/><g transform="translate(252.35,28.84) scale(0.3605) rotate(0)"><rect width="20" height="10" fill="#47474b"/></g><rect x="245.14" y="36.05" width="7.21" height="7.21" fill="#33333a"/><path d="M 245.14 43.26 A 7.21 7.21 0 0 1  252.35 36.05 L 245.14 43.26 A 7.21 7.21 0 0 0 252.35 36.05" fill="#2e703e"/><rect x="252.35" y="36.05" width="7.21" height="7.21" fill="#317e42"/><g transform="translate(252.35,36.05) scale(0.3605) rotate(0)"><path d="M10 0H20L0 20V10L10 0Z" fill="#4e4e51"/><path d="M20 10V20H10L20 10Z" fill="#4e4e51"/></g><rect x="317.23999999999995" y="28.84" width="14.419999999999995" height="14.419999999999995" fill="#1e1e28"/><rect x="317.24" y="28.84" width="7.21" height="7.21" fill="#2b5e39"/><g transform="translate(317.24,28.84) scale(0.3605) rotate(0)"><rect width="20" height="10" fill="#4c4c4f"/></g><rect x="324.45" y="28.84" width="7.21" height="7.21" fill="#3bb14f"/><g transform="translate(324.45,28.84) scale(0.3605) rotate(0)"><path d="M10 0H20L0 20V10L10 0Z" fill="#295537"/><path d="M20 10V20H10L20 10Z" fill="#295537"/></g><rect x="317.24" y="36.05" width="7.21" height="7.21" fill="#282831"/><g transform="translate(317.24,36.05) scale(0.3605) rotate(0)"><path fill-rule="evenodd" clip-rule="evenodd" d="M10 20C15.5228 20 20 15.5228 20 10C20 4.47715 15.5228 0 10 0C4.47715 0 0 4.47715 0 10C0 15.5228 4.47715 20 10 20ZM10 17C13.866 17 17 13.866 17 10C17 6.13401 13.866 3 10 3C6.13401 3 3 6.13401 3 10C3 13.866 6.13401 17 10 17Z" fill="#3bb14f"/></g><rect x="461.43999999999994" y="28.84" width="14.419999999999995" height="14.419999999999995" fill="#1e1e28"/><rect x="461.44" y="28.84" width="7.21" height="7.21" fill="#27272f"/><g transform="translate(461.44,28.84) scale(0.3605) rotate(0)"><rect width="2" height="20" fill="#2c2c34"/><rect x="4" width="2" height="20" fill="#2c2c34"/><rect x="8" width="2" height="20" fill="#2c2c34"/><rect x="12" width="2" height="20" fill="#2c2c34"/><rect x="16" width="2" height="20" fill="#2c2c34"/></g><rect x="468.65" y="28.84" width="7.21" height="7.21" fill="#295436"/><path d="M 468.65 36.05 A 7.21 7.21 0 0 1  475.85999999999996 28.84 L 468.65 36.05 A 7.21 7.21 0 0 0 475.85999999999996 28.84" fill="#2b603a"/><rect x="461.44" y="36.05" width="7.21" height="7.21" fill="#434347"/><circle cx="465.045" cy="39.654999999999994" r="3.605" fill="#292932"/><rect x="533.54" y="28.84" width="14.419999999999995" height="14.419999999999995" fill="#1e1e28"/><rect x="533.54" y="28.84" width="7.21" height="7.21" fill="#2d2d35"/><g transform="translate(533.54,28.84) scale(0.3605) rotate(0)"><path d="M5 0H10L5 5L0 10V5L5 0Z" fill="#2f753f"/><path d="M20 15V20H15L20 15Z" fill="#2f753f"/><path d="M20 5V10L15 15L10 20H5L20 5Z" fill="#2f753f"/><path d="M15 0H20L5 15.0002L0 20.0002V15.0002L15 0Z" fill="#2f753f"/></g><rect x="540.75" y="28.84" width="7.21" height="7.21" fill="#369447"/><path d="M 540.75 36.05 A 7.21 7.21 0 0 1  547.96 28.84 L 540.75 36.05 A 7.21 7.21 0 0 0 547.96 28.84" fill="#2d2d35"/><rect x="533.54" y="36.05" width="7.21" height="7.21" fill="#243c30"/><path d="M 533.54 43.26 A 7.21 7.21 0 0 0 540.75 36.05 L 533.54 36.05L533.54 43.26" fill="#2c633a"/><rect x="677.74" y="28.84" width="14.419999999999995" height="14.419999999999995" fill="#1e1e28"/><rect x="677.74" y="28.84" width="7.21" height="7.21" fill="#34343a"/><polygon points="677.74,28.84 684.95,28.84 684.95,36.05" fill="#36363c"/><rect x="677.74" y="36.05" width="7.21" height="7.21" fill="#1f2329"/><g transform="translate(677.74,36.05) scale(0.3605) rotate(0)"><path d="M10 5L5 0L0 5L5 10L0 15L5 20L10 15L15 20L20 15L15 10L20 5L15 0L10 5Z" fill="#307740"/></g><rect x="749.84" y="28.84" width="14.419999999999995" height="14.419999999999995" fill="#1e1e28"/><rect x="749.84" y="28.84" width="7.21" height="7.21" fill="#23382f"/><g transform="translate(749.84,28.84) scale(0.3605) rotate(0)"><path d="M19.9981 0.00193429L3.72652 -7.68637e-07L8.4784 4.75382L0 13.2345L6.76585 20L15.2462 11.5208L20 16.2746L19.9981 0.00193429Z" fill="#359347"/></g><rect x="757.05" y="28.84" width="7.21" height="7.21" fill="#285236"/><g transform="translate(757.05,28.84) scale(0.3605) rotate(0)"><rect width="2" height="20" fill="#212c2c"/><rect x="4" width="2" height="20" fill="#212c2c"/><rect x="8" width="2" height="20" fill="#212c2c"/><rect x="12" width="2" height="20" fill="#212c2c"/><rect x="16" width="2" height="20" fill="#212c2c"/></g><rect x="757.05" y="36.05" width="7.21" height="7.21" fill="#1e2028"/><g transform="translate(757.05,36.05) scale(0.3605) rotate(0)"><path d="M10 0H20L0 20V10L10 0Z" fill="#37373d"/><path d="M20 10V20H10L20 10Z" fill="#37373d"/></g><rect x="821.9399999999999" y="28.84" width="14.419999999999995" height="14.419999999999995" fill="#1e1e28"/><rect x="829.15" y="28.84" width="7.21" height="7.21" fill="#22312d"/><g transform="translate(829.15,28.84) scale(0.3605) rotate(0)"><path d="M19.9981 0.00193429L3.72652 -7.68637e-07L8.4784 4.75382L0 13.2345L6.76585 20L15.2462 11.5208L20 16.2746L19.9981 0.00193429Z" fill="#48484c"/></g><rect x="829.15" y="36.05" width="7.21" height="7.21" fill="#3f3f44"/><polygon points="829.15,36.05 836.36,43.26 829.15,43.26" fill="#1f2229"/><rect x="894.04" y="28.84" width="14.419999999999995" height="14.419999999999995" fill="#1e1e28"/><rect x="901.25" y="28.84" width="7.21" height="7.21" fill="#555557"/><polygon points="901.25,28.84 908.46,36.05 901.25,36.05" fill="#274933"/><rect x="894.04" y="36.05" width="7.21" height="7.21" fill="#39a54c"/><g transform="translate(894.04,36.05) scale(0.3605) rotate(0)"><rect width="2" height="20" fill="#2e6d3d"/><rect x="4" width="2" height="20" fill="#2e6d3d"/><rect x="8" width="2" height="20" fill="#2e6d3d"/><rect x="12" width="2" height="20" fill="#2e6d3d"/><rect x="16" width="2" height="20" fill="#2e6d3d"/></g><rect x="901.25" y="36.05" width="7.21" height="7.21" fill="#369548"/><circle cx="904.855" cy="39.654999999999994" r="3.605" fill="#38a04b"/><rect x="966.14" y="28.84" width="14.419999999999995" height="14.419999999999995" fill="#1e1e28"/><rect x="966.14" y="28.84" width="7.21" height="7.21" fill="#404045"/><g transform="translate(966.14,28.84) scale(0.3605) rotate(0)"><rect width="20" height="10" fill="#424246"/></g><rect x="973.35" y="28.84" width="7.21" height="7.21" fill="#2d693c"/><g transform="translate(973.35,28.84) scale(0.3605) rotate(0)"><path d="M10 5L5 0L0 5L5 10L0 15L5 20L10 15L15 20L20 15L15 10L20 5L15 0L10 5Z" fill="#505053"/></g><rect x="966.14" y="36.05" width="7.21" height="7.21" fill="#2e2e35"/><g transform="translate(966.14,36.05) scale(0.3605) rotate(0)"><path d="M10 0H20L0 20V10L10 0Z" fill="#274934"/><path d="M20 10V20H10L20 10Z" fill="#274934"/></g><rect x="973.35" y="36.05" width="7.21" height="7.21" fill="#5d5d5d"/><circle cx="976.955" cy="39.654999999999994" r="3.605" fill="#202a2b"/><rect x="99.90176" y="99.90176" width="16.49648" height="16.49648" fill="#1e1e28"/><rect x="99.9" y="99.9" width="8.25" height="8.25" fill="#369448"/><g transform="translate(99.9,99.9) scale(0.4125) rotate(0)"><rect width="2" height="20" fill="#359347"/><rect x="4" width="2" height="20" fill="#359347"/><rect x="8" width="2" height="20" fill="#359347"/><rect x="12" width="2" height="20" fill="#359347"/><rect x="16" width="2" height="20" fill="#359347"/></g><rect x="99.9" y="108.15" width="8.25" height="8.25" fill="#338644"/><g transform="translate(99.9,108.15) scale(0.4125) rotate(0)"><path d="M5 0H10L5 5L0 10V5L5 0Z" fill="#20262a"/><path d="M20 15V20H15L20 15Z" fill="#20262a"/><path d="M20 5V10L15 15L10 20H5L20 5Z" fill="#20262a"/><path d="M15 0H20L5 15.0002L0 20.0002V15.0002L15 0Z" fill="#20262a"/></g><rect x="108.15" y="108.15" width="8.25" height="8.25" fill="#4d4d50"/><path d="M 108.15 116.4 A 8.25 8.25 0 0 1  116.4 108.15 L 116.4 116.4L108.15 116.4" fill="#38a04b"/><rect x="170.96352" y="98.86352" width="18.572959999999995" height="18.572959999999995" fill="#1e1e28"/><rect x="180.25" y="98.86" width="9.29" height="9.29" fill="#389f4a"/><g transform="translate(180.25,98.86) scale(0.46449999999999997) rotate(0)"><path d="M10 5L5 0L0 5L5 10L0 15L5 20L10 15L15 20L20 15L15 10L20 5L15 0L10 5Z" fill="#22312d"/></g><rect x="170.96" y="108.15" width="9.29" height="9.29" fill="#606060"/><g transform="translate(170.96,108.15) scale(0.46449999999999997) rotate(0)"><path d="M10 0H20L0 20V10L10 0Z" fill="#2b603a"/><path d="M20 10V20H10L20 10Z" fill="#2b603a"/></g><rect x="180.25" y="108.15" width="9.29" height="9.29" fill="#3baf4f"/><g transform="translate(180.25,108.15) scale(0.46449999999999997) rotate(0)"><path d="M10 0H20L0 20V10L10 0Z" fill="#2b2b33"/><path d="M20 10V20H10L20 10Z" fill="#2b2b33"/></g><rect x="242.02527999999998" y="97.82527999999999" width="20.64944" height="20.64944" fill="#1e1e28"/><rect x="242.03" y="97.83" width="10.32" height="10.32" fill="#23232c"/><path d="M 242.03 108.15 A 10.32 10.32 0 0 0 252.35 97.83 L 242.03 97.83L242.03 108.15" fill="#358f46"/><rect x="252.35" y="97.83" width="10.32" height="10.32" fill="#2c2c34"/><polygon points="252.35,97.83 262.67,108.15 252.35,108.15" fill="#379c4a"/><rect x="242.03" y="108.15" width="10.32" height="10.32" fill="#3cb450"/><circle cx="247.19" cy="113.31" r="5.16" fill="#2d2d35"/><rect x="384.1488" y="95.74879999999999" width="24.80239999999999" height="24.80239999999999" fill="#1e1e28"/><rect x="384.15" y="95.75" width="12.4" height="12.4" fill="#359247"/><path d="M 384.15 108.15 A 12.4 12.4 0 0 0 396.54999999999995 95.75 L 384.15 95.75L384.15 108.15" fill="#46464a"/><rect x="396.55" y="95.75" width="12.4" height="12.4" fill="#25252e"/><g transform="translate(396.55,95.75) scale(0.62) rotate(0)"><rect width="20" height="10" fill="#317f42"/></g><rect x="396.55" y="108.15" width="12.4" height="12.4" fill="#338944"/><path d="M 396.55 120.55000000000001 A 12.4 12.4 0 0 1  408.95 108.15 L 396.55 120.55000000000001 A 12.4 12.4 0 0 0 408.95 108.15" fill="#3bb14f"/><rect x="455.21056" y="94.71056" width="26.878879999999988" height="26.878879999999988" fill="#1e1e28"/><rect x="455.21" y="94.71" width="13.44" height="13.44" fill="#3bb04f"/><g transform="translate(455.21,94.71) scale(0.6719999999999999) rotate(0)"><rect width="2" height="20" fill="#338744"/><rect x="4" width="2" height="20" fill="#338744"/><rect x="8" width="2" height="20" fill="#338744"/><rect x="12" width="2" height="20" fill="#338744"/><rect x="16" width="2" height="20" fill="#338744"/></g><rect x="468.65" y="94.71" width="13.44" height="13.44" fill="#284e35"/><g transform="translate(468.65,94.71) scale(0.6719999999999999) rotate(0)"><rect width="20" height="10" fill="#515153"/></g><rect x="468.65" y="108.15" width="13.44" height="13.44" fill="#2f733f"/><circle cx="475.37" cy="114.87" r="6.72" fill="#212b2b"/><rect x="598.7184" y="94.0184" width="28.26319999999999" height="28.26319999999999" fill="#1e1e28"/><rect x="612.85" y="94.02" width="14.13" height="14.13" fill="#3bb14f"/><g transform="translate(612.85,94.02) scale(0.7065) rotate(0)"><rect width="2" height="20" fill="#404045"/><rect x="4" width="2" height="20" fill="#404045"/><rect x="8" width="2" height="20" fill="#404045"/><rect x="12" width="2" height="20" fill="#404045"/><rect x="16" width="2" height="20" fill="#404045"/></g><rect x="598.72" y="108.15" width="14.13" height="14.13" fill="#20282b"/><circle cx="605.7850000000001" cy="115.215" r="7.065" fill="#4d4d50"/><rect x="612.85" y="108.15" width="14.13" height="14.13" fill="#303038"/><polygon points="626.98,108.15 626.98,122.28 612.85,122.28" fill="#303037"/><rect x="670.8184" y="94.0184" width="28.26319999999999" height="28.26319999999999" fill="#1e1e28"/><rect x="670.82" y="94.02" width="14.13" height="14.13" fill="#2a5b38"/><g transform="translate(670.82,94.02) scale(0.7065) rotate(0)"><rect width="2" height="20" fill="#284e35"/><rect x="4" width="2" height="20" fill="#284e35"/><rect x="8" width="2" height="20" fill="#284e35"/><rect x="12" width="2" height="20" fill="#284e35"/><rect x="16" width="2" height="20" fill="#284e35"/></g><rect x="684.95" y="94.02" width="14.13" height="14.13" fill="#282830"/><path d="M 684.95 94.02 A 14.13 14.13 0 0 1  699.08 108.14999999999999 L 684.95 94.02 A 14.13 14.13 0 0 0 699.08 108.14999999999999" fill="#254232"/><rect x="684.95" y="108.15" width="14.13" height="14.13" fill="#21212b"/><g transform="translate(684.95,108.15) scale(0.7065) rotate(0)"><path d="M10 0H20L0 20V10L10 0Z" fill="#505052"/><path d="M20 10V20H10L20 10Z" fill="#505052"/></g><rect x="743.61056" y="94.71056" width="26.878879999999988" height="26.878879999999988" fill="#1e1e28"/><rect x="743.61" y="108.15" width="13.44" height="13.44" fill="#454549"/><g transform="translate(743.61,108.15) scale(0.6719999999999999) rotate(0)"><path d="M10 0H20L0 20V10L10 0Z" fill="#379b49"/><path d="M20 10V20H10L20 10Z" fill="#379b49"/></g><rect x="757.05" y="108.15" width="13.44" height="13.44" fill="#33333a"/><g transform="translate(757.05,108.15) scale(0.6719999999999999) rotate(0)"><path d="M5 0H10L5 5L0 10V5L5 0Z" fill="#434348"/><path d="M20 15V20H15L20 15Z" fill="#434348"/><path d="M20 5V10L15 15L10 20H5L20 5Z" fill="#434348"/><path d="M15 0H20L5 15.0002L0 20.0002V15.0002L15 0Z" fill="#434348"/></g><rect x="889.88704" y="96.78703999999999" width="22.725919999999995" height="22.725919999999995" fill="#1e1e28"/><rect x="889.89" y="96.79" width="11.36" height="11.36" fill="#292931"/><circle cx="895.5699999999999" cy="102.47" r="5.68" fill="#22332e"/><rect x="889.89" y="108.15" width="11.36" height="11.36" fill="#2e6d3d"/><path d="M 889.89 108.15 A 11.36 11.36 0 0 1  901.25 119.51 L 889.89 108.15 A 11.36 11.36 0 0 0 901.25 119.51" fill="#2f2f36"/><rect x="901.25" y="108.15" width="11.36" height="11.36" fill="#5f5f5f"/><path d="M 901.25 119.51 A 11.36 11.36 0 0 0 912.61 108.15 L 901.25 108.15L901.25 119.51" fill="#2f733f"/><rect x="1036.1635199999998" y="98.86352" width="18.572959999999995" height="18.572959999999995" fill="#1e1e28"/><rect x="1036.16" y="98.86" width="9.29" height="9.29" fill="#525254"/><g transform="translate(1036.16,98.86) scale(0.46449999999999997) rotate(0)"><path d="M5 0H10L5 5L0 10V5L5 0Z" fill="#2a5837"/><path d="M20 15V20H15L20 15Z" fill="#2a5837"/><path d="M20 5V10L15 15L10 20H5L20 5Z" fill="#2a5837"/><path d="M15 0H20L5 15.0002L0 20.0002V15.0002L15 0Z" fill="#2a5837"/></g><rect x="1045.45" y="98.86" width="9.29" height="9.29" fill="#2d683c"/><g transform="translate(1045.45,98.86) scale(0.46449999999999997) rotate(0)"><path fill-rule="evenodd" clip-rule="evenodd" d="M10 20C15.5228 20 20 15.5228 20 10C20 4.47715 15.5228 0 10 0C4.47715 0 0 4.47715 0 10C0 15.5228 4.47715 20 10 20ZM10 17C13.866 17 17 13.866 17 10C17 6.13401 13.866 3 10 3C6.13401 3 3 6.13401 3 10C3 13.866 6.13401 17 10 17Z" fill="#20272b"/></g><rect x="1045.45" y="108.15" width="9.29" height="9.29" fill="#2e6e3d"/><g transform="translate(1045.45,108.15) scale(0.46449999999999997) rotate(0)"><path d="M10 0H20L0 20V10L10 0Z" fill="#575759"/><path d="M20 10V20H10L20 10Z" fill="#575759"/></g><rect x="1109.30176" y="99.90176" width="16.49648" height="16.49648" fill="#1e1e28"/><rect x="1109.3" y="99.9" width="8.25" height="8.25" fill="#1e1e28"/><g transform="translate(1109.3,99.9) scale(0.4125) rotate(0)"><rect width="20" height="2" fill="#434347"/><rect y="4" width="20" height="2" fill="#434347"/><rect y="8" width="20" height="2" fill="#434347"/><rect y="12" width="20" height="2" fill="#434347"/><rect y="16" width="20" height="2" fill="#434347"/></g><rect x="1117.55" y="108.15" width="8.25" height="8.25" fill="#3aa94d"/><g transform="translate(1117.55,108.15) scale(0.4125) rotate(0)"><path d="M5 0H10L5 5L0 10V5L5 0Z" fill="#328142"/><path d="M20 15V20H15L20 15Z" fill="#328142"/><path d="M20 5V10L15 15L10 20H5L20 5Z" fill="#328142"/><path d="M15 0H20L5 15.0002L0 20.0002V15.0002L15 0Z" fill="#328142"/></g><rect x="28.84" y="173.04" width="14.419999999999995" height="14.419999999999995" fill="#1e1e28"/><rect x="36.05" y="173.04" width="7.21" height="7.21" fill="#3d3d42"/><polygon points="36.05,173.04 43.26,173.04 43.26,180.25" fill="#338644"/><rect x="28.84" y="180.25" width="7.21" height="7.21" fill="#454549"/><g transform="translate(28.84,180.25) scale(0.3605) rotate(0)"><rect width="20" height="10" fill="#317c41"/></g><rect x="238.91055999999998" y="166.81055999999998" width="26.878879999999995" height="26.878879999999995" fill="#1e1e28"/><rect x="238.91" y="166.81" width="13.44" height="13.44" fill="#49494c"/><g transform="translate(238.91,166.81) scale(0.6719999999999999) rotate(0)"><path d="M10 5L5 0L0 5L5 10L0 15L5 20L10 15L15 20L20 15L15 10L20 5L15 0L10 5Z" fill="#2f743f"/></g><rect x="252.35" y="166.81" width="13.44" height="13.44" fill="#348b45"/><path d="M 252.35 166.81 A 13.44 13.44 0 0 0 265.79 180.25 L 265.79 166.81L252.35 166.81" fill="#3aa94d"/><rect x="238.91" y="180.25" width="13.44" height="13.44" fill="#2f743f"/><g transform="translate(238.91,180.25) scale(0.6719999999999999) rotate(0)"><path d="M10 0L20 10L10 20L0 10L10 0Z" fill="#575759"/></g><rect x="252.35" y="180.25" width="13.44" height="13.44" fill="#23382f"/><g transform="translate(252.35,180.25) scale(0.6719999999999999) rotate(0)"><path fill-rule="evenodd" clip-rule="evenodd" d="M10 20C15.5228 20 20 15.5228 20 10C20 4.47715 15.5228 0 10 0C4.47715 0 0 4.47715 0 10C0 15.5228 4.47715 20 10 20ZM10 17C13.866 17 17 13.866 17 10C17 6.13401 13.866 3 10 3C6.13401 3 3 6.13401 3 10C3 13.866 6.13401 17 10 17Z" fill="#292932"/></g><rect x="378.9576" y="162.6576" width="35.184799999999996" height="35.184799999999996" fill="#1e1e28"/><rect x="378.96" y="162.66" width="17.59" height="17.59" fill="#37373d"/><g transform="translate(378.96,162.66) scale(0.8795) rotate(0)"><path d="M10 0L20 10L10 20L0 10L10 0Z" fill="#35353c"/></g><rect x="378.96" y="180.25" width="17.59" height="17.59" fill="#379a49"/><g transform="translate(378.96,180.25) scale(0.8795) rotate(0)"><path d="M10 5L5 0L0 5L5 10L0 15L5 20L10 15L15 20L20 15L15 10L20 5L15 0L10 5Z" fill="#38a04b"/></g><rect x="396.55" y="180.25" width="17.59" height="17.59" fill="#414146"/><path d="M 396.55 180.25 A 17.59 17.59 0 0 1  414.14 197.84 L 396.55 180.25 A 17.59 17.59 0 0 0 414.14 197.84" fill="#389f4a"/><rect x="448.98112" y="160.58112" width="39.337759999999996" height="39.337759999999996" fill="#1e1e28"/><rect x="448.98" y="160.58" width="19.67" height="19.67" fill="#5d5d5d"/><g transform="translate(448.98,160.58) scale(0.9835) rotate(0)"><path d="M10 5L5 0L0 5L5 10L0 15L5 20L10 15L15 20L20 15L15 10L20 5L15 0L10 5Z" fill="#359046"/></g><rect x="468.65" y="160.58" width="19.67" height="19.67" fill="#2a2a32"/><g transform="translate(468.65,160.58) scale(0.9835) rotate(0)"><rect width="2" height="20" fill="#3aac4e"/><rect x="4" width="2" height="20" fill="#3aac4e"/><rect x="8" width="2" height="20" fill="#3aac4e"/><rect x="12" width="2" height="20" fill="#3aac4e"/><rect x="16" width="2" height="20" fill="#3aac4e"/></g><rect x="468.65" y="180.25" width="19.67" height="19.67" fill="#575759"/><g transform="translate(468.65,180.25) scale(0.9835) rotate(0)"><path d="M5 0H10L5 5L0 10V5L5 0Z" fill="#3aa94d"/><path d="M20 15V20H15L20 15Z" fill="#3aa94d"/><path d="M20 5V10L15 15L10 20H5L20 5Z" fill="#3aa94d"/><path d="M15 0H20L5 15.0002L0 20.0002V15.0002L15 0Z" fill="#3aa94d"/></g><rect x="519.6967999999999" y="159.1968" width="42.106399999999994" height="42.106399999999994" fill="#1e1e28"/><rect x="540.75" y="159.2" width="21.05" height="21.05" fill="#274934"/><g transform="translate(540.75,159.2) scale(1.0525) rotate(0)"><rect width="20" height="2" fill="#2d6b3d"/><rect y="4" width="20" height="2" fill="#2d6b3d"/><rect y="8" width="20" height="2" fill="#2d6b3d"/><rect y="12" width="20" height="2" fill="#2d6b3d"/><rect y="16" width="20" height="2" fill="#2d6b3d"/></g><rect x="519.7" y="180.25" width="21.05" height="21.05" fill="#505053"/><path d="M 519.7 201.3 A 21.05 21.05 0 0 0 540.75 180.25 L 519.7 180.25L519.7 201.3" fill="#3bae4e"/><rect x="540.75" y="180.25" width="21.05" height="21.05" fill="#38383e"/><g transform="translate(540.75,180.25) scale(1.0525) rotate(0)"><path d="M10 0H20L0 20V10L10 0Z" fill="#264833"/><path d="M20 10V20H10L20 10Z" fill="#264833"/></g><rect x="591.7968" y="159.1968" width="42.106399999999994" height="42.106399999999994" fill="#1e1e28"/><rect x="612.85" y="159.2" width="21.05" height="21.05" fill="#1f2229"/><g transform="translate(612.85,159.2) scale(1.0525) rotate(0)"><path d="M5 0H10L5 5L0 10V5L5 0Z" fill="#4c4c4f"/><path d="M20 15V20H15L20 15Z" fill="#4c4c4f"/><path d="M20 5V10L15 15L10 20H5L20 5Z" fill="#4c4c4f"/><path d="M15 0H20L5 15.0002L0 20.0002V15.0002L15 0Z" fill="#4c4c4f"/></g><rect x="612.85" y="180.25" width="21.05" height="21.05" fill="#212f2d"/><path d="M 612.85 201.3 A 21.05 21.05 0 0 1  633.9 180.25 L 612.85 201.3 A 21.05 21.05 0 0 0 633.9 180.25" fill="#22222b"/><rect x="663.8968" y="159.1968" width="42.106399999999994" height="42.106399999999994" fill="#1e1e28"/><rect x="663.9" y="159.2" width="21.05" height="21.05" fill="#3aa84d"/><circle cx="674.425" cy="169.725" r="10.525" fill="#328443"/><rect x="811.5575999999999" y="162.6576" width="35.184799999999996" height="35.184799999999996" fill="#1e1e28"/><rect x="829.15" y="162.66" width="17.59" height="17.59" fill="#1f252a"/><polygon points="846.74,162.66 846.74,180.25 829.15,180.25" fill="#307740"/><rect x="811.56" y="180.25" width="17.59" height="17.59" fill="#307840"/><g transform="translate(811.56,180.25) scale(0.8795) rotate(0)"><path d="M19.9981 0.00193429L3.72652 -7.68637e-07L8.4784 4.75382L0 13.2345L6.76585 20L15.2462 11.5208L20 16.2746L19.9981 0.00193429Z" fill="#515153"/></g><rect x="829.15" y="180.25" width="17.59" height="17.59" fill="#369448"/><polygon points="829.15,180.25 846.74,180.25 846.74,197.84" fill="#307840"/><rect x="885.73408" y="164.73408" width="31.03183999999999" height="31.03183999999999" fill="#1e1e28"/><rect x="901.25" y="164.73" width="15.52" height="15.52" fill="#36363c"/><g transform="translate(901.25,164.73) scale(0.776) rotate(0)"><rect width="20" height="10" fill="#379949"/></g><rect x="885.73" y="180.25" width="15.52" height="15.52" fill="#369548"/><path d="M 885.73 180.25 A 15.52 15.52 0 0 1  901.25 195.77 L 885.73 180.25 A 15.52 15.52 0 0 0 901.25 195.77" fill="#4f4f51"/><rect x="901.25" y="180.25" width="15.52" height="15.52" fill="#4b4b4e"/><path d="M 901.25 180.25 A 15.52 15.52 0 0 1  916.77 195.77 L 901.25 180.25 A 15.52 15.52 0 0 0 916.77 195.77" fill="#3aab4e"/><rect x="1034.08704" y="168.88703999999998" width="22.725919999999995" height="22.725919999999995" fill="#1e1e28"/><rect x="1045.45" y="168.89" width="11.36" height="11.36" fill="#1f2229"/><path d="M 1045.45 168.89 A 11.36 11.36 0 0 0 1056.81 180.25 L 1056.81 168.89L1045.45 168.89" fill="#5a5a5b"/><rect x="1045.45" y="180.25" width="11.36" height="11.36" fill="#379d4a"/><g transform="translate(1045.45,180.25) scale(0.568) rotate(0)"><path d="M19.9981 0.00193429L3.72652 -7.68637e-07L8.4784 4.75382L0 13.2345L6.76585 20L15.2462 11.5208L20 16.2746L19.9981 0.00193429Z" fill="#34343b"/></g><rect x="1108.26352" y="170.96352" width="18.572959999999995" height="18.572959999999995" fill="#1e1e28"/><rect x="1108.26" y="180.25" width="9.29" height="9.29" fill="#515153"/><g transform="translate(1108.26,180.25) scale(0.46449999999999997) rotate(0)"><rect width="20" height="2" fill="#535355"/><rect y="4" width="20" height="2" fill="#535355"/><rect y="8" width="20" height="2" fill="#535355"/><rect y="12" width="20" height="2" fill="#535355"/><rect y="16" width="20" height="2" fill="#535355"/></g><rect x="1117.55" y="180.25" width="9.29" height="9.29" fill="#313138"/><g transform="translate(1117.55,180.25) scale(0.46449999999999997) rotate(0)"><path d="M10 5L5 0L0 5L5 10L0 15L5 20L10 15L15 20L20 15L15 10L20 5L15 0L10 5Z" fill="#4b4b4e"/></g><rect x="166.81055999999998" y="238.91055999999998" width="26.878879999999995" height="26.878879999999995" fill="#1e1e28"/><rect x="166.81" y="238.91" width="13.44" height="13.44" fill="#317d41"/><g transform="translate(166.81,238.91) scale(0.6719999999999999) rotate(0)"><path d="M10 0H20L0 20V10L10 0Z" fill="#434347"/><path d="M20 10V20H10L20 10Z" fill="#434347"/></g><rect x="180.25" y="238.91" width="13.44" height="13.44" fill="#379d4a"/><g transform="translate(180.25,238.91) scale(0.6719999999999999) rotate(0)"><path d="M10 5L5 0L0 5L5 10L0 15L5 20L10 15L15 20L20 15L15 10L20 5L15 0L10 5Z" fill="#3a3a40"/></g><rect x="166.81" y="252.35" width="13.44" height="13.44" fill="#2b5d39"/><g transform="translate(166.81,252.35) scale(0.6719999999999999) rotate(0)"><path d="M10 5L5 0L0 5L5 10L0 15L5 20L10 15L15 20L20 15L15 10L20 5L15 0L10 5Z" fill="#2c2c34"/></g><rect x="180.25" y="252.35" width="13.44" height="13.44" fill="#4d4d50"/><g transform="translate(180.25,252.35) scale(0.6719999999999999) rotate(0)"><rect width="2" height="20" fill="#22342e"/><rect x="4" width="2" height="20" fill="#22342e"/><rect x="8" width="2" height="20" fill="#22342e"/><rect x="12" width="2" height="20" fill="#22342e"/><rect x="16" width="2" height="20" fill="#22342e"/></g><rect x="304.78112" y="232.68112" width="39.337759999999996" height="39.337759999999996" fill="#1e1e28"/><rect x="304.78" y="232.68" width="19.67" height="19.67" fill="#389f4a"/><g transform="translate(304.78,232.68) scale(0.9835) rotate(0)"><rect width="20" height="2" fill="#274c34"/><rect y="4" width="20" height="2" fill="#274c34"/><rect y="8" width="20" height="2" fill="#274c34"/><rect y="12" width="20" height="2" fill="#274c34"/><rect y="16" width="20" height="2" fill="#274c34"/></g><rect x="304.78" y="252.35" width="19.67" height="19.67" fill="#369748"/><g transform="translate(304.78,252.35) scale(0.9835) rotate(0)"><path fill-rule="evenodd" clip-rule="evenodd" d="M10 20C15.5228 20 20 15.5228 20 10C20 4.47715 15.5228 0 10 0C4.47715 0 0 4.47715 0 10C0 15.5228 4.47715 20 10 20ZM10 17C13.866 17 17 13.866 17 10C17 6.13401 13.866 3 10 3C6.13401 3 3 6.13401 3 10C3 13.866 6.13401 17 10 17Z" fill="#2b5f39"/></g><rect x="324.45" y="252.35" width="19.67" height="19.67" fill="#2f2f37"/><g transform="translate(324.45,252.35) scale(0.9835) rotate(0)"><rect width="2" height="20" fill="#47474b"/><rect x="4" width="2" height="20" fill="#47474b"/><rect x="8" width="2" height="20" fill="#47474b"/><rect x="12" width="2" height="20" fill="#47474b"/><rect x="16" width="2" height="20" fill="#47474b"/></g><rect x="373.7664" y="229.5664" width="45.5672" height="45.5672" fill="#1e1e28"/><rect x="373.77" y="229.57" width="22.78" height="22.78" fill="#2d673b"/><path d="M 373.77 229.57 A 22.78 22.78 0 0 1  396.54999999999995 252.35 L 373.77 229.57 A 22.78 22.78 0 0 0 396.54999999999995 252.35" fill="#2c663b"/><rect x="396.55" y="229.57" width="22.78" height="22.78" fill="#2e6e3d"/><g transform="translate(396.55,229.57) scale(1.139) rotate(0)"><path d="M10 0L20 10L10 20L0 10L10 0Z" fill="#243c30"/></g><rect x="442.75167999999996" y="226.45167999999998" width="51.79663999999999" height="51.79663999999999" fill="#1e1e28"/><rect x="442.75" y="226.45" width="25.9" height="25.9" fill="#3bae4e"/><path d="M 442.75 226.45 A 25.9 25.9 0 0 1  468.65 252.35 L 442.75 226.45 A 25.9 25.9 0 0 0 468.65 252.35" fill="#2b603a"/><rect x="442.75" y="252.35" width="25.9" height="25.9" fill="#434348"/><path d="M 442.75 252.35 A 25.9 25.9 0 0 1  468.65 278.25 L 442.75 252.35 A 25.9 25.9 0 0 0 468.65 278.25" fill="#323239"/><rect x="512.7751999999999" y="224.37519999999998" width="55.94959999999999" height="55.94959999999999" fill="#1e1e28"/><rect x="512.78" y="224.38" width="27.97" height="27.97" fill="#3bad4e"/><g transform="translate(512.78,224.38) scale(1.3984999999999999) rotate(0)"><path d="M10 5L5 0L0 5L5 10L0 15L5 20L10 15L15 20L20 15L15 10L20 5L15 0L10 5Z" fill="#545456"/></g><rect x="540.75" y="224.38" width="27.97" height="27.97" fill="#3a3a40"/><path d="M 540.75 224.38 A 27.97 27.97 0 0 1  568.72 252.35 L 540.75 224.38 A 27.97 27.97 0 0 0 568.72 252.35" fill="#30763f"/><rect x="512.78" y="252.35" width="27.97" height="27.97" fill="#323239"/><g transform="translate(512.78,252.35) scale(1.3984999999999999) rotate(0)"><path d="M19.9981 0.00193429L3.72652 -7.68637e-07L8.4784 4.75382L0 13.2345L6.76585 20L15.2462 11.5208L20 16.2746L19.9981 0.00193429Z" fill="#404045"/></g><rect x="540.75" y="252.35" width="27.97" height="27.97" fill="#4d4d50"/><g transform="translate(540.75,252.35) scale(1.3984999999999999) rotate(0)"><path d="M10 0L20 10L10 20L0 10L10 0Z" fill="#3b3b41"/></g><rect x="656.9752" y="224.37519999999998" width="55.94959999999999" height="55.94959999999999" fill="#1e1e28"/><rect x="656.98" y="224.38" width="27.97" height="27.97" fill="#23372f"/><g transform="translate(656.98,224.38) scale(1.3984999999999999) rotate(0)"><path d="M10 0L20 10L10 20L0 10L10 0Z" fill="#404045"/></g><rect x="684.95" y="224.38" width="27.97" height="27.97" fill="#3a3a40"/><g transform="translate(684.95,224.38) scale(1.3984999999999999) rotate(0)"><rect width="20" height="2" fill="#348b45"/><rect y="4" width="20" height="2" fill="#348b45"/><rect y="8" width="20" height="2" fill="#348b45"/><rect y="12" width="20" height="2" fill="#348b45"/><rect y="16" width="20" height="2" fill="#348b45"/></g><rect x="684.95" y="252.35" width="27.97" height="27.97" fill="#313138"/><g transform="translate(684.95,252.35) scale(1.3984999999999999) rotate(0)"><rect width="2" height="20" fill="#313138"/><rect x="4" width="2" height="20" fill="#313138"/><rect x="8" width="2" height="20" fill="#313138"/><rect x="12" width="2" height="20" fill="#313138"/><rect x="16" width="2" height="20" fill="#313138"/></g><rect x="956.79584" y="235.79584" width="33.10831999999999" height="33.10831999999999" fill="#1e1e28"/><rect x="956.8" y="235.8" width="16.55" height="16.55" fill="#307a41"/><g transform="translate(956.8,235.8) scale(0.8275) rotate(0)"><rect width="2" height="20" fill="#348b45"/><rect x="4" width="2" height="20" fill="#348b45"/><rect x="8" width="2" height="20" fill="#348b45"/><rect x="12" width="2" height="20" fill="#348b45"/><rect x="16" width="2" height="20" fill="#348b45"/></g><rect x="973.35" y="235.8" width="16.55" height="16.55" fill="#34343b"/><g transform="translate(973.35,235.8) scale(0.8275) rotate(0)"><path d="M10 0H20L0 20V10L10 0Z" fill="#307840"/><path d="M20 10V20H10L20 10Z" fill="#307840"/></g><rect x="956.8" y="252.35" width="16.55" height="16.55" fill="#3b3b41"/><polygon points="956.8,252.35 973.3499999999999,252.35 956.8,268.9" fill="#45454a"/><rect x="973.35" y="252.35" width="16.55" height="16.55" fill="#328042"/><polygon points="973.35,252.35 989.9,268.9 973.35,268.9" fill="#5f5f60"/><rect x="1032.01056" y="238.91055999999998" width="26.878879999999995" height="26.878879999999995" fill="#1e1e28"/><rect x="1032.01" y="238.91" width="13.44" height="13.44" fill="#212d2c"/><g transform="translate(1032.01,238.91) scale(0.6719999999999999) rotate(0)"><path d="M10 5L5 0L0 5L5 10L0 15L5 20L10 15L15 20L20 15L15 10L20 5L15 0L10 5Z" fill="#1f2329"/></g><rect x="1045.45" y="252.35" width="13.44" height="13.44" fill="#2d6b3c"/><g transform="translate(1045.45,252.35) scale(0.6719999999999999) rotate(0)"><path fill-rule="evenodd" clip-rule="evenodd" d="M10 20C15.5228 20 20 15.5228 20 10C20 4.47715 15.5228 0 10 0C4.47715 0 0 4.47715 0 10C0 15.5228 4.47715 20 10 20ZM10 17C13.866 17 17 13.866 17 10C17 6.13401 13.866 3 10 3C6.13401 3 3 6.13401 3 10C3 13.866 6.13401 17 10 17Z" fill="#4c4c4f"/></g><rect x="28.84" y="317.23999999999995" width="14.419999999999995" height="14.419999999999995" fill="#1e1e28"/><rect x="36.05" y="317.24" width="7.21" height="7.21" fill="#348c45"/><g transform="translate(36.05,317.24) scale(0.3605) rotate(0)"><path d="M19.9981 0.00193429L3.72652 -7.68637e-07L8.4784 4.75382L0 13.2345L6.76585 20L15.2462 11.5208L20 16.2746L19.9981 0.00193429Z" fill="#212f2d"/></g><rect x="28.84" y="324.45" width="7.21" height="7.21" fill="#555557"/><g transform="translate(28.84,324.45) scale(0.3605) rotate(0)"><path d="M5 0H10L5 5L0 10V5L5 0Z" fill="#46464a"/><path d="M20 15V20H15L20 15Z" fill="#46464a"/><path d="M20 5V10L15 15L10 20H5L20 5Z" fill="#46464a"/><path d="M15 0H20L5 15.0002L0 20.0002V15.0002L15 0Z" fill="#46464a"/></g><rect x="96.78703999999999" y="313.08704" width="22.725919999999995" height="22.725919999999995" fill="#1e1e28"/><rect x="96.79" y="313.09" width="11.36" height="11.36" fill="#274d35"/><polygon points="108.15,313.09 108.15,324.45 96.79,324.45" fill="#285136"/><rect x="108.15" y="313.09" width="11.36" height="11.36" fill="#264633"/><g transform="translate(108.15,313.09) scale(0.568) rotate(0)"><rect width="20" height="2" fill="#555557"/><rect y="4" width="20" height="2" fill="#555557"/><rect y="8" width="20" height="2" fill="#555557"/><rect y="12" width="20" height="2" fill="#555557"/><rect y="16" width="20" height="2" fill="#555557"/></g><rect x="108.15" y="324.45" width="11.36" height="11.36" fill="#2c643b"/><g transform="translate(108.15,324.45) scale(0.568) rotate(0)"><rect width="2" height="20" fill="#5b5b5c"/><rect x="4" width="2" height="20" fill="#5b5b5c"/><rect x="8" width="2" height="20" fill="#5b5b5c"/><rect x="12" width="2" height="20" fill="#5b5b5c"/><rect x="16" width="2" height="20" fill="#5b5b5c"/></g><rect x="164.73408" y="308.93408" width="31.03183999999999" height="31.03183999999999" fill="#1e1e28"/><rect x="164.73" y="308.93" width="15.52" height="15.52" fill="#36363c"/><g transform="translate(164.73,308.93) scale(0.776) rotate(0)"><path d="M5 0H10L5 5L0 10V5L5 0Z" fill="#22332e"/><path d="M20 15V20H15L20 15Z" fill="#22332e"/><path d="M20 5V10L15 15L10 20H5L20 5Z" fill="#22332e"/><path d="M15 0H20L5 15.0002L0 20.0002V15.0002L15 0Z" fill="#22332e"/></g><rect x="164.73" y="324.45" width="15.52" height="15.52" fill="#49494d"/><g transform="translate(164.73,324.45) scale(0.776) rotate(0)"><path d="M10 5L5 0L0 5L5 10L0 15L5 20L10 15L15 20L20 15L15 10L20 5L15 0L10 5Z" fill="#25252e"/></g><rect x="180.25" y="324.45" width="15.52" height="15.52" fill="#2b2b33"/><g transform="translate(180.25,324.45) scale(0.776) rotate(0)"><path fill-rule="evenodd" clip-rule="evenodd" d="M10 20C15.5228 20 20 15.5228 20 10C20 4.47715 15.5228 0 10 0C4.47715 0 0 4.47715 0 10C0 15.5228 4.47715 20 10 20ZM10 17C13.866 17 17 13.866 17 10C17 6.13401 13.866 3 10 3C6.13401 3 3 6.13401 3 10C3 13.866 6.13401 17 10 17Z" fill="#565658"/></g><rect x="368.5752" y="296.4752" width="55.94959999999999" height="55.94959999999999" fill="#1e1e28"/><rect x="368.58" y="296.48" width="27.97" height="27.97" fill="#23372f"/><g transform="translate(368.58,296.48) scale(1.3984999999999999) rotate(0)"><path d="M10 0H20L0 20V10L10 0Z" fill="#2e703e"/><path d="M20 10V20H10L20 10Z" fill="#2e703e"/></g><rect x="396.55" y="296.48" width="27.97" height="27.97" fill="#264633"/><g transform="translate(396.55,296.48) scale(1.3984999999999999) rotate(0)"><path d="M10 0H20L0 20V10L10 0Z" fill="#22322d"/><path d="M20 10V20H10L20 10Z" fill="#22322d"/></g><rect x="368.58" y="324.45" width="27.97" height="27.97" fill="#3bb14f"/><g transform="translate(368.58,324.45) scale(1.3984999999999999) rotate(0)"><rect width="20" height="2" fill="#424246"/><rect y="4" width="20" height="2" fill="#424246"/><rect y="8" width="20" height="2" fill="#424246"/><rect y="12" width="20" height="2" fill="#424246"/><rect y="16" width="20" height="2" fill="#424246"/></g><rect x="436.52223999999995" y="292.32223999999997" width="64.25551999999999" height="64.25551999999999" fill="#1e1e28"/><rect x="468.65" y="292.32" width="32.13" height="32.13" fill="#2d2d34"/><path d="M 468.65 324.45 A 32.13 32.13 0 0 1  500.78 292.32 L 468.65 324.45 A 32.13 32.13 0 0 0 500.78 292.32" fill="#2c663b"/><rect x="436.52" y="324.45" width="32.13" height="32.13" fill="#434347"/><g transform="translate(436.52,324.45) scale(1.6065) rotate(0)"><path fill-rule="evenodd" clip-rule="evenodd" d="M10 20C15.5228 20 20 15.5228 20 10C20 4.47715 15.5228 0 10 0C4.47715 0 0 4.47715 0 10C0 15.5228 4.47715 20 10 20ZM10 17C13.866 17 17 13.866 17 10C17 6.13401 13.866 3 10 3C6.13401 3 3 6.13401 3 10C3 13.866 6.13401 17 10 17Z" fill="#323239"/></g><rect x="468.65" y="324.45" width="32.13" height="32.13" fill="#4e4e51"/><g transform="translate(468.65,324.45) scale(1.6065) rotate(0)"><rect width="2" height="20" fill="#264733"/><rect x="4" width="2" height="20" fill="#264733"/><rect x="8" width="2" height="20" fill="#264733"/><rect x="12" width="2" height="20" fill="#264733"/><rect x="16" width="2" height="20" fill="#264733"/></g><rect x="505.8535999999999" y="289.55359999999996" width="69.7928" height="69.7928" fill="#1e1e28"/><rect x="505.85" y="289.55" width="34.9" height="34.9" fill="#295637"/><g transform="translate(505.85,289.55) scale(1.7449999999999999) rotate(0)"><path d="M19.9981 0.00193429L3.72652 -7.68637e-07L8.4784 4.75382L0 13.2345L6.76585 20L15.2462 11.5208L20 16.2746L19.9981 0.00193429Z" fill="#505053"/></g><rect x="505.85" y="324.45" width="34.9" height="34.9" fill="#39393f"/><g transform="translate(505.85,324.45) scale(1.7449999999999999) rotate(0)"><path d="M10 0H20L0 20V10L10 0Z" fill="#25252e"/><path d="M20 10V20H10L20 10Z" fill="#25252e"/></g><rect x="540.75" y="324.45" width="34.9" height="34.9" fill="#21212a"/><g transform="translate(540.75,324.45) scale(1.7449999999999999) rotate(0)"><rect width="20" height="10" fill="#274b34"/></g><rect x="577.9535999999999" y="289.55359999999996" width="69.7928" height="69.7928" fill="#1e1e28"/><rect x="577.95" y="324.45" width="34.9" height="34.9" fill="#505053"/><g transform="translate(577.95,324.45) scale(1.7449999999999999) rotate(0)"><rect width="20" height="10" fill="#20262a"/></g><rect x="612.85" y="324.45" width="34.9" height="34.9" fill="#3cb350"/><polygon points="612.85,324.45 647.75,324.45 647.75,359.34999999999997" fill="#39393f"/><rect x="801.1751999999999" y="296.4752" width="55.94959999999999" height="55.94959999999999" fill="#1e1e28"/><rect x="801.18" y="296.48" width="27.97" height="27.97" fill="#2b5e39"/><g transform="translate(801.18,296.48) scale(1.3984999999999999) rotate(0)"><path d="M10 5L5 0L0 5L5 10L0 15L5 20L10 15L15 20L20 15L15 10L20 5L15 0L10 5Z" fill="#2c653b"/></g><rect x="829.15" y="296.48" width="27.97" height="27.97" fill="#444448"/><circle cx="843.135" cy="310.46500000000003" r="13.985" fill="#3d3d42"/><rect x="801.18" y="324.45" width="27.97" height="27.97" fill="#33333a"/><g transform="translate(801.18,324.45) scale(1.3984999999999999) rotate(0)"><rect width="2" height="20" fill="#434348"/><rect x="4" width="2" height="20" fill="#434348"/><rect x="8" width="2" height="20" fill="#434348"/><rect x="12" width="2" height="20" fill="#434348"/><rect x="16" width="2" height="20" fill="#434348"/></g><rect x="829.15" y="324.45" width="27.97" height="27.97" fill="#2a5c39"/><circle cx="843.135" cy="338.435" r="13.985" fill="#295436"/><rect x="953.68112" y="304.78112" width="39.337759999999996" height="39.337759999999996" fill="#1e1e28"/><rect x="973.35" y="304.78" width="19.67" height="19.67" fill="#47474b"/><g transform="translate(973.35,304.78) scale(0.9835) rotate(0)"><rect width="20" height="2" fill="#606060"/><rect y="4" width="20" height="2" fill="#606060"/><rect y="8" width="20" height="2" fill="#606060"/><rect y="12" width="20" height="2" fill="#606060"/><rect y="16" width="20" height="2" fill="#606060"/></g><rect x="1029.9340799999998" y="308.93408" width="31.03183999999999" height="31.03183999999999" fill="#1e1e28"/><rect x="1029.93" y="308.93" width="15.52" height="15.52" fill="#2b2b33"/><circle cx="1037.69" cy="316.69" r="7.76" fill="#545456"/><rect x="1029.93" y="324.45" width="15.52" height="15.52" fill="#3a3a40"/><g transform="translate(1029.93,324.45) scale(0.776) rotate(0)"><rect width="2" height="20" fill="#3aa94d"/><rect x="4" width="2" height="20" fill="#3aa94d"/><rect x="8" width="2" height="20" fill="#3aa94d"/><rect x="12" width="2" height="20" fill="#3aa94d"/><rect x="16" width="2" height="20" fill="#3aa94d"/></g><rect x="1106.18704" y="313.08704" width="22.725919999999995" height="22.725919999999995" fill="#1e1e28"/><rect x="1106.19" y="313.09" width="11.36" height="11.36" fill="#5e5e5f"/><g transform="translate(1106.19,313.09) scale(0.568) rotate(0)"><path d="M10 5L5 0L0 5L5 10L0 15L5 20L10 15L15 20L20 15L15 10L20 5L15 0L10 5Z" fill="#2a5a38"/></g><rect x="1117.55" y="313.09" width="11.36" height="11.36" fill="#264833"/><g transform="translate(1117.55,313.09) scale(0.568) rotate(0)"><path d="M19.9981 0.00193429L3.72652 -7.68637e-07L8.4784 4.75382L0 13.2345L6.76585 20L15.2462 11.5208L20 16.2746L19.9981 0.00193429Z" fill="#2a5c39"/></g><rect x="1106.19" y="324.45" width="11.36" height="11.36" fill="#37373d"/><polygon points="1106.19,324.45 1117.55,324.45 1106.19,335.81" fill="#4d4d50"/><rect x="1117.55" y="324.45" width="11.36" height="11.36" fill="#585859"/><g transform="translate(1117.55,324.45) scale(0.568) rotate(0)"><path d="M19.9981 0.00193429L3.72652 -7.68637e-07L8.4784 4.75382L0 13.2345L6.76585 20L15.2462 11.5208L20 16.2746L19.9981 0.00193429Z" fill="#202029"/></g><rect x="164.38799999999998" y="380.688" width="31.72399999999999" height="31.72399999999999" fill="#1e1e28"/><rect x="180.25" y="396.55" width="15.86" height="15.86" fill="#3d3d42"/><path d="M 180.25 396.55 A 15.86 15.86 0 0 1  196.11 412.41 L 180.25 396.55 A 15.86 15.86 0 0 0 196.11 412.41" fill="#1e2029"/><rect x="367.71" y="367.71" width="57.67999999999999" height="57.67999999999999" fill="#1e1e28"/><rect x="367.71" y="367.71" width="28.84" height="28.84" fill="#424247"/><g transform="translate(367.71,367.71) scale(1.442) rotate(0)"><path d="M10 0L20 10L10 20L0 10L10 0Z" fill="#2c643b"/></g><rect x="504.69999999999993" y="360.5" width="72.1" height="72.1" fill="#1e1e28"/><rect x="504.7" y="360.5" width="36.05" height="36.05" fill="#23372f"/><circle cx="522.725" cy="378.525" r="18.025" fill="#2c2c34"/><rect x="540.75" y="360.5" width="36.05" height="36.05" fill="#348e46"/><circle cx="558.775" cy="378.525" r="18.025" fill="#5d5d5e"/><rect x="504.7" y="396.55" width="36.05" height="36.05" fill="#285236"/><g transform="translate(504.7,396.55) scale(1.8024999999999998) rotate(0)"><path d="M19.9981 0.00193429L3.72652 -7.68637e-07L8.4784 4.75382L0 13.2345L6.76585 20L15.2462 11.5208L20 16.2746L19.9981 0.00193429Z" fill="#545456"/></g><rect x="540.75" y="396.55" width="36.05" height="36.05" fill="#47474b"/><g transform="translate(540.75,396.55) scale(1.8024999999999998) rotate(0)"><rect width="20" height="10" fill="#36363c"/></g><rect x="648.9" y="360.5" width="72.1" height="72.1" fill="#1e1e28"/><rect x="648.9" y="360.5" width="36.05" height="36.05" fill="#2c653b"/><g transform="translate(648.9,360.5) scale(1.8024999999999998) rotate(0)"><path d="M19.9981 0.00193429L3.72652 -7.68637e-07L8.4784 4.75382L0 13.2345L6.76585 20L15.2462 11.5208L20 16.2746L19.9981 0.00193429Z" fill="#274b34"/></g><rect x="684.95" y="360.5" width="36.05" height="36.05" fill="#22342e"/><polygon points="684.95,360.5 721,396.55 684.95,396.55" fill="#505053"/><rect x="648.9" y="396.55" width="36.05" height="36.05" fill="#328042"/><g transform="translate(648.9,396.55) scale(1.8024999999999998) rotate(0)"><rect width="2" height="20" fill="#2c653b"/><rect x="4" width="2" height="20" fill="#2c653b"/><rect x="8" width="2" height="20" fill="#2c653b"/><rect x="12" width="2" height="20" fill="#2c653b"/><rect x="16" width="2" height="20" fill="#2c653b"/></g><rect x="684.95" y="396.55" width="36.05" height="36.05" fill="#369447"/><g transform="translate(684.95,396.55) scale(1.8024999999999998) rotate(0)"><rect width="2" height="20" fill="#338945"/><rect x="4" width="2" height="20" fill="#338945"/><rect x="8" width="2" height="20" fill="#338945"/><rect x="12" width="2" height="20" fill="#338945"/><rect x="16" width="2" height="20" fill="#338945"/></g><rect x="723.884" y="363.384" width="66.332" height="66.332" fill="#1e1e28"/><rect x="723.88" y="363.38" width="33.17" height="33.17" fill="#434347"/><g transform="translate(723.88,363.38) scale(1.6585) rotate(0)"><path d="M10 5L5 0L0 5L5 10L0 15L5 20L10 15L15 20L20 15L15 10L20 5L15 0L10 5Z" fill="#2b5f39"/></g><rect x="757.05" y="363.38" width="33.17" height="33.17" fill="#38a24b"/><g transform="translate(757.05,363.38) scale(1.6585) rotate(0)"><path d="M10 5L5 0L0 5L5 10L0 15L5 20L10 15L15 20L20 15L15 10L20 5L15 0L10 5Z" fill="#323239"/></g><rect x="876.7359999999999" y="372.036" width="49.02799999999999" height="49.02799999999999" fill="#1e1e28"/><rect x="876.74" y="372.04" width="24.51" height="24.51" fill="#348e46"/><g transform="translate(876.74,372.04) scale(1.2255) rotate(0)"><path d="M5 0H10L5 5L0 10V5L5 0Z" fill="#22332e"/><path d="M20 15V20H15L20 15Z" fill="#22332e"/><path d="M20 5V10L15 15L10 20H5L20 5Z" fill="#22332e"/><path d="M15 0H20L5 15.0002L0 20.0002V15.0002L15 0Z" fill="#22332e"/></g><rect x="901.25" y="396.55" width="24.51" height="24.51" fill="#2b5e39"/><path d="M 901.25 421.06 A 24.51 24.51 0 0 1  925.76 396.55 L 901.25 421.06 A 24.51 24.51 0 0 0 925.76 396.55" fill="#48484c"/><rect x="953.1619999999999" y="376.362" width="40.37599999999999" height="40.37599999999999" fill="#1e1e28"/><rect x="953.16" y="376.36" width="20.19" height="20.19" fill="#36363d"/><polygon points="973.35,376.36 973.35,396.55 953.16,396.55" fill="#264432"/><rect x="973.35" y="376.36" width="20.19" height="20.19" fill="#2d2d34"/><g transform="translate(973.35,376.36) scale(1.0095) rotate(0)"><rect width="20" height="2" fill="#2e703e"/><rect y="4" width="20" height="2" fill="#2e703e"/><rect y="8" width="20" height="2" fill="#2e703e"/><rect y="12" width="20" height="2" fill="#2e703e"/><rect y="16" width="20" height="2" fill="#2e703e"/></g><rect x="953.16" y="396.55" width="20.19" height="20.19" fill="#38a24b"/><polygon points="973.35,396.55 973.35,416.74 953.16,416.74" fill="#338543"/><rect x="973.35" y="396.55" width="20.19" height="20.19" fill="#348b45"/><polygon points="973.35,396.55 993.5400000000001,416.74 973.35,416.74" fill="#4f4f52"/><rect x="1029.588" y="380.688" width="31.72399999999999" height="31.72399999999999" fill="#1e1e28"/><rect x="1045.45" y="380.69" width="15.86" height="15.86" fill="#264833"/><g transform="translate(1045.45,380.69) scale(0.7929999999999999) rotate(0)"><path fill-rule="evenodd" clip-rule="evenodd" d="M10 20C15.5228 20 20 15.5228 20 10C20 4.47715 15.5228 0 10 0C4.47715 0 0 4.47715 0 10C0 15.5228 4.47715 20 10 20ZM10 17C13.866 17 17 13.866 17 10C17 6.13401 13.866 3 10 3C6.13401 3 3 6.13401 3 10C3 13.866 6.13401 17 10 17Z" fill="#303037"/></g><rect x="1029.59" y="396.55" width="15.86" height="15.86" fill="#4a4a4e"/><g transform="translate(1029.59,396.55) scale(0.7929999999999999) rotate(0)"><rect width="20" height="10" fill="#22332e"/></g><rect x="1106.014" y="385.014" width="23.071999999999996" height="23.071999999999996" fill="#1e1e28"/><rect x="1106.01" y="385.01" width="11.54" height="11.54" fill="#23232c"/><g transform="translate(1106.01,385.01) scale(0.577) rotate(0)"><rect width="20" height="10" fill="#2a2a32"/></g><rect x="1117.55" y="385.01" width="11.54" height="11.54" fill="#303038"/><path d="M 1117.55 396.55 A 11.54 11.54 0 0 1  1129.09 385.01 L 1117.55 396.55 A 11.54 11.54 0 0 0 1129.09 385.01" fill="#2a2a33"/><rect x="1117.55" y="396.55" width="11.54" height="11.54" fill="#404045"/><g transform="translate(1117.55,396.55) scale(0.577) rotate(0)"><path d="M10 5L5 0L0 5L5 10L0 15L5 20L10 15L15 20L20 15L15 10L20 5L15 0L10 5Z" fill="#3b3b40"/></g><rect x="28.84" y="461.43999999999994" width="14.419999999999995" height="14.419999999999995" fill="#1e1e28"/><rect x="28.84" y="461.44" width="7.21" height="7.21" fill="#505053"/><path d="M 28.84 461.44 A 7.21 7.21 0 0 1  36.05 468.65 L 28.84 461.44 A 7.21 7.21 0 0 0 36.05 468.65" fill="#285035"/><rect x="28.84" y="468.65" width="7.21" height="7.21" fill="#38383e"/><g transform="translate(28.84,468.65) scale(0.3605) rotate(0)"><rect width="2" height="20" fill="#243e30"/><rect x="4" width="2" height="20" fill="#243e30"/><rect x="8" width="2" height="20" fill="#243e30"/><rect x="12" width="2" height="20" fill="#243e30"/><rect x="16" width="2" height="20" fill="#243e30"/></g><rect x="96.78703999999999" y="457.28704" width="22.725919999999995" height="22.725919999999995" fill="#1e1e28"/><rect x="96.79" y="457.29" width="11.36" height="11.36" fill="#2a5a38"/><g transform="translate(96.79,457.29) scale(0.568) rotate(0)"><path d="M5 0H10L5 5L0 10V5L5 0Z" fill="#515153"/><path d="M20 15V20H15L20 15Z" fill="#515153"/><path d="M20 5V10L15 15L10 20H5L20 5Z" fill="#515153"/><path d="M15 0H20L5 15.0002L0 20.0002V15.0002L15 0Z" fill="#515153"/></g><rect x="108.15" y="457.29" width="11.36" height="11.36" fill="#34343b"/><g transform="translate(108.15,457.29) scale(0.568) rotate(0)"><path d="M10 5L5 0L0 5L5 10L0 15L5 20L10 15L15 20L20 15L15 10L20 5L15 0L10 5Z" fill="#38a24b"/></g><rect x="108.15" y="468.65" width="11.36" height="11.36" fill="#424247"/><circle cx="113.83000000000001" cy="474.33" r="5.68" fill="#389e4a"/><rect x="300.62816" y="444.82815999999997" width="47.64367999999999" height="47.64367999999999" fill="#1e1e28"/><rect x="300.63" y="444.83" width="23.82" height="23.82" fill="#313139"/><g transform="translate(300.63,444.83) scale(1.191) rotate(0)"><path d="M5 0H10L5 5L0 10V5L5 0Z" fill="#243d30"/><path d="M20 15V20H15L20 15Z" fill="#243d30"/><path d="M20 5V10L15 15L10 20H5L20 5Z" fill="#243d30"/><path d="M15 0H20L5 15.0002L0 20.0002V15.0002L15 0Z" fill="#243d30"/></g><rect x="324.45" y="444.83" width="23.82" height="23.82" fill="#284f35"/><g transform="translate(324.45,444.83) scale(1.191) rotate(0)"><path d="M5 0H10L5 5L0 10V5L5 0Z" fill="#202a2b"/><path d="M20 15V20H15L20 15Z" fill="#202a2b"/><path d="M20 5V10L15 15L10 20H5L20 5Z" fill="#202a2b"/><path d="M15 0H20L5 15.0002L0 20.0002V15.0002L15 0Z" fill="#202a2b"/></g><rect x="300.63" y="468.65" width="23.82" height="23.82" fill="#274c34"/><g transform="translate(300.63,468.65) scale(1.191) rotate(0)"><path d="M19.9981 0.00193429L3.72652 -7.68637e-07L8.4784 4.75382L0 13.2345L6.76585 20L15.2462 11.5208L20 16.2746L19.9981 0.00193429Z" fill="#243a2f"/></g><rect x="324.45" y="468.65" width="23.82" height="23.82" fill="#454549"/><g transform="translate(324.45,468.65) scale(1.191) rotate(0)"><path d="M19.9981 0.00193429L3.72652 -7.68637e-07L8.4784 4.75382L0 13.2345L6.76585 20L15.2462 11.5208L20 16.2746L19.9981 0.00193429Z" fill="#49494c"/></g><rect x="368.5752" y="440.67519999999996" width="55.94959999999999" height="55.94959999999999" fill="#1e1e28"/><rect x="396.55" y="440.68" width="27.97" height="27.97" fill="#272730"/><g transform="translate(396.55,440.68) scale(1.3984999999999999) rotate(0)"><path d="M5 0H10L5 5L0 10V5L5 0Z" fill="#565657"/><path d="M20 15V20H15L20 15Z" fill="#565657"/><path d="M20 5V10L15 15L10 20H5L20 5Z" fill="#565657"/><path d="M15 0H20L5 15.0002L0 20.0002V15.0002L15 0Z" fill="#565657"/></g><rect x="396.55" y="468.65" width="27.97" height="27.97" fill="#348d45"/><g transform="translate(396.55,468.65) scale(1.3984999999999999) rotate(0)"><path d="M10 5L5 0L0 5L5 10L0 15L5 20L10 15L15 20L20 15L15 10L20 5L15 0L10 5Z" fill="#555557"/></g><rect x="505.8535999999999" y="433.75359999999995" width="69.7928" height="69.7928" fill="#1e1e28"/><rect x="505.85" y="433.75" width="34.9" height="34.9" fill="#328042"/><polygon points="505.85,433.75 540.75,433.75 540.75,468.65" fill="#379949"/><rect x="540.75" y="433.75" width="34.9" height="34.9" fill="#2a2a33"/><g transform="translate(540.75,433.75) scale(1.7449999999999999) rotate(0)"><rect width="2" height="20" fill="#515154"/><rect x="4" width="2" height="20" fill="#515154"/><rect x="8" width="2" height="20" fill="#515154"/><rect x="12" width="2" height="20" fill="#515154"/><rect x="16" width="2" height="20" fill="#515154"/></g><rect x="505.85" y="468.65" width="34.9" height="34.9" fill="#47474b"/><g transform="translate(505.85,468.65) scale(1.7449999999999999) rotate(0)"><rect width="20" height="10" fill="#59595a"/></g><rect x="540.75" y="468.65" width="34.9" height="34.9" fill="#1e1e28"/><g transform="translate(540.75,468.65) scale(1.7449999999999999) rotate(0)"><rect width="2" height="20" fill="#3aaa4d"/><rect x="4" width="2" height="20" fill="#3aaa4d"/><rect x="8" width="2" height="20" fill="#3aaa4d"/><rect x="12" width="2" height="20" fill="#3aaa4d"/><rect x="16" width="2" height="20" fill="#3aaa4d"/></g><rect x="577.9535999999999" y="433.75359999999995" width="69.7928" height="69.7928" fill="#1e1e28"/><rect x="577.95" y="433.75" width="34.9" height="34.9" fill="#4e4e51"/><path d="M 577.95 468.65 A 34.9 34.9 0 0 1  612.85 433.75 L 612.85 468.65L577.95 468.65" fill="#338644"/><rect x="612.85" y="433.75" width="34.9" height="34.9" fill="#3baf4f"/><g transform="translate(612.85,433.75) scale(1.7449999999999999) rotate(0)"><path d="M19.9981 0.00193429L3.72652 -7.68637e-07L8.4784 4.75382L0 13.2345L6.76585 20L15.2462 11.5208L20 16.2746L19.9981 0.00193429Z" fill="#424246"/></g><rect x="577.95" y="468.65" width="34.9" height="34.9" fill="#307a41"/><g transform="translate(577.95,468.65) scale(1.7449999999999999) rotate(0)"><rect width="20" height="10" fill="#4e4e51"/></g><rect x="612.85" y="468.65" width="34.9" height="34.9" fill="#5a5a5b"/><path d="M 612.85 503.54999999999995 A 34.9 34.9 0 0 1  647.75 468.65 L 612.85 503.54999999999995 A 34.9 34.9 0 0 0 647.75 468.65" fill="#338944"/><rect x="724.92224" y="436.52223999999995" width="64.25551999999999" height="64.25551999999999" fill="#1e1e28"/><rect x="724.92" y="436.52" width="32.13" height="32.13" fill="#3f3f44"/><g transform="translate(724.92,436.52) scale(1.6065) rotate(0)"><path d="M10 0H20L0 20V10L10 0Z" fill="#264633"/><path d="M20 10V20H10L20 10Z" fill="#264633"/></g><rect x="757.05" y="436.52" width="32.13" height="32.13" fill="#5f5f5f"/><g transform="translate(757.05,436.52) scale(1.6065) rotate(0)"><rect width="20" height="10" fill="#38a14b"/></g><rect x="724.92" y="468.65" width="32.13" height="32.13" fill="#34343b"/><g transform="translate(724.92,468.65) scale(1.6065) rotate(0)"><path d="M10 5L5 0L0 5L5 10L0 15L5 20L10 15L15 20L20 15L15 10L20 5L15 0L10 5Z" fill="#317c41"/></g><rect x="757.05" y="468.65" width="32.13" height="32.13" fill="#39a54c"/><path d="M 757.05 468.65 A 32.13 32.13 0 0 1 789.18 500.78 L 757.05 500.78L757.05 468.65" fill="#4f4f52"/><rect x="877.4281599999999" y="444.82815999999997" width="47.64367999999999" height="47.64367999999999" fill="#1e1e28"/><rect x="901.25" y="444.83" width="23.82" height="23.82" fill="#328243"/><path d="M 901.25 444.83 A 23.82 23.82 0 0 1  925.07 468.65 L 901.25 444.83 A 23.82 23.82 0 0 0 925.07 468.65" fill="#359247"/><rect x="877.43" y="468.65" width="23.82" height="23.82" fill="#3aa84d"/><g transform="translate(877.43,468.65) scale(1.191) rotate(0)"><path d="M19.9981 0.00193429L3.72652 -7.68637e-07L8.4784 4.75382L0 13.2345L6.76585 20L15.2462 11.5208L20 16.2746L19.9981 0.00193429Z" fill="#243b30"/></g><rect x="901.25" y="468.65" width="23.82" height="23.82" fill="#2d2d34"/><g transform="translate(901.25,468.65) scale(1.191) rotate(0)"><path d="M10 0H20L0 20V10L10 0Z" fill="#2f733f"/><path d="M20 10V20H10L20 10Z" fill="#2f733f"/></g><rect x="97.82527999999999" y="530.4252799999999" width="20.64944" height="20.64944" fill="#1e1e28"/><rect x="97.83" y="530.43" width="10.32" height="10.32" fill="#37373e"/><g transform="translate(97.83,530.43) scale(0.516) rotate(0)"><path d="M5 0H10L5 5L0 10V5L5 0Z" fill="#359347"/><path d="M20 15V20H15L20 15Z" fill="#359347"/><path d="M20 5V10L15 15L10 20H5L20 5Z" fill="#359347"/><path d="M15 0H20L5 15.0002L0 20.0002V15.0002L15 0Z" fill="#359347"/></g><rect x="108.15" y="530.43" width="10.32" height="10.32" fill="#38a14b"/><g transform="translate(108.15,530.43) scale(0.516) rotate(0)"><path d="M19.9981 0.00193429L3.72652 -7.68637e-07L8.4784 4.75382L0 13.2345L6.76585 20L15.2462 11.5208L20 16.2746L19.9981 0.00193429Z" fill="#348a45"/></g><rect x="166.81055999999998" y="527.3105599999999" width="26.878879999999995" height="26.878879999999995" fill="#1e1e28"/><rect x="166.81" y="527.31" width="13.44" height="13.44" fill="#525254"/><g transform="translate(166.81,527.31) scale(0.6719999999999999) rotate(0)"><path d="M5 0H10L5 5L0 10V5L5 0Z" fill="#379a49"/><path d="M20 15V20H15L20 15Z" fill="#379a49"/><path d="M20 5V10L15 15L10 20H5L20 5Z" fill="#379a49"/><path d="M15 0H20L5 15.0002L0 20.0002V15.0002L15 0Z" fill="#379a49"/></g><rect x="180.25" y="527.31" width="13.44" height="13.44" fill="#606060"/><g transform="translate(180.25,527.31) scale(0.6719999999999999) rotate(0)"><path d="M19.9981 0.00193429L3.72652 -7.68637e-07L8.4784 4.75382L0 13.2345L6.76585 20L15.2462 11.5208L20 16.2746L19.9981 0.00193429Z" fill="#3d3d43"/></g><rect x="180.25" y="540.75" width="13.44" height="13.44" fill="#389e4a"/><g transform="translate(180.25,540.75) scale(0.6719999999999999) rotate(0)"><path d="M19.9981 0.00193429L3.72652 -7.68637e-07L8.4784 4.75382L0 13.2345L6.76585 20L15.2462 11.5208L20 16.2746L19.9981 0.00193429Z" fill="#274c34"/></g><rect x="373.7664" y="517.9663999999999" width="45.5672" height="45.5672" fill="#1e1e28"/><rect x="396.55" y="517.97" width="22.78" height="22.78" fill="#4f4f52"/><g transform="translate(396.55,517.97) scale(1.139) rotate(0)"><path d="M10 5L5 0L0 5L5 10L0 15L5 20L10 15L15 20L20 15L15 10L20 5L15 0L10 5Z" fill="#2e2e35"/></g><rect x="512.7751999999999" y="512.7751999999999" width="55.94959999999999" height="55.94959999999999" fill="#1e1e28"/><rect x="512.78" y="512.78" width="27.97" height="27.97" fill="#24242d"/><path d="M 512.78 512.78 A 27.97 27.97 0 0 1  540.75 540.75 L 512.78 512.78 A 27.97 27.97 0 0 0 540.75 540.75" fill="#4c4c50"/><rect x="512.78" y="540.75" width="27.97" height="27.97" fill="#5b5b5b"/><path d="M 512.78 568.72 A 27.97 27.97 0 0 1  540.75 540.75 L 512.78 568.72 A 27.97 27.97 0 0 0 540.75 540.75" fill="#545456"/><rect x="540.75" y="540.75" width="27.97" height="27.97" fill="#212e2c"/><g transform="translate(540.75,540.75) scale(1.3984999999999999) rotate(0)"><path d="M10 5L5 0L0 5L5 10L0 15L5 20L10 15L15 20L20 15L15 10L20 5L15 0L10 5Z" fill="#38383e"/></g><rect x="584.8752" y="512.7751999999999" width="55.94959999999999" height="55.94959999999999" fill="#1e1e28"/><rect x="584.88" y="540.75" width="27.97" height="27.97" fill="#26262f"/><g transform="translate(584.88,540.75) scale(1.3984999999999999) rotate(0)"><path fill-rule="evenodd" clip-rule="evenodd" d="M10 20C15.5228 20 20 15.5228 20 10C20 4.47715 15.5228 0 10 0C4.47715 0 0 4.47715 0 10C0 15.5228 4.47715 20 10 20ZM10 17C13.866 17 17 13.866 17 10C17 6.13401 13.866 3 10 3C6.13401 3 3 6.13401 3 10C3 13.866 6.13401 17 10 17Z" fill="#284f35"/></g><rect x="612.85" y="540.75" width="27.97" height="27.97" fill="#3bad4e"/><g transform="translate(612.85,540.75) scale(1.3984999999999999) rotate(0)"><path d="M5 0H10L5 5L0 10V5L5 0Z" fill="#264633"/><path d="M20 15V20H15L20 15Z" fill="#264633"/><path d="M20 5V10L15 15L10 20H5L20 5Z" fill="#264633"/><path d="M15 0H20L5 15.0002L0 20.0002V15.0002L15 0Z" fill="#264633"/></g><rect x="656.9752" y="512.7751999999999" width="55.94959999999999" height="55.94959999999999" fill="#1e1e28"/><rect x="656.98" y="512.78" width="27.97" height="27.97" fill="#243a30"/><g transform="translate(656.98,512.78) scale(1.3984999999999999) rotate(0)"><path d="M10 0H20L0 20V10L10 0Z" fill="#38383e"/><path d="M20 10V20H10L20 10Z" fill="#38383e"/></g><rect x="656.98" y="540.75" width="27.97" height="27.97" fill="#4f4f52"/><g transform="translate(656.98,540.75) scale(1.3984999999999999) rotate(0)"><rect width="20" height="10" fill="#2b613a"/></g><rect x="684.95" y="540.75" width="27.97" height="27.97" fill="#5b5b5c"/><g transform="translate(684.95,540.75) scale(1.3984999999999999) rotate(0)"><rect width="20" height="2" fill="#36363c"/><rect y="4" width="20" height="2" fill="#36363c"/><rect y="8" width="20" height="2" fill="#36363c"/><rect y="12" width="20" height="2" fill="#36363c"/><rect y="16" width="20" height="2" fill="#36363c"/></g><rect x="731.15168" y="514.85168" width="51.79663999999999" height="51.79663999999999" fill="#1e1e28"/><rect x="731.15" y="514.85" width="25.9" height="25.9" fill="#47474b"/><g transform="translate(731.15,514.85) scale(1.295) rotate(0)"><path d="M10 5L5 0L0 5L5 10L0 15L5 20L10 15L15 20L20 15L15 10L20 5L15 0L10 5Z" fill="#303037"/></g><rect x="757.05" y="514.85" width="25.9" height="25.9" fill="#2b603a"/><g transform="translate(757.05,514.85) scale(1.295) rotate(0)"><path d="M19.9981 0.00193429L3.72652 -7.68637e-07L8.4784 4.75382L0 13.2345L6.76585 20L15.2462 11.5208L20 16.2746L19.9981 0.00193429Z" fill="#379b49"/></g><rect x="731.15" y="540.75" width="25.9" height="25.9" fill="#585859"/><g transform="translate(731.15,540.75) scale(1.295) rotate(0)"><path d="M10 5L5 0L0 5L5 10L0 15L5 20L10 15L15 20L20 15L15 10L20 5L15 0L10 5Z" fill="#48484c"/></g><rect x="757.05" y="540.75" width="25.9" height="25.9" fill="#505053"/><g transform="translate(757.05,540.75) scale(1.295) rotate(0)"><rect width="20" height="2" fill="#282830"/><rect y="4" width="20" height="2" fill="#282830"/><rect y="8" width="20" height="2" fill="#282830"/><rect y="12" width="20" height="2" fill="#282830"/><rect y="16" width="20" height="2" fill="#282830"/></g><rect x="956.79584" y="524.19584" width="33.10831999999999" height="33.10831999999999" fill="#1e1e28"/><rect x="956.8" y="524.2" width="16.55" height="16.55" fill="#2d673b"/><g transform="translate(956.8,524.2) scale(0.8275) rotate(0)"><rect width="2" height="20" fill="#274a34"/><rect x="4" width="2" height="20" fill="#274a34"/><rect x="8" width="2" height="20" fill="#274a34"/><rect x="12" width="2" height="20" fill="#274a34"/><rect x="16" width="2" height="20" fill="#274a34"/></g><rect x="973.35" y="524.2" width="16.55" height="16.55" fill="#48484c"/><g transform="translate(973.35,524.2) scale(0.8275) rotate(0)"><path d="M19.9981 0.00193429L3.72652 -7.68637e-07L8.4784 4.75382L0 13.2345L6.76585 20L15.2462 11.5208L20 16.2746L19.9981 0.00193429Z" fill="#3b3b41"/></g><rect x="956.8" y="540.75" width="16.55" height="16.55" fill="#404045"/><g transform="translate(956.8,540.75) scale(0.8275) rotate(0)"><path d="M10 0H20L0 20V10L10 0Z" fill="#5b5b5c"/><path d="M20 10V20H10L20 10Z" fill="#5b5b5c"/></g><rect x="973.35" y="540.75" width="16.55" height="16.55" fill="#295737"/><g transform="translate(973.35,540.75) scale(0.8275) rotate(0)"><rect width="2" height="20" fill="#25252e"/><rect x="4" width="2" height="20" fill="#25252e"/><rect x="8" width="2" height="20" fill="#25252e"/><rect x="12" width="2" height="20" fill="#25252e"/><rect x="16" width="2" height="20" fill="#25252e"/></g><rect x="1032.01056" y="527.3105599999999" width="26.878879999999995" height="26.878879999999995" fill="#1e1e28"/><rect x="1032.01" y="540.75" width="13.44" height="13.44" fill="#272730"/><circle cx="1038.73" cy="547.47" r="6.72" fill="#23392f"/><rect x="28.84" y="605.64" width="14.419999999999995" height="14.419999999999995" fill="#1e1e28"/><rect x="36.05" y="605.64" width="7.21" height="7.21" fill="#254232"/><circle cx="39.654999999999994" cy="609.245" r="3.605" fill="#2d693c"/><rect x="28.84" y="612.85" width="7.21" height="7.21" fill="#359147"/><path d="M 28.84 620.0600000000001 A 7.21 7.21 0 0 1  36.05 612.85 L 28.84 620.0600000000001 A 7.21 7.21 0 0 0 36.05 612.85" fill="#27272f"/><rect x="36.05" y="612.85" width="7.21" height="7.21" fill="#23382f"/><polygon points="43.26,612.85 43.26,620.0600000000001 36.05,620.0600000000001" fill="#359247"/><rect x="168.88703999999998" y="601.48704" width="22.725919999999995" height="22.725919999999995" fill="#1e1e28"/><rect x="168.89" y="601.49" width="11.36" height="11.36" fill="#3bae4e"/><polygon points="168.89,601.49 180.25,601.49 180.25,612.85" fill="#2f743f"/><rect x="168.89" y="612.85" width="11.36" height="11.36" fill="#1e1f28"/><g transform="translate(168.89,612.85) scale(0.568) rotate(0)"><path fill-rule="evenodd" clip-rule="evenodd" d="M10 20C15.5228 20 20 15.5228 20 10C20 4.47715 15.5228 0 10 0C4.47715 0 0 4.47715 0 10C0 15.5228 4.47715 20 10 20ZM10 17C13.866 17 17 13.866 17 10C17 6.13401 13.866 3 10 3C6.13401 3 3 6.13401 3 10C3 13.866 6.13401 17 10 17Z" fill="#23382f"/></g><rect x="180.25" y="612.85" width="11.36" height="11.36" fill="#454549"/><g transform="translate(180.25,612.85) scale(0.568) rotate(0)"><rect width="20" height="10" fill="#424247"/></g><rect x="308.93408" y="597.33408" width="31.03183999999999" height="31.03183999999999" fill="#1e1e28"/><rect x="324.45" y="597.33" width="15.52" height="15.52" fill="#243b30"/><g transform="translate(324.45,597.33) scale(0.776) rotate(0)"><path d="M10 5L5 0L0 5L5 10L0 15L5 20L10 15L15 20L20 15L15 10L20 5L15 0L10 5Z" fill="#243e30"/></g><rect x="308.93" y="612.85" width="15.52" height="15.52" fill="#328443"/><g transform="translate(308.93,612.85) scale(0.776) rotate(0)"><path d="M10 0L20 10L10 20L0 10L10 0Z" fill="#5b5b5c"/></g><rect x="324.45" y="612.85" width="15.52" height="15.52" fill="#5d5d5d"/><circle cx="332.21" cy="620.61" r="7.76" fill="#212c2c"/><rect x="378.9576" y="595.2575999999999" width="35.184799999999996" height="35.184799999999996" fill="#1e1e28"/><rect x="378.96" y="595.26" width="17.59" height="17.59" fill="#379a49"/><g transform="translate(378.96,595.26) scale(0.8795) rotate(0)"><path d="M19.9981 0.00193429L3.72652 -7.68637e-07L8.4784 4.75382L0 13.2345L6.76585 20L15.2462 11.5208L20 16.2746L19.9981 0.00193429Z" fill="#212b2b"/></g><rect x="396.55" y="595.26" width="17.59" height="17.59" fill="#33333a"/><g transform="translate(396.55,595.26) scale(0.8795) rotate(0)"><rect width="20" height="10" fill="#33333a"/></g><rect x="378.96" y="612.85" width="17.59" height="17.59" fill="#36363c"/><g transform="translate(378.96,612.85) scale(0.8795) rotate(0)"><path d="M10 0H20L0 20V10L10 0Z" fill="#404045"/><path d="M20 10V20H10L20 10Z" fill="#404045"/></g><rect x="396.55" y="612.85" width="17.59" height="17.59" fill="#5e5e5f"/><g transform="translate(396.55,612.85) scale(0.8795) rotate(0)"><rect width="20" height="10" fill="#2f723e"/></g><rect x="663.8968" y="591.7968" width="42.106399999999994" height="42.106399999999994" fill="#1e1e28"/><rect x="663.9" y="591.8" width="21.05" height="21.05" fill="#434347"/><g transform="translate(663.9,591.8) scale(1.0525) rotate(0)"><rect width="20" height="2" fill="#59595a"/><rect y="4" width="20" height="2" fill="#59595a"/><rect y="8" width="20" height="2" fill="#59595a"/><rect y="12" width="20" height="2" fill="#59595a"/><rect y="16" width="20" height="2" fill="#59595a"/></g><rect x="684.95" y="591.8" width="21.05" height="21.05" fill="#254332"/><g transform="translate(684.95,591.8) scale(1.0525) rotate(0)"><path d="M5 0H10L5 5L0 10V5L5 0Z" fill="#1e1e28"/><path d="M20 15V20H15L20 15Z" fill="#1e1e28"/><path d="M20 5V10L15 15L10 20H5L20 5Z" fill="#1e1e28"/><path d="M15 0H20L5 15.0002L0 20.0002V15.0002L15 0Z" fill="#1e1e28"/></g><rect x="737.38112" y="593.18112" width="39.337759999999996" height="39.337759999999996" fill="#1e1e28"/><rect x="737.38" y="593.18" width="19.67" height="19.67" fill="#359347"/><g transform="translate(737.38,593.18) scale(0.9835) rotate(0)"><rect width="20" height="2" fill="#23392f"/><rect y="4" width="20" height="2" fill="#23392f"/><rect y="8" width="20" height="2" fill="#23392f"/><rect y="12" width="20" height="2" fill="#23392f"/><rect y="16" width="20" height="2" fill="#23392f"/></g><rect x="737.38" y="612.85" width="19.67" height="19.67" fill="#2b5f39"/><g transform="translate(737.38,612.85) scale(0.9835) rotate(0)"><rect width="20" height="10" fill="#34343a"/></g><rect x="757.05" y="612.85" width="19.67" height="19.67" fill="#46464a"/><g transform="translate(757.05,612.85) scale(0.9835) rotate(0)"><path d="M10 0H20L0 20V10L10 0Z" fill="#379949"/><path d="M20 10V20H10L20 10Z" fill="#379949"/></g><rect x="811.5575999999999" y="595.2575999999999" width="35.184799999999996" height="35.184799999999996" fill="#1e1e28"/><rect x="811.56" y="595.26" width="17.59" height="17.59" fill="#555557"/><circle cx="820.3549999999999" cy="604.055" r="8.795" fill="#2d2d35"/><rect x="829.15" y="612.85" width="17.59" height="17.59" fill="#3f3f44"/><g transform="translate(829.15,612.85) scale(0.8795) rotate(0)"><path d="M10 5L5 0L0 5L5 10L0 15L5 20L10 15L15 20L20 15L15 10L20 5L15 0L10 5Z" fill="#1e1f28"/></g><rect x="959.9105599999999" y="599.4105599999999" width="26.878879999999995" height="26.878879999999995" fill="#1e1e28"/><rect x="959.91" y="599.41" width="13.44" height="13.44" fill="#2c633a"/><path d="M 959.91 599.41 A 13.44 13.44 0 0 1  973.35 612.85 L 959.91 599.41 A 13.44 13.44 0 0 0 973.35 612.85" fill="#23382f"/><rect x="973.35" y="599.41" width="13.44" height="13.44" fill="#2f753f"/><g transform="translate(973.35,599.41) scale(0.6719999999999999) rotate(0)"><path d="M5 0H10L5 5L0 10V5L5 0Z" fill="#22302d"/><path d="M20 15V20H15L20 15Z" fill="#22302d"/><path d="M20 5V10L15 15L10 20H5L20 5Z" fill="#22302d"/><path d="M15 0H20L5 15.0002L0 20.0002V15.0002L15 0Z" fill="#22302d"/></g><rect x="973.35" y="612.85" width="13.44" height="13.44" fill="#338844"/><g transform="translate(973.35,612.85) scale(0.6719999999999999) rotate(0)"><path d="M19.9981 0.00193429L3.72652 -7.68637e-07L8.4784 4.75382L0 13.2345L6.76585 20L15.2462 11.5208L20 16.2746L19.9981 0.00193429Z" fill="#24242d"/></g><rect x="1034.08704" y="601.48704" width="22.725919999999995" height="22.725919999999995" fill="#1e1e28"/><rect x="1034.09" y="601.49" width="11.36" height="11.36" fill="#243a2f"/><g transform="translate(1034.09,601.49) scale(0.568) rotate(0)"><rect width="20" height="2" fill="#505053"/><rect y="4" width="20" height="2" fill="#505053"/><rect y="8" width="20" height="2" fill="#505053"/><rect y="12" width="20" height="2" fill="#505053"/><rect y="16" width="20" height="2" fill="#505053"/></g><rect x="1045.45" y="601.49" width="11.36" height="11.36" fill="#3baf4f"/><g transform="translate(1045.45,601.49) scale(0.568) rotate(0)"><path d="M19.9981 0.00193429L3.72652 -7.68637e-07L8.4784 4.75382L0 13.2345L6.76585 20L15.2462 11.5208L20 16.2746L19.9981 0.00193429Z" fill="#47474b"/></g><rect x="1045.45" y="612.85" width="11.36" height="11.36" fill="#35353c"/><circle cx="1051.13" cy="618.53" r="5.68" fill="#2a5c39"/><rect x="28.84" y="677.74" width="14.419999999999995" height="14.419999999999995" fill="#1e1e28"/><rect x="36.05" y="677.74" width="7.21" height="7.21" fill="#2c653b"/><path d="M 36.05 677.74 A 7.21 7.21 0 0 1  43.26 684.95 L 36.05 677.74 A 7.21 7.21 0 0 0 43.26 684.95" fill="#2b2b33"/><rect x="28.84" y="684.95" width="7.21" height="7.21" fill="#243e31"/><circle cx="32.445" cy="688.5550000000001" r="3.605" fill="#3bae4e"/><rect x="170.96352" y="675.66352" width="18.572959999999995" height="18.572959999999995" fill="#1e1e28"/><rect x="170.96" y="675.66" width="9.29" height="9.29" fill="#3f3f44"/><circle cx="175.60500000000002" cy="680.305" r="4.645" fill="#3d3d42"/><rect x="170.96" y="684.95" width="9.29" height="9.29" fill="#36363c"/><circle cx="175.60500000000002" cy="689.595" r="4.645" fill="#2a5c38"/><rect x="180.25" y="684.95" width="9.29" height="9.29" fill="#313138"/><g transform="translate(180.25,684.95) scale(0.46449999999999997) rotate(0)"><path d="M19.9981 0.00193429L3.72652 -7.68637e-07L8.4784 4.75382L0 13.2345L6.76585 20L15.2462 11.5208L20 16.2746L19.9981 0.00193429Z" fill="#2c2c34"/></g><rect x="384.1488" y="672.5488" width="24.80239999999999" height="24.80239999999999" fill="#1e1e28"/><rect x="384.15" y="672.55" width="12.4" height="12.4" fill="#338945"/><circle cx="390.34999999999997" cy="678.75" r="6.2" fill="#5c5c5c"/><rect x="396.55" y="672.55" width="12.4" height="12.4" fill="#4d4d50"/><polygon points="396.55,672.55 408.95,672.55 396.55,684.9499999999999" fill="#317c41"/><rect x="384.15" y="684.95" width="12.4" height="12.4" fill="#38a04b"/><g transform="translate(384.15,684.95) scale(0.62) rotate(0)"><rect width="2" height="20" fill="#264633"/><rect x="4" width="2" height="20" fill="#264633"/><rect x="8" width="2" height="20" fill="#264633"/><rect x="12" width="2" height="20" fill="#264633"/><rect x="16" width="2" height="20" fill="#264633"/></g><rect x="455.21056" y="671.5105599999999" width="26.878879999999988" height="26.878879999999988" fill="#1e1e28"/><rect x="455.21" y="671.51" width="13.44" height="13.44" fill="#38a24b"/><g transform="translate(455.21,671.51) scale(0.6719999999999999) rotate(0)"><rect width="20" height="2" fill="#1f252a"/><rect y="4" width="20" height="2" fill="#1f252a"/><rect y="8" width="20" height="2" fill="#1f252a"/><rect y="12" width="20" height="2" fill="#1f252a"/><rect y="16" width="20" height="2" fill="#1f252a"/></g><rect x="455.21" y="684.95" width="13.44" height="13.44" fill="#2e6d3d"/><polygon points="455.21,684.95 468.65,684.95 455.21,698.3900000000001" fill="#317f42"/><rect x="670.8184" y="670.8184" width="28.26319999999999" height="28.26319999999999" fill="#1e1e28"/><rect x="670.82" y="670.82" width="14.13" height="14.13" fill="#23382f"/><polygon points="670.82,670.82 684.95,670.82 684.95,684.95" fill="#2d2d35"/><rect x="684.95" y="670.82" width="14.13" height="14.13" fill="#3e3e43"/><g transform="translate(684.95,670.82) scale(0.7065) rotate(0)"><path d="M10 0H20L0 20V10L10 0Z" fill="#3baf4f"/><path d="M20 10V20H10L20 10Z" fill="#3baf4f"/></g><rect x="670.82" y="684.95" width="14.13" height="14.13" fill="#434348"/><polygon points="670.82,684.95 684.95,699.08 670.82,699.08" fill="#24242d"/><rect x="743.61056" y="671.5105599999999" width="26.878879999999988" height="26.878879999999988" fill="#1e1e28"/><rect x="743.61" y="671.51" width="13.44" height="13.44" fill="#3bae4f"/><polygon points="743.61,671.51 757.0500000000001,684.95 743.61,684.95" fill="#212d2c"/><rect x="757.05" y="671.51" width="13.44" height="13.44" fill="#254332"/><g transform="translate(757.05,671.51) scale(0.6719999999999999) rotate(0)"><path d="M5 0H10L5 5L0 10V5L5 0Z" fill="#38a14b"/><path d="M20 15V20H15L20 15Z" fill="#38a14b"/><path d="M20 5V10L15 15L10 20H5L20 5Z" fill="#38a14b"/><path d="M15 0H20L5 15.0002L0 20.0002V15.0002L15 0Z" fill="#38a14b"/></g><rect x="757.05" y="684.95" width="13.44" height="13.44" fill="#5b5b5c"/><g transform="translate(757.05,684.95) scale(0.6719999999999999) rotate(0)"><rect width="20" height="2" fill="#272730"/><rect y="4" width="20" height="2" fill="#272730"/><rect y="8" width="20" height="2" fill="#272730"/><rect y="12" width="20" height="2" fill="#272730"/><rect y="16" width="20" height="2" fill="#272730"/></g><rect x="816.7488" y="672.5488" width="24.80239999999999" height="24.80239999999999" fill="#1e1e28"/><rect x="829.15" y="672.55" width="12.4" height="12.4" fill="#2d6b3c"/><path d="M 829.15 684.9499999999999 A 12.4 12.4 0 0 1  841.55 672.55 L 829.15 684.9499999999999 A 12.4 12.4 0 0 0 841.55 672.55" fill="#5e5e5f"/><rect x="829.15" y="684.95" width="12.4" height="12.4" fill="#26262f"/><g transform="translate(829.15,684.95) scale(0.62) rotate(0)"><path fill-rule="evenodd" clip-rule="evenodd" d="M10 20C15.5228 20 20 15.5228 20 10C20 4.47715 15.5228 0 10 0C4.47715 0 0 4.47715 0 10C0 15.5228 4.47715 20 10 20ZM10 17C13.866 17 17 13.866 17 10C17 6.13401 13.866 3 10 3C6.13401 3 3 6.13401 3 10C3 13.866 6.13401 17 10 17Z" fill="#212e2c"/></g><rect x="889.88704" y="673.58704" width="22.725919999999995" height="22.725919999999995" fill="#1e1e28"/><rect x="889.89" y="673.59" width="11.36" height="11.36" fill="#46464a"/><g transform="translate(889.89,673.59) scale(0.568) rotate(0)"><path fill-rule="evenodd" clip-rule="evenodd" d="M10 20C15.5228 20 20 15.5228 20 10C20 4.47715 15.5228 0 10 0C4.47715 0 0 4.47715 0 10C0 15.5228 4.47715 20 10 20ZM10 17C13.866 17 17 13.866 17 10C17 6.13401 13.866 3 10 3C6.13401 3 3 6.13401 3 10C3 13.866 6.13401 17 10 17Z" fill="#424246"/></g><rect x="963.02528" y="674.62528" width="20.64944" height="20.64944" fill="#1e1e28"/><rect x="963.03" y="674.63" width="10.32" height="10.32" fill="#317d41"/><g transform="translate(963.03,674.63) scale(0.516) rotate(0)"><path d="M10 0H20L0 20V10L10 0Z" fill="#328042"/><path d="M20 10V20H10L20 10Z" fill="#328042"/></g><rect x="973.35" y="674.63" width="10.32" height="10.32" fill="#5e5e5f"/><g transform="translate(973.35,674.63) scale(0.516) rotate(0)"><path d="M5 0H10L5 5L0 10V5L5 0Z" fill="#5d5d5e"/><path d="M20 15V20H15L20 15Z" fill="#5d5d5e"/><path d="M20 5V10L15 15L10 20H5L20 5Z" fill="#5d5d5e"/><path d="M15 0H20L5 15.0002L0 20.0002V15.0002L15 0Z" fill="#5d5d5e"/></g><rect x="963.03" y="684.95" width="10.32" height="10.32" fill="#284e35"/><path d="M 963.03 684.95 A 10.32 10.32 0 0 1  973.35 695.2700000000001 L 963.03 684.95 A 10.32 10.32 0 0 0 973.35 695.2700000000001" fill="#285136"/><rect x="1036.1635199999998" y="675.66352" width="18.572959999999995" height="18.572959999999995" fill="#1e1e28"/><rect x="1036.16" y="675.66" width="9.29" height="9.29" fill="#30763f"/><circle cx="1040.805" cy="680.305" r="4.645" fill="#36363c"/><rect x="1045.45" y="675.66" width="9.29" height="9.29" fill="#20292b"/><g transform="translate(1045.45,675.66) scale(0.46449999999999997) rotate(0)"><rect width="2" height="20" fill="#317b41"/><rect x="4" width="2" height="20" fill="#317b41"/><rect x="8" width="2" height="20" fill="#317b41"/><rect x="12" width="2" height="20" fill="#317b41"/><rect x="16" width="2" height="20" fill="#317b41"/></g><rect x="1036.16" y="684.95" width="9.29" height="9.29" fill="#39a44c"/><circle cx="1040.805" cy="689.595" r="4.645" fill="#307a41"/><rect x="1109.30176" y="676.7017599999999" width="16.49648" height="16.49648" fill="#1e1e28"/><rect x="1109.3" y="676.7" width="8.25" height="8.25" fill="#565657"/><g transform="translate(1109.3,676.7) scale(0.4125) rotate(0)"><rect width="20" height="2" fill="#4e4e51"/><rect y="4" width="20" height="2" fill="#4e4e51"/><rect y="8" width="20" height="2" fill="#4e4e51"/><rect y="12" width="20" height="2" fill="#4e4e51"/><rect y="16" width="20" height="2" fill="#4e4e51"/></g><rect x="1117.55" y="676.7" width="8.25" height="8.25" fill="#2e2e35"/><path d="M 1117.55 684.95 A 8.25 8.25 0 0 1  1125.8 676.7 L 1117.55 684.95 A 8.25 8.25 0 0 0 1125.8 676.7" fill="#5b5b5c"/><rect x="1109.3" y="684.95" width="8.25" height="8.25" fill="#2c663b"/><circle cx="1113.425" cy="689.075" r="4.125" fill="#606060"/><rect x="1117.55" y="684.95" width="8.25" height="8.25" fill="#313138"/><path d="M 1117.55 684.95 A 8.25 8.25 0 0 1  1125.8 693.2 L 1117.55 684.95 A 8.25 8.25 0 0 0 1125.8 693.2" fill="#3bae4e"/></g></svg>