<?xml version="1.0" standalone="no"?><svg xmlns:xlink="http://www.w3.org/1999/xlink" xmlns="http://www.w3.org/2000/svg" viewBox="0 0 1000 625.0054178694337" preserveAspectRatio="xMaxYMax slice"><g transform="scale(0.866859109388951)"><rect x="0" y="0" width="1153.6" height="721" fill="#1e1e28"/><path d="M 216.3 0 A 72.1 72.1 0 0 1  288.4 72.1 L 216.3 0 A 72.1 72.1 0 0 0 288.4 72.1" fill="#212e2c"/><path d="M 504.7 0 A 72.1 72.1 0 0 1  576.8 72.1 L 504.7 0 A 72.1 72.1 0 0 0 576.8 72.1" fill="#505052"/><rect x="576.8" y="0" width="72.1" height="72.1" fill="#1e1e28"/><path d="M 576.8 36.05 A 36.05 36.05 0 0 1  612.8499999999999 0 L 576.8 36.05 A 36.05 36.05 0 0 0 612.8499999999999 0" fill="#22302d"/><path d="M 612.85 72.1 A 36.05 36.05 0 0 1  648.9 36.05 L 612.85 72.1 A 36.05 36.05 0 0 0 648.9 36.05" fill="#49494d"/><path d="M 721 0 A 72.1 72.1 0 0 1  793.1 72.1 L 721 0 A 72.1 72.1 0 0 0 793.1 72.1" fill="#303037"/><rect x="865.1999999999999" y="0" width="72.1" height="72.1" fill="#1e1e28"/><path d="M 901.25 36.05 A 36.05 36.05 0 0 1  937.3 0 L 901.25 36.05 A 36.05 36.05 0 0 0 937.3 0" fill="#274a34"/><path d="M 1009.4 72.1 A 72.1 72.1 0 0 1  1081.5 0 L 1009.4 72.1 A 72.1 72.1 0 0 0 1081.5 0" fill="#2a5938"/><path d="M 0 72.1 A 72.1 72.1 0 0 1  72.1 144.2 L 0 72.1 A 72.1 72.1 0 0 0 72.1 144.2" fill="#303037"/><path d="M 72.1 72.1 A 72.1 72.1 0 0 1  144.2 144.2 L 72.1 72.1 A 72.1 72.1 0 0 0 144.2 144.2" fill="#38a04b"/><path d="M 288.4 72.1 A 72.1 72.1 0 0 1  360.5 144.2 L 288.4 72.1 A 72.1 72.1 0 0 0 360.5 144.2" fill="#2c633a"/><rect x="432.59999999999997" y="72.1" width="72.1" height="72.1" fill="#1e1e28"/><path d="M 648.9 72.1 A 72.1 72.1 0 0 1  721 144.2 L 648.9 72.1 A 72.1 72.1 0 0 0 721 144.2" fill="#4c4c4f"/><path d="M 721 144.2 A 72.1 72.1 0 0 1  793.1 72.1 L 721 144.2 A 72.1 72.1 0 0 0 793.1 72.1" fill="#38a14b"/><path d="M 0 144.2 A 72.1 72.1 0 0 1  72.1 216.29999999999998 L 0 144.2 A 72.1 72.1 0 0 0 72.1 216.29999999999998" fill="#23372f"/><path d="M 144.2 216.29999999999998 A 72.1 72.1 0 0 1  216.29999999999998 144.2 L 144.2 216.29999999999998 A 72.1 72.1 0 0 0 216.29999999999998 144.2" fill="#303038"/><rect x="216.29999999999998" y="144.2" width="72.1" height="72.1" fill="#1e1e28"/><path d="M 252.35 180.25 A 36.05 36.05 0 0 1  288.4 144.2 L 252.35 180.25 A 36.05 36.05 0 0 0 288.4 144.2" fill="#616161"/><rect x="288.4" y="144.2" width="72.1" height="72.1" fill="#1e1e28"/><path d="M 288.4 180.25 A 36.05 36.05 0 0 1  324.45 216.3 L 288.4 180.25 A 36.05 36.05 0 0 0 324.45 216.3" fill="#2d6a3c"/><path d="M 360.5 216.29999999999998 A 72.1 72.1 0 0 1  432.6 144.2 L 360.5 216.29999999999998 A 72.1 72.1 0 0 0 432.6 144.2" fill="#379b49"/><path d="M 576.8 144.2 A 72.1 72.1 0 0 1  648.9 216.29999999999998 L 576.8 144.2 A 72.1 72.1 0 0 0 648.9 216.29999999999998" fill="#254332"/><rect x="648.9" y="144.2" width="72.1" height="72.1" fill="#1e1e28"/><path d="M 648.9 144.2 A 36.05 36.05 0 0 1  684.9499999999999 180.25 L 648.9 144.2 A 36.05 36.05 0 0 0 684.9499999999999 180.25" fill="#525254"/><path d="M 648.9 180.25 A 36.05 36.05 0 0 1  684.9499999999999 216.3 L 648.9 180.25 A 36.05 36.05 0 0 0 684.9499999999999 216.3" fill="#404045"/><path d="M 684.95 216.3 A 36.05 36.05 0 0 1  721 180.25 L 684.95 216.3 A 36.05 36.05 0 0 0 721 180.25" fill="#2a5b38"/><path d="M 1009.4 144.2 A 72.1 72.1 0 0 1  1081.5 216.29999999999998 L 1009.4 144.2 A 72.1 72.1 0 0 0 1081.5 216.29999999999998" fill="#46464a"/><path d="M 144.2 216.3 A 72.1 72.1 0 0 1  216.29999999999998 288.4 L 144.2 216.3 A 72.1 72.1 0 0 0 216.29999999999998 288.4" fill="#38383e"/><rect x="288.4" y="216.29999999999998" width="72.1" height="72.1" fill="#1e1e28"/><path d="M 288.4 216.3 A 36.05 36.05 0 0 1  324.45 252.35000000000002 L 288.4 216.3 A 36.05 36.05 0 0 0 324.45 252.35000000000002" fill="#379c4a"/><path d="M 324.45 216.3 A 36.05 36.05 0 0 1  360.5 252.35000000000002 L 324.45 216.3 A 36.05 36.05 0 0 0 360.5 252.35000000000002" fill="#38a04b"/><path d="M 288.4 288.4 A 36.05 36.05 0 0 1  324.45 252.35 L 288.4 288.4 A 36.05 36.05 0 0 0 324.45 252.35" fill="#3b3b41"/><path d="M 648.9 288.4 A 72.1 72.1 0 0 1  721 216.3 L 648.9 288.4 A 72.1 72.1 0 0 0 721 216.3" fill="#2c623a"/><rect x="865.1999999999999" y="216.29999999999998" width="72.1" height="72.1" fill="#1e1e28"/><rect x="937.3" y="216.29999999999998" width="72.1" height="72.1" fill="#1e1e28"/><path d="M 973.35 216.3 A 36.05 36.05 0 0 1  1009.4 252.35000000000002 L 973.35 216.3 A 36.05 36.05 0 0 0 1009.4 252.35000000000002" fill="#575759"/><path d="M 1009.4 216.3 A 72.1 72.1 0 0 1  1081.5 288.4 L 1009.4 216.3 A 72.1 72.1 0 0 0 1081.5 288.4" fill="#434348"/><path d="M 432.6 360.5 A 72.1 72.1 0 0 1  504.70000000000005 288.4 L 432.6 360.5 A 72.1 72.1 0 0 0 504.70000000000005 288.4" fill="#20202a"/><rect x="504.69999999999993" y="288.4" width="72.1" height="72.1" fill="#1e1e28"/><path d="M 504.7 288.4 A 36.05 36.05 0 0 1  540.75 324.45 L 504.7 288.4 A 36.05 36.05 0 0 0 540.75 324.45" fill="#284e35"/><path d="M 648.9 288.4 A 72.1 72.1 0 0 1  721 360.5 L 648.9 288.4 A 72.1 72.1 0 0 0 721 360.5" fill="#3aa94d"/><rect x="721" y="288.4" width="72.1" height="72.1" fill="#1e1e28"/><path d="M 721 288.4 A 36.05 36.05 0 0 1  757.05 324.45 L 721 288.4 A 36.05 36.05 0 0 0 757.05 324.45" fill="#328443"/><path d="M 757.05 324.45 A 36.05 36.05 0 0 1  793.0999999999999 288.4 L 757.05 324.45 A 36.05 36.05 0 0 0 793.0999999999999 288.4" fill="#36363d"/><path d="M 721 360.5 A 36.05 36.05 0 0 1  757.05 324.45 L 721 360.5 A 36.05 36.05 0 0 0 757.05 324.45" fill="#45454a"/><rect x="865.1999999999999" y="288.4" width="72.1" height="72.1" fill="#1e1e28"/><path d="M 865.2 288.4 A 36.05 36.05 0 0 1  901.25 324.45 L 865.2 288.4 A 36.05 36.05 0 0 0 901.25 324.45" fill="#5e5e5f"/><path d="M 288.4 432.6 A 72.1 72.1 0 0 1  360.5 360.5 L 288.4 432.6 A 72.1 72.1 0 0 0 360.5 360.5" fill="#59595a"/><rect x="360.5" y="360.5" width="72.1" height="72.1" fill="#1e1e28"/><path d="M 396.55 432.6 A 36.05 36.05 0 0 1  432.6 396.55 L 396.55 432.6 A 36.05 36.05 0 0 0 432.6 396.55" fill="#2f743f"/><rect x="648.9" y="360.5" width="72.1" height="72.1" fill="#1e1e28"/><path d="M 684.95 396.55 A 36.05 36.05 0 0 1  721 360.5 L 684.95 396.55 A 36.05 36.05 0 0 0 721 360.5" fill="#4f4f52"/><path d="M 793.1 360.5 A 72.1 72.1 0 0 1  865.2 432.6 L 793.1 360.5 A 72.1 72.1 0 0 0 865.2 432.6" fill="#545456"/><rect x="865.1999999999999" y="360.5" width="72.1" height="72.1" fill="#1e1e28"/><path d="M 901.25 360.5 A 36.05 36.05 0 0 1  937.3 396.55 L 901.25 360.5 A 36.05 36.05 0 0 0 937.3 396.55" fill="#20292b"/><path d="M 901.25 396.55 A 36.05 36.05 0 0 1  937.3 432.6 L 901.25 396.55 A 36.05 36.05 0 0 0 937.3 432.6" fill="#3a3a40"/><path d="M 1009.4 432.6 A 72.1 72.1 0 0 1  1081.5 360.5 L 1009.4 432.6 A 72.1 72.1 0 0 0 1081.5 360.5" fill="#2b5e39"/><path d="M 1081.5 432.6 A 72.1 72.1 0 0 1  1153.6 360.5 L 1081.5 432.6 A 72.1 72.1 0 0 0 1153.6 360.5" fill="#2e6c3d"/><path d="M 144.2 432.6 A 72.1 72.1 0 0 1  216.29999999999998 504.70000000000005 L 144.2 432.6 A 72.1 72.1 0 0 0 216.29999999999998 504.70000000000005" fill="#24242d"/><path d="M 288.4 504.70000000000005 A 72.1 72.1 0 0 1  360.5 432.6 L 288.4 504.70000000000005 A 72.1 72.1 0 0 0 360.5 432.6" fill="#1f2229"/><path d="M 576.8 504.70000000000005 A 72.1 72.1 0 0 1  648.9 432.6 L 576.8 504.70000000000005 A 72.1 72.1 0 0 0 648.9 432.6" fill="#38a24b"/><path d="M 648.9 504.70000000000005 A 72.1 72.1 0 0 1  721 432.6 L 648.9 504.70000000000005 A 72.1 72.1 0 0 0 721 432.6" fill="#535355"/><path d="M 721 504.70000000000005 A 72.1 72.1 0 0 1  793.1 432.6 L 721 504.70000000000005 A 72.1 72.1 0 0 0 793.1 432.6" fill="#2f2f36"/><rect x="937.3" y="432.59999999999997" width="72.1" height="72.1" fill="#1e1e28"/><path d="M 937.3 504.7 A 36.05 36.05 0 0 1  973.3499999999999 468.65 L 937.3 504.7 A 36.05 36.05 0 0 0 973.3499999999999 468.65" fill="#4d4d50"/><rect x="1009.3999999999999" y="432.59999999999997" width="72.1" height="72.1" fill="#1e1e28"/><path d="M 1009.4 468.65 A 36.05 36.05 0 0 1  1045.45 504.7 L 1009.4 468.65 A 36.05 36.05 0 0 0 1045.45 504.7" fill="#59595a"/><rect x="0" y="504.69999999999993" width="72.1" height="72.1" fill="#1e1e28"/><path d="M 0 504.7 A 36.05 36.05 0 0 1  36.05 540.75 L 0 504.7 A 36.05 36.05 0 0 0 36.05 540.75" fill="#20202a"/><path d="M 36.05 540.75 A 36.05 36.05 0 0 1  72.1 576.8 L 36.05 540.75 A 36.05 36.05 0 0 0 72.1 576.8" fill="#34343b"/><path d="M 72.1 576.8 A 72.1 72.1 0 0 1  144.2 504.7 L 72.1 576.8 A 72.1 72.1 0 0 0 144.2 504.7" fill="#3bae4e"/><rect x="216.29999999999998" y="504.69999999999993" width="72.1" height="72.1" fill="#1e1e28"/><path d="M 216.3 540.75 A 36.05 36.05 0 0 1  252.35000000000002 504.7 L 216.3 540.75 A 36.05 36.05 0 0 0 252.35000000000002 504.7" fill="#2c633a"/><path d="M 360.5 576.8 A 72.1 72.1 0 0 1  432.6 504.7 L 360.5 576.8 A 72.1 72.1 0 0 0 432.6 504.7" fill="#4e4e51"/><path d="M 648.9 576.8 A 72.1 72.1 0 0 1  721 504.7 L 648.9 576.8 A 72.1 72.1 0 0 0 721 504.7" fill="#3aaa4d"/><path d="M 721 504.7 A 72.1 72.1 0 0 1  793.1 576.8 L 721 504.7 A 72.1 72.1 0 0 0 793.1 576.8" fill="#3b3b41"/><path d="M 1081.5 576.8 A 72.1 72.1 0 0 1  1153.6 504.7 L 1081.5 576.8 A 72.1 72.1 0 0 0 1153.6 504.7" fill="#3cb450"/><path d="M 144.2 576.8 A 72.1 72.1 0 0 1  216.29999999999998 648.9 L 144.2 576.8 A 72.1 72.1 0 0 0 216.29999999999998 648.9" fill="#379d4a"/><rect x="288.4" y="648.9" width="72.1" height="72.1" fill="#1e1e28"/><path d="M 324.45 684.9499999999999 A 36.05 36.05 0 0 1  360.5 648.9 L 324.45 684.9499999999999 A 36.05 36.05 0 0 0 360.5 648.9" fill="#307a41"/><path d="M 432.6 721 A 72.1 72.1 0 0 1  504.70000000000005 648.9 L 432.6 721 A 72.1 72.1 0 0 0 504.70000000000005 648.9" fill="#2b5d39"/><path d="M 721 721 A 72.1 72.1 0 0 1  793.1 648.9 L 721 721 A 72.1 72.1 0 0 0 793.1 648.9" fill="#274b34"/><path d="M 793.1 648.9 A 72.1 72.1 0 0 1  865.2 721 L 793.1 648.9 A 72.1 72.1 0 0 0 865.2 721" fill="#3e3e43"/><rect x="1009.3999999999999" y="648.9" width="72.1" height="72.1" fill="#1e1e28"/><path d="M 1009.4 648.9 A 36.05 36.05 0 0 1  1045.45 684.9499999999999 L 1009.4 648.9 A 36.05 36.05 0 0 0 1045.45 684.9499999999999" fill="#5a5a5b"/><path d="M 1045.45 684.9499999999999 A 36.05 36.05 0 0 1  1081.5 648.9 L 1045.45 684.9499999999999 A 36.05 36.05 0 0 0 1081.5 648.9" fill="#525254"/></g></svg>