<?xml version="1.0" standalone="no"?><svg xmlns:xlink="http://www.w3.org/1999/xlink" xmlns="http://www.w3.org/2000/svg" viewBox="0 0 1000 625.0054178694337" preserveAspectRatio="xMaxYMax slice"><g transform="scale(0.866859109388951)"><rect x="0" y="0" width="1153.6" height="721" fill="#f9f9fb"/><rect x="28.84" y="28.84" width="14.419999999999995" height="14.419999999999995" fill="#f9f9fb"/><rect x="28.84" y="28.84" width="7.21" height="7.21" fill="#f3f3f5"/><g transform="translate(28.84,28.84) scale(0.3605) rotate(0)"><rect width="20" height="2" fill="#75b480"/><rect y="4" width="20" height="2" fill="#75b480"/><rect y="8" width="20" height="2" fill="#75b480"/><rect y="12" width="20" height="2" fill="#75b480"/><rect y="16" width="20" height="2" fill="#75b480"/></g><rect x="36.05" y="28.84" width="7.21" height="7.21" fill="#707071"/><circle cx="39.654999999999994" cy="32.445" r="3.605" fill="#3c974c"/><rect x="36.05" y="36.05" width="7.21" height="7.21" fill="#c7c7c9"/><g transform="translate(36.05,36.05) scale(0.3605) rotate(0)"><rect width="20" height="10" fill="#f0f0f2"/></g><rect x="173.04" y="28.84" width="14.419999999999995" height="14.419999999999995" fill="#f9f9fb"/><rect x="173.04" y="28.84" width="7.21" height="7.21" fill="#e7efea"/><g transform="translate(173.04,28.84) scale(0.3605) rotate(0)"><path d="M10 5L5 0L0 5L5 10L0 15L5 20L10 15L15 20L20 15L15 10L20 5L15 0L10 5Z" fill="#b2b2b3"/></g><rect x="180.25" y="28.84" width="7.21" height="7.21" fill="#86be91"/><g transform="translate(180.25,28.84) scale(0.3605) rotate(0)"><path d="M5 0H10L5 5L0 10V5L5 0Z" fill="#a2ccab"/><path d="M20 15V20H15L20 15Z" fill="#a2ccab"/><path d="M20 5V10L15 15L10 20H5L20 5Z" fill="#a2ccab"/><path d="M15 0H20L5 15.0002L0 20.0002V15.0002L15 0Z" fill="#a2ccab"/></g><rect x="245.14" y="28.84" width="14.419999999999995" height="14.419999999999995" fill="#f9f9fb"/><rect x="245.14" y="28.84" width="7.21" height="7.21" fill="#7db988"/><g transform="translate(245.14,28.84) scale(0.3605) rotate(0)"><rect width="2" height="20" fill="#4ea15d"/><rect x="4" width="2" height="20" fill="#4ea15d"/><rect x="8" width="2" height="20" fill="#4ea15d"/><rect x="12" width="2" height="20" fill="#4ea15d"/><rect x="16" width="2" height="20" fill="#4ea15d"/></g><rect x="252.35" y="28.84" width="7.21" height="7.21" fill="#9e9e9f"/><g transform="translate(252.35,28.84) scale(0.3605) rotate(0)"><rect width="2" height="20" fill="#646464"/><rect x="4" width="2" height="20" fill="#646464"/><rect x="8" width="2" height="20" fill="#646464"/><rect x="12" width="2" height="20" fill="#646464"/><rect x="16" width="2" height="20" fill="#646464"/></g><rect x="252.35" y="36.05" width="7.21" height="7.21" fill="#b8b8b9"/><g transform="translate(252.35,36.05) scale(0.3605) rotate(0)"><path d="M19.9981 0.00193429L3.72652 -7.68637e-07L8.4784 4.75382L0 13.2345L6.76585 20L15.2462 11.5208L20 16.2746L19.9981 0.00193429Z" fill="#6b6b6c"/></g><rect x="317.23999999999995" y="28.84" width="14.419999999999995" height="14.419999999999995" fill="#f9f9fb"/><rect x="317.24" y="28.84" width="7.21" height="7.21" fill="#99c7a2"/><circle cx="320.845" cy="32.445" r="3.605" fill="#7d7d7d"/><rect x="317.24" y="36.05" width="7.21" height="7.21" fill="#c4c4c5"/><g transform="translate(317.24,36.05) scale(0.3605) rotate(0)"><rect width="20" height="2" fill="#83bc8d"/><rect y="4" width="20" height="2" fill="#83bc8d"/><rect y="8" width="20" height="2" fill="#83bc8d"/><rect y="12" width="20" height="2" fill="#83bc8d"/><rect y="16" width="20" height="2" fill="#83bc8d"/></g><rect x="389.34" y="28.84" width="14.419999999999995" height="14.419999999999995" fill="#f9f9fb"/><rect x="396.55" y="28.84" width="7.21" height="7.21" fill="#a3a3a4"/><g transform="translate(396.55,28.84) scale(0.3605) rotate(0)"><path d="M19.9981 0.00193429L3.72652 -7.68637e-07L8.4784 4.75382L0 13.2345L6.76585 20L15.2462 11.5208L20 16.2746L19.9981 0.00193429Z" fill="#85bd90"/></g><rect x="389.34" y="36.05" width="7.21" height="7.21" fill="#e7e7e9"/><g transform="translate(389.34,36.05) scale(0.3605) rotate(0)"><path d="M19.9981 0.00193429L3.72652 -7.68637e-07L8.4784 4.75382L0 13.2345L6.76585 20L15.2462 11.5208L20 16.2746L19.9981 0.00193429Z" fill="#a3cdab"/></g><rect x="396.55" y="36.05" width="7.21" height="7.21" fill="#4a9f59"/><g transform="translate(396.55,36.05) scale(0.3605) rotate(0)"><path fill-rule="evenodd" clip-rule="evenodd" d="M10 20C15.5228 20 20 15.5228 20 10C20 4.47715 15.5228 0 10 0C4.47715 0 0 4.47715 0 10C0 15.5228 4.47715 20 10 20ZM10 17C13.866 17 17 13.866 17 10C17 6.13401 13.866 3 10 3C6.13401 3 3 6.13401 3 10C3 13.866 6.13401 17 10 17Z" fill="#edf3f0"/></g><rect x="533.54" y="28.84" width="14.419999999999995" height="14.419999999999995" fill="#f9f9fb"/><rect x="540.75" y="28.84" width="7.21" height="7.21" fill="#057a18"/><path d="M 540.75 36.05 A 7.21 7.21 0 0 0 547.96 28.84 L 540.75 28.84L540.75 36.05" fill="#f3f3f5"/><rect x="533.54" y="36.05" width="7.21" height="7.21" fill="#afafb0"/><g transform="translate(533.54,36.05) scale(0.3605) rotate(0)"><rect width="20" height="10" fill="#787879"/></g><rect x="540.75" y="36.05" width="7.21" height="7.21" fill="#afafb0"/><g transform="translate(540.75,36.05) scale(0.3605) rotate(0)"><path d="M10 0L20 10L10 20L0 10L10 0Z" fill="#329242"/></g><rect x="605.64" y="28.84" width="14.419999999999995" height="14.419999999999995" fill="#f9f9fb"/><rect x="605.64" y="28.84" width="7.21" height="7.21" fill="#cde2d3"/><g transform="translate(605.64,28.84) scale(0.3605) rotate(0)"><path fill-rule="evenodd" clip-rule="evenodd" d="M10 20C15.5228 20 20 15.5228 20 10C20 4.47715 15.5228 0 10 0C4.47715 0 0 4.47715 0 10C0 15.5228 4.47715 20 10 20ZM10 17C13.866 17 17 13.866 17 10C17 6.13401 13.866 3 10 3C6.13401 3 3 6.13401 3 10C3 13.866 6.13401 17 10 17Z" fill="#228933"/></g><rect x="605.64" y="36.05" width="7.21" height="7.21" fill="#b1d3b8"/><circle cx="609.245" cy="39.654999999999994" r="3.605" fill="#d6d6d7"/><rect x="677.74" y="28.84" width="14.419999999999995" height="14.419999999999995" fill="#f9f9fb"/><rect x="677.74" y="28.84" width="7.21" height="7.21" fill="#18852b"/><g transform="translate(677.74,28.84) scale(0.3605) rotate(0)"><rect width="20" height="10" fill="#18852a"/></g><rect x="684.95" y="28.84" width="7.21" height="7.21" fill="#afafb0"/><path d="M 684.95 28.84 A 7.21 7.21 0 0 1 692.1600000000001 36.05 L 684.95 36.05L684.95 28.84" fill="#4fa15d"/><rect x="684.95" y="36.05" width="7.21" height="7.21" fill="#959595"/><g transform="translate(684.95,36.05) scale(0.3605) rotate(0)"><path d="M10 5L5 0L0 5L5 10L0 15L5 20L10 15L15 20L20 15L15 10L20 5L15 0L10 5Z" fill="#979797"/></g><rect x="749.84" y="28.84" width="14.419999999999995" height="14.419999999999995" fill="#f9f9fb"/><rect x="749.84" y="28.84" width="7.21" height="7.21" fill="#aeaeaf"/><path d="M 749.84 36.05 A 7.21 7.21 0 0 1  757.0500000000001 28.84 L 757.0500000000001 36.05L749.84 36.05" fill="#c7c7c8"/><rect x="757.05" y="28.84" width="7.21" height="7.21" fill="#84bc8f"/><path d="M 757.05 36.05 A 7.21 7.21 0 0 1  764.26 28.84 L 757.05 36.05 A 7.21 7.21 0 0 0 764.26 28.84" fill="#dfece3"/><rect x="757.05" y="36.05" width="7.21" height="7.21" fill="#8e8e8e"/><path d="M 757.05 36.05 A 7.21 7.21 0 0 1  764.26 43.26 L 757.05 36.05 A 7.21 7.21 0 0 0 764.26 43.26" fill="#eef3f1"/><rect x="966.14" y="28.84" width="14.419999999999995" height="14.419999999999995" fill="#f9f9fb"/><rect x="966.14" y="28.84" width="7.21" height="7.21" fill="#cbcbcc"/><path d="M 966.14 28.84 A 7.21 7.21 0 0 0 973.35 36.05 L 973.35 28.84L966.14 28.84" fill="#bcd9c2"/><rect x="973.35" y="28.84" width="7.21" height="7.21" fill="#a3ccab"/><g transform="translate(973.35,28.84) scale(0.3605) rotate(0)"><rect width="2" height="20" fill="#a9d0b1"/><rect x="4" width="2" height="20" fill="#a9d0b1"/><rect x="8" width="2" height="20" fill="#a9d0b1"/><rect x="12" width="2" height="20" fill="#a9d0b1"/><rect x="16" width="2" height="20" fill="#a9d0b1"/></g><rect x="966.14" y="36.05" width="7.21" height="7.21" fill="#787879"/><g transform="translate(966.14,36.05) scale(0.3605) rotate(0)"><path d="M10 5L5 0L0 5L5 10L0 15L5 20L10 15L15 20L20 15L15 10L20 5L15 0L10 5Z" fill="#3c974c"/></g><rect x="1038.2399999999998" y="28.84" width="14.419999999999995" height="14.419999999999995" fill="#f9f9fb"/><rect x="1038.24" y="28.84" width="7.21" height="7.21" fill="#828282"/><g transform="translate(1038.24,28.84) scale(0.3605) rotate(0)"><path d="M10 5L5 0L0 5L5 10L0 15L5 20L10 15L15 20L20 15L15 10L20 5L15 0L10 5Z" fill="#9b9b9b"/></g><rect x="1045.45" y="28.84" width="7.21" height="7.21" fill="#8d8d8e"/><g transform="translate(1045.45,28.84) scale(0.3605) rotate(0)"><path d="M10 0L20 10L10 20L0 10L10 0Z" fill="#9ac8a3"/></g><rect x="1038.24" y="36.05" width="7.21" height="7.21" fill="#b2d4ba"/><g transform="translate(1038.24,36.05) scale(0.3605) rotate(0)"><path d="M10 0H20L0 20V10L10 0Z" fill="#5da86b"/><path d="M20 10V20H10L20 10Z" fill="#5da86b"/></g><rect x="1110.34" y="28.84" width="14.419999999999995" height="14.419999999999995" fill="#f9f9fb"/><rect x="1117.55" y="28.84" width="7.21" height="7.21" fill="#2d8f3e"/><polygon points="1124.76,28.84 1124.76,36.05 1117.55,36.05" fill="#bdbdbf"/><rect x="1110.34" y="36.05" width="7.21" height="7.21" fill="#a7ceaf"/><g transform="translate(1110.34,36.05) scale(0.3605) rotate(0)"><path d="M10 5L5 0L0 5L5 10L0 15L5 20L10 15L15 20L20 15L15 10L20 5L15 0L10 5Z" fill="#8abf94"/></g><rect x="1117.55" y="36.05" width="7.21" height="7.21" fill="#a8a8a9"/><g transform="translate(1117.55,36.05) scale(0.3605) rotate(0)"><path d="M19.9981 0.00193429L3.72652 -7.68637e-07L8.4784 4.75382L0 13.2345L6.76585 20L15.2462 11.5208L20 16.2746L19.9981 0.00193429Z" fill="#6b6b6b"/></g><rect x="99.90176" y="99.90176" width="16.49648" height="16.49648" fill="#f9f9fb"/><rect x="99.9" y="108.15" width="8.25" height="8.25" fill="#82bb8d"/><path d="M 99.9 116.4 A 8.25 8.25 0 0 0 108.15 108.15 L 99.9 108.15L99.9 116.4" fill="#686868"/><rect x="170.96352" y="98.86352" width="18.572959999999995" height="18.572959999999995" fill="#f9f9fb"/><rect x="170.96" y="98.86" width="9.29" height="9.29" fill="#bebebf"/><g transform="translate(170.96,98.86) scale(0.46449999999999997) rotate(0)"><rect width="20" height="10" fill="#5ea96b"/></g><rect x="180.25" y="98.86" width="9.29" height="9.29" fill="#f1f5f4"/><path d="M 180.25 108.15 A 9.29 9.29 0 0 1  189.54 98.86 L 189.54 108.15L180.25 108.15" fill="#7a7a7a"/><rect x="170.96" y="108.15" width="9.29" height="9.29" fill="#1f8830"/><polygon points="180.25,108.15 180.25,117.44 170.96,117.44" fill="#6eb17a"/><rect x="180.25" y="108.15" width="9.29" height="9.29" fill="#298d3a"/><g transform="translate(180.25,108.15) scale(0.46449999999999997) rotate(0)"><rect width="20" height="2" fill="#e2e2e4"/><rect y="4" width="20" height="2" fill="#e2e2e4"/><rect y="8" width="20" height="2" fill="#e2e2e4"/><rect y="12" width="20" height="2" fill="#e2e2e4"/><rect y="16" width="20" height="2" fill="#e2e2e4"/></g><rect x="242.02527999999998" y="97.82527999999999" width="20.64944" height="20.64944" fill="#f9f9fb"/><rect x="252.35" y="97.83" width="10.32" height="10.32" fill="#238a34"/><g transform="translate(252.35,97.83) scale(0.516) rotate(0)"><rect width="20" height="10" fill="#9a9a9b"/></g><rect x="242.03" y="108.15" width="10.32" height="10.32" fill="#7d7d7e"/><g transform="translate(242.03,108.15) scale(0.516) rotate(0)"><rect width="20" height="10" fill="#eaeaec"/></g><rect x="313.08704" y="96.78703999999999" width="22.725919999999995" height="22.725919999999995" fill="#f9f9fb"/><rect x="313.09" y="96.79" width="11.36" height="11.36" fill="#b2b2b3"/><path d="M 313.09 108.15 A 11.36 11.36 0 0 1  324.45 96.79 L 313.09 108.15 A 11.36 11.36 0 0 0 324.45 96.79" fill="#399649"/><rect x="324.45" y="96.79" width="11.36" height="11.36" fill="#80ba8b"/><g transform="translate(324.45,96.79) scale(0.568) rotate(0)"><path d="M10 5L5 0L0 5L5 10L0 15L5 20L10 15L15 20L20 15L15 10L20 5L15 0L10 5Z" fill="#ebf2ee"/></g><rect x="313.09" y="108.15" width="11.36" height="11.36" fill="#a8a8a9"/><g transform="translate(313.09,108.15) scale(0.568) rotate(0)"><path d="M10 5L5 0L0 5L5 10L0 15L5 20L10 15L15 20L20 15L15 10L20 5L15 0L10 5Z" fill="#7d7d7d"/></g><rect x="324.45" y="108.15" width="11.36" height="11.36" fill="#288d39"/><circle cx="330.13" cy="113.83000000000001" r="5.68" fill="#ccccce"/><rect x="384.1488" y="95.74879999999999" width="24.80239999999999" height="24.80239999999999" fill="#f9f9fb"/><rect x="384.15" y="95.75" width="12.4" height="12.4" fill="#54a462"/><g transform="translate(384.15,95.75) scale(0.62) rotate(0)"><rect width="2" height="20" fill="#2e903f"/><rect x="4" width="2" height="20" fill="#2e903f"/><rect x="8" width="2" height="20" fill="#2e903f"/><rect x="12" width="2" height="20" fill="#2e903f"/><rect x="16" width="2" height="20" fill="#2e903f"/></g><rect x="455.21056" y="94.71056" width="26.878879999999988" height="26.878879999999988" fill="#f9f9fb"/><rect x="455.21" y="94.71" width="13.44" height="13.44" fill="#abd0b2"/><g transform="translate(455.21,94.71) scale(0.6719999999999999) rotate(0)"><path d="M10 0H20L0 20V10L10 0Z" fill="#c5c5c6"/><path d="M20 10V20H10L20 10Z" fill="#c5c5c6"/></g><rect x="455.21" y="108.15" width="13.44" height="13.44" fill="#b5b5b6"/><polygon points="468.65,108.15 468.65,121.59 455.21,121.59" fill="#f7f8fa"/><rect x="468.65" y="108.15" width="13.44" height="13.44" fill="#ececee"/><g transform="translate(468.65,108.15) scale(0.6719999999999999) rotate(0)"><path d="M10 5L5 0L0 5L5 10L0 15L5 20L10 15L15 20L20 15L15 10L20 5L15 0L10 5Z" fill="#6e6e6e"/></g><rect x="526.6184" y="94.0184" width="28.26319999999999" height="28.26319999999999" fill="#f9f9fb"/><rect x="526.62" y="94.02" width="14.13" height="14.13" fill="#a6a6a6"/><g transform="translate(526.62,94.02) scale(0.7065) rotate(0)"><rect width="2" height="20" fill="#4a9e59"/><rect x="4" width="2" height="20" fill="#4a9e59"/><rect x="8" width="2" height="20" fill="#4a9e59"/><rect x="12" width="2" height="20" fill="#4a9e59"/><rect x="16" width="2" height="20" fill="#4a9e59"/></g><rect x="540.75" y="94.02" width="14.13" height="14.13" fill="#bcbcbe"/><g transform="translate(540.75,94.02) scale(0.7065) rotate(0)"><path d="M19.9981 0.00193429L3.72652 -7.68637e-07L8.4784 4.75382L0 13.2345L6.76585 20L15.2462 11.5208L20 16.2746L19.9981 0.00193429Z" fill="#626262"/></g><rect x="526.62" y="108.15" width="14.13" height="14.13" fill="#72b37e"/><g transform="translate(526.62,108.15) scale(0.7065) rotate(0)"><rect width="2" height="20" fill="#c0c0c1"/><rect x="4" width="2" height="20" fill="#c0c0c1"/><rect x="8" width="2" height="20" fill="#c0c0c1"/><rect x="12" width="2" height="20" fill="#c0c0c1"/><rect x="16" width="2" height="20" fill="#c0c0c1"/></g><rect x="540.75" y="108.15" width="14.13" height="14.13" fill="#b2b2b3"/><polygon points="540.75,108.15 554.88,122.28 540.75,122.28" fill="#656565"/><rect x="598.7184" y="94.0184" width="28.26319999999999" height="28.26319999999999" fill="#f9f9fb"/><rect x="598.72" y="94.02" width="14.13" height="14.13" fill="#bfbfc0"/><g transform="translate(598.72,94.02) scale(0.7065) rotate(0)"><path d="M10 5L5 0L0 5L5 10L0 15L5 20L10 15L15 20L20 15L15 10L20 5L15 0L10 5Z" fill="#e2e2e4"/></g><rect x="598.72" y="108.15" width="14.13" height="14.13" fill="#4ca05b"/><g transform="translate(598.72,108.15) scale(0.7065) rotate(0)"><path d="M19.9981 0.00193429L3.72652 -7.68637e-07L8.4784 4.75382L0 13.2345L6.76585 20L15.2462 11.5208L20 16.2746L19.9981 0.00193429Z" fill="#c2dcc8"/></g><rect x="612.85" y="108.15" width="14.13" height="14.13" fill="#cbe1d0"/><g transform="translate(612.85,108.15) scale(0.7065) rotate(0)"><path d="M5 0H10L5 5L0 10V5L5 0Z" fill="#e8e8ea"/><path d="M20 15V20H15L20 15Z" fill="#e8e8ea"/><path d="M20 5V10L15 15L10 20H5L20 5Z" fill="#e8e8ea"/><path d="M15 0H20L5 15.0002L0 20.0002V15.0002L15 0Z" fill="#e8e8ea"/></g><rect x="670.8184" y="94.0184" width="28.26319999999999" height="28.26319999999999" fill="#f9f9fb"/><rect x="684.95" y="94.02" width="14.13" height="14.13" fill="#a4a4a5"/><g transform="translate(684.95,94.02) scale(0.7065) rotate(0)"><path d="M10 0L20 10L10 20L0 10L10 0Z" fill="#919192"/></g><rect x="684.95" y="108.15" width="14.13" height="14.13" fill="#d7d7d8"/><circle cx="692.0150000000001" cy="115.215" r="7.065" fill="#e8f0ec"/><rect x="963.02528" y="97.82527999999999" width="20.64944" height="20.64944" fill="#f9f9fb"/><rect x="973.35" y="97.83" width="10.32" height="10.32" fill="#a2a2a3"/><g transform="translate(973.35,97.83) scale(0.516) rotate(0)"><path d="M10 5L5 0L0 5L5 10L0 15L5 20L10 15L15 20L20 15L15 10L20 5L15 0L10 5Z" fill="#4b9f59"/></g><rect x="963.03" y="108.15" width="10.32" height="10.32" fill="#b0b0b1"/><g transform="translate(963.03,108.15) scale(0.516) rotate(0)"><path d="M10 5L5 0L0 5L5 10L0 15L5 20L10 15L15 20L20 15L15 10L20 5L15 0L10 5Z" fill="#56a464"/></g><rect x="973.35" y="108.15" width="10.32" height="10.32" fill="#a5a5a6"/><g transform="translate(973.35,108.15) scale(0.516) rotate(0)"><path d="M10 0L20 10L10 20L0 10L10 0Z" fill="#dfdfe1"/></g><rect x="1036.1635199999998" y="98.86352" width="18.572959999999995" height="18.572959999999995" fill="#f9f9fb"/><rect x="1036.16" y="98.86" width="9.29" height="9.29" fill="#e2e2e4"/><g transform="translate(1036.16,98.86) scale(0.46449999999999997) rotate(0)"><path d="M19.9981 0.00193429L3.72652 -7.68637e-07L8.4784 4.75382L0 13.2345L6.76585 20L15.2462 11.5208L20 16.2746L19.9981 0.00193429Z" fill="#56a564"/></g><rect x="1045.45" y="98.86" width="9.29" height="9.29" fill="#7bb886"/><g transform="translate(1045.45,98.86) scale(0.46449999999999997) rotate(0)"><rect width="20" height="2" fill="#369446"/><rect y="4" width="20" height="2" fill="#369446"/><rect y="8" width="20" height="2" fill="#369446"/><rect y="12" width="20" height="2" fill="#369446"/><rect y="16" width="20" height="2" fill="#369446"/></g><rect x="1036.16" y="108.15" width="9.29" height="9.29" fill="#f2f2f4"/><g transform="translate(1036.16,108.15) scale(0.46449999999999997) rotate(0)"><path fill-rule="evenodd" clip-rule="evenodd" d="M10 20C15.5228 20 20 15.5228 20 10C20 4.47715 15.5228 0 10 0C4.47715 0 0 4.47715 0 10C0 15.5228 4.47715 20 10 20ZM10 17C13.866 17 17 13.866 17 10C17 6.13401 13.866 3 10 3C6.13401 3 3 6.13401 3 10C3 13.866 6.13401 17 10 17Z" fill="#e5e5e7"/></g><rect x="1045.45" y="108.15" width="9.29" height="9.29" fill="#5aa767"/><g transform="translate(1045.45,108.15) scale(0.46449999999999997) rotate(0)"><rect width="2" height="20" fill="#8c8c8d"/><rect x="4" width="2" height="20" fill="#8c8c8d"/><rect x="8" width="2" height="20" fill="#8c8c8d"/><rect x="12" width="2" height="20" fill="#8c8c8d"/><rect x="16" width="2" height="20" fill="#8c8c8d"/></g><rect x="28.84" y="173.04" width="14.419999999999995" height="14.419999999999995" fill="#f9f9fb"/><rect x="28.84" y="173.04" width="7.21" height="7.21" fill="#4ea05c"/><g transform="translate(28.84,173.04) scale(0.3605) rotate(0)"><rect width="20" height="10" fill="#027916"/></g><rect x="28.84" y="180.25" width="7.21" height="7.21" fill="#858585"/><g transform="translate(28.84,180.25) scale(0.3605) rotate(0)"><path d="M10 0H20L0 20V10L10 0Z" fill="#e4e4e6"/><path d="M20 10V20H10L20 10Z" fill="#e4e4e6"/></g><rect x="98.86352" y="170.96352" width="18.572959999999995" height="18.572959999999995" fill="#f9f9fb"/><rect x="98.86" y="170.96" width="9.29" height="9.29" fill="#dfdfe1"/><path d="M 98.86 180.25 A 9.29 9.29 0 0 1  108.15 170.96 L 108.15 180.25L98.86 180.25" fill="#e9e9ea"/><rect x="108.15" y="170.96" width="9.29" height="9.29" fill="#f6f7f8"/><g transform="translate(108.15,170.96) scale(0.46449999999999997) rotate(0)"><rect width="20" height="2" fill="#5fa96c"/><rect y="4" width="20" height="2" fill="#5fa96c"/><rect y="8" width="20" height="2" fill="#5fa96c"/><rect y="12" width="20" height="2" fill="#5fa96c"/><rect y="16" width="20" height="2" fill="#5fa96c"/></g><rect x="98.86" y="180.25" width="9.29" height="9.29" fill="#19852b"/><polygon points="108.15,180.25 108.15,189.54 98.86,189.54" fill="#67ae74"/><rect x="308.93408" y="164.73408" width="31.03183999999999" height="31.03183999999999" fill="#f9f9fb"/><rect x="324.45" y="164.73" width="15.52" height="15.52" fill="#646464"/><g transform="translate(324.45,164.73) scale(0.776) rotate(0)"><rect width="2" height="20" fill="#9c9c9d"/><rect x="4" width="2" height="20" fill="#9c9c9d"/><rect x="8" width="2" height="20" fill="#9c9c9d"/><rect x="12" width="2" height="20" fill="#9c9c9d"/><rect x="16" width="2" height="20" fill="#9c9c9d"/></g><rect x="308.93" y="180.25" width="15.52" height="15.52" fill="#90c39a"/><g transform="translate(308.93,180.25) scale(0.776) rotate(0)"><path d="M19.9981 0.00193429L3.72652 -7.68637e-07L8.4784 4.75382L0 13.2345L6.76585 20L15.2462 11.5208L20 16.2746L19.9981 0.00193429Z" fill="#cfcfd0"/></g><rect x="324.45" y="180.25" width="15.52" height="15.52" fill="#128125"/><g transform="translate(324.45,180.25) scale(0.776) rotate(0)"><path d="M10 0L20 10L10 20L0 10L10 0Z" fill="#7f7f7f"/></g><rect x="448.98112" y="160.58112" width="39.337759999999996" height="39.337759999999996" fill="#f9f9fb"/><rect x="448.98" y="160.58" width="19.67" height="19.67" fill="#72b37e"/><g transform="translate(448.98,160.58) scale(0.9835) rotate(0)"><rect width="20" height="10" fill="#8c8c8d"/></g><rect x="448.98" y="180.25" width="19.67" height="19.67" fill="#bebebf"/><g transform="translate(448.98,180.25) scale(0.9835) rotate(0)"><path d="M10 5L5 0L0 5L5 10L0 15L5 20L10 15L15 20L20 15L15 10L20 5L15 0L10 5Z" fill="#868687"/></g><rect x="468.65" y="180.25" width="19.67" height="19.67" fill="#e9e9eb"/><g transform="translate(468.65,180.25) scale(0.9835) rotate(0)"><rect width="2" height="20" fill="#d2d2d4"/><rect x="4" width="2" height="20" fill="#d2d2d4"/><rect x="8" width="2" height="20" fill="#d2d2d4"/><rect x="12" width="2" height="20" fill="#d2d2d4"/><rect x="16" width="2" height="20" fill="#d2d2d4"/></g><rect x="519.6967999999999" y="159.1968" width="42.106399999999994" height="42.106399999999994" fill="#f9f9fb"/><rect x="519.7" y="159.2" width="21.05" height="21.05" fill="#f5f7f7"/><polygon points="519.7,159.2 540.75,159.2 540.75,180.25" fill="#027916"/><rect x="540.75" y="159.2" width="21.05" height="21.05" fill="#50a15e"/><path d="M 540.75 159.2 A 21.05 21.05 0 0 1  561.8 180.25 L 540.75 159.2 A 21.05 21.05 0 0 0 561.8 180.25" fill="#c9e0ce"/><rect x="540.75" y="180.25" width="21.05" height="21.05" fill="#bebec0"/><path d="M 540.75 201.3 A 21.05 21.05 0 0 1  561.8 180.25 L 540.75 201.3 A 21.05 21.05 0 0 0 561.8 180.25" fill="#047a18"/><rect x="591.7968" y="159.1968" width="42.106399999999994" height="42.106399999999994" fill="#f9f9fb"/><rect x="591.8" y="159.2" width="21.05" height="21.05" fill="#c5c5c6"/><g transform="translate(591.8,159.2) scale(1.0525) rotate(0)"><path d="M10 5L5 0L0 5L5 10L0 15L5 20L10 15L15 20L20 15L15 10L20 5L15 0L10 5Z" fill="#d8d8d9"/></g><rect x="612.85" y="159.2" width="21.05" height="21.05" fill="#7a7a7a"/><polygon points="612.85,159.2 633.9,159.2 633.9,180.25" fill="#969697"/><rect x="612.85" y="180.25" width="21.05" height="21.05" fill="#399549"/><g transform="translate(612.85,180.25) scale(1.0525) rotate(0)"><path fill-rule="evenodd" clip-rule="evenodd" d="M10 20C15.5228 20 20 15.5228 20 10C20 4.47715 15.5228 0 10 0C4.47715 0 0 4.47715 0 10C0 15.5228 4.47715 20 10 20ZM10 17C13.866 17 17 13.866 17 10C17 6.13401 13.866 3 10 3C6.13401 3 3 6.13401 3 10C3 13.866 6.13401 17 10 17Z" fill="#a0a0a1"/></g><rect x="663.8968" y="159.1968" width="42.106399999999994" height="42.106399999999994" fill="#f9f9fb"/><rect x="663.9" y="180.25" width="21.05" height="21.05" fill="#cce2d2"/><polygon points="663.9,180.25 684.9499999999999,180.25 684.9499999999999,201.3" fill="#cae1d0"/><rect x="684.95" y="180.25" width="21.05" height="21.05" fill="#707070"/><g transform="translate(684.95,180.25) scale(1.0525) rotate(0)"><rect width="20" height="10" fill="#6db079"/></g><rect x="737.38112" y="160.58112" width="39.337759999999996" height="39.337759999999996" fill="#f9f9fb"/><rect x="737.38" y="160.58" width="19.67" height="19.67" fill="#85bd8f"/><g transform="translate(737.38,160.58) scale(0.9835) rotate(0)"><rect width="2" height="20" fill="#d5d5d6"/><rect x="4" width="2" height="20" fill="#d5d5d6"/><rect x="8" width="2" height="20" fill="#d5d5d6"/><rect x="12" width="2" height="20" fill="#d5d5d6"/><rect x="16" width="2" height="20" fill="#d5d5d6"/></g><rect x="757.05" y="160.58" width="19.67" height="19.67" fill="#73b37e"/><path d="M 757.05 160.58 A 19.67 19.67 0 0 1  776.7199999999999 180.25 L 757.05 160.58 A 19.67 19.67 0 0 0 776.7199999999999 180.25" fill="#818181"/><rect x="737.38" y="180.25" width="19.67" height="19.67" fill="#459c54"/><g transform="translate(737.38,180.25) scale(0.9835) rotate(0)"><path d="M10 0L20 10L10 20L0 10L10 0Z" fill="#75b581"/></g><rect x="811.5575999999999" y="162.6576" width="35.184799999999996" height="35.184799999999996" fill="#f9f9fb"/><rect x="811.56" y="162.66" width="17.59" height="17.59" fill="#a9a9aa"/><g transform="translate(811.56,162.66) scale(0.8795) rotate(0)"><path d="M10 0H20L0 20V10L10 0Z" fill="#2f9040"/><path d="M20 10V20H10L20 10Z" fill="#2f9040"/></g><rect x="829.15" y="162.66" width="17.59" height="17.59" fill="#a7a7a8"/><path d="M 829.15 162.66 A 17.59 17.59 0 0 0 846.74 180.25 L 846.74 162.66L829.15 162.66" fill="#656565"/><rect x="811.56" y="180.25" width="17.59" height="17.59" fill="#65ac72"/><g transform="translate(811.56,180.25) scale(0.8795) rotate(0)"><path d="M10 0H20L0 20V10L10 0Z" fill="#e5e5e6"/><path d="M20 10V20H10L20 10Z" fill="#e5e5e6"/></g><rect x="829.15" y="180.25" width="17.59" height="17.59" fill="#e2e2e4"/><g transform="translate(829.15,180.25) scale(0.8795) rotate(0)"><path d="M19.9981 0.00193429L3.72652 -7.68637e-07L8.4784 4.75382L0 13.2345L6.76585 20L15.2462 11.5208L20 16.2746L19.9981 0.00193429Z" fill="#e4eee7"/></g><rect x="885.73408" y="164.73408" width="31.03183999999999" height="31.03183999999999" fill="#f9f9fb"/><rect x="885.73" y="164.73" width="15.52" height="15.52" fill="#93c49c"/><g transform="translate(885.73,164.73) scale(0.776) rotate(0)"><path fill-rule="evenodd" clip-rule="evenodd" d="M10 20C15.5228 20 20 15.5228 20 10C20 4.47715 15.5228 0 10 0C4.47715 0 0 4.47715 0 10C0 15.5228 4.47715 20 10 20ZM10 17C13.866 17 17 13.866 17 10C17 6.13401 13.866 3 10 3C6.13401 3 3 6.13401 3 10C3 13.866 6.13401 17 10 17Z" fill="#0b7e1e"/></g><rect x="885.73" y="180.25" width="15.52" height="15.52" fill="#8e8e8e"/><g transform="translate(885.73,180.25) scale(0.776) rotate(0)"><path d="M10 5L5 0L0 5L5 10L0 15L5 20L10 15L15 20L20 15L15 10L20 5L15 0L10 5Z" fill="#cacacc"/></g><rect x="901.25" y="180.25" width="15.52" height="15.52" fill="#dae9de"/><g transform="translate(901.25,180.25) scale(0.776) rotate(0)"><rect width="20" height="2" fill="#3f994f"/><rect y="4" width="20" height="2" fill="#3f994f"/><rect y="8" width="20" height="2" fill="#3f994f"/><rect y="12" width="20" height="2" fill="#3f994f"/><rect y="16" width="20" height="2" fill="#3f994f"/></g><rect x="959.9105599999999" y="166.81055999999998" width="26.878879999999995" height="26.878879999999995" fill="#f9f9fb"/><rect x="973.35" y="166.81" width="13.44" height="13.44" fill="#c9e0ce"/><g transform="translate(973.35,166.81) scale(0.6719999999999999) rotate(0)"><path d="M5 0H10L5 5L0 10V5L5 0Z" fill="#797979"/><path d="M20 15V20H15L20 15Z" fill="#797979"/><path d="M20 5V10L15 15L10 20H5L20 5Z" fill="#797979"/><path d="M15 0H20L5 15.0002L0 20.0002V15.0002L15 0Z" fill="#797979"/></g><rect x="959.91" y="180.25" width="13.44" height="13.44" fill="#969696"/><g transform="translate(959.91,180.25) scale(0.6719999999999999) rotate(0)"><path d="M19.9981 0.00193429L3.72652 -7.68637e-07L8.4784 4.75382L0 13.2345L6.76585 20L15.2462 11.5208L20 16.2746L19.9981 0.00193429Z" fill="#6db079"/></g><rect x="973.35" y="180.25" width="13.44" height="13.44" fill="#81bb8c"/><path d="M 973.35 180.25 A 13.44 13.44 0 0 1  986.7900000000001 193.69 L 973.35 180.25 A 13.44 13.44 0 0 0 986.7900000000001 193.69" fill="#8ec197"/><rect x="1034.08704" y="168.88703999999998" width="22.725919999999995" height="22.725919999999995" fill="#f9f9fb"/><rect x="1045.45" y="168.89" width="11.36" height="11.36" fill="#a3cdac"/><g transform="translate(1045.45,168.89) scale(0.568) rotate(0)"><path d="M19.9981 0.00193429L3.72652 -7.68637e-07L8.4784 4.75382L0 13.2345L6.76585 20L15.2462 11.5208L20 16.2746L19.9981 0.00193429Z" fill="#b5b5b6"/></g><rect x="1108.26352" y="170.96352" width="18.572959999999995" height="18.572959999999995" fill="#f9f9fb"/><rect x="1117.55" y="170.96" width="9.29" height="9.29" fill="#298d3a"/><g transform="translate(1117.55,170.96) scale(0.46449999999999997) rotate(0)"><path d="M5 0H10L5 5L0 10V5L5 0Z" fill="#5ba768"/><path d="M20 15V20H15L20 15Z" fill="#5ba768"/><path d="M20 5V10L15 15L10 20H5L20 5Z" fill="#5ba768"/><path d="M15 0H20L5 15.0002L0 20.0002V15.0002L15 0Z" fill="#5ba768"/></g><rect x="97.82527999999999" y="242.02527999999998" width="20.64944" height="20.64944" fill="#f9f9fb"/><rect x="108.15" y="242.03" width="10.32" height="10.32" fill="#087c1b"/><path d="M 108.15 252.35 A 10.32 10.32 0 0 1  118.47 242.03 L 108.15 252.35 A 10.32 10.32 0 0 0 118.47 242.03" fill="#288d39"/><rect x="97.83" y="252.35" width="10.32" height="10.32" fill="#a3a3a4"/><g transform="translate(97.83,252.35) scale(0.516) rotate(0)"><rect width="20" height="10" fill="#60aa6d"/></g><rect x="166.81055999999998" y="238.91055999999998" width="26.878879999999995" height="26.878879999999995" fill="#f9f9fb"/><rect x="166.81" y="238.91" width="13.44" height="13.44" fill="#f0f0f2"/><polygon points="180.25,238.91 180.25,252.35 166.81,252.35" fill="#238a35"/><rect x="180.25" y="238.91" width="13.44" height="13.44" fill="#add2b4"/><g transform="translate(180.25,238.91) scale(0.6719999999999999) rotate(0)"><path d="M5 0H10L5 5L0 10V5L5 0Z" fill="#6d6d6e"/><path d="M20 15V20H15L20 15Z" fill="#6d6d6e"/><path d="M20 5V10L15 15L10 20H5L20 5Z" fill="#6d6d6e"/><path d="M15 0H20L5 15.0002L0 20.0002V15.0002L15 0Z" fill="#6d6d6e"/></g><rect x="166.81" y="252.35" width="13.44" height="13.44" fill="#e8f0ec"/><path d="M 166.81 265.79 A 13.44 13.44 0 0 1  180.25 252.35 L 166.81 265.79 A 13.44 13.44 0 0 0 180.25 252.35" fill="#eaeaeb"/><rect x="180.25" y="252.35" width="13.44" height="13.44" fill="#d0e4d5"/><g transform="translate(180.25,252.35) scale(0.6719999999999999) rotate(0)"><rect width="20" height="10" fill="#419a50"/></g><rect x="304.78112" y="232.68112" width="39.337759999999996" height="39.337759999999996" fill="#f9f9fb"/><rect x="324.45" y="232.68" width="19.67" height="19.67" fill="#a9a9aa"/><g transform="translate(324.45,232.68) scale(0.9835) rotate(0)"><path d="M19.9981 0.00193429L3.72652 -7.68637e-07L8.4784 4.75382L0 13.2345L6.76585 20L15.2462 11.5208L20 16.2746L19.9981 0.00193429Z" fill="#bdbdbe"/></g><rect x="324.45" y="252.35" width="19.67" height="19.67" fill="#bebebf"/><g transform="translate(324.45,252.35) scale(0.9835) rotate(0)"><path d="M19.9981 0.00193429L3.72652 -7.68637e-07L8.4784 4.75382L0 13.2345L6.76585 20L15.2462 11.5208L20 16.2746L19.9981 0.00193429Z" fill="#6b6b6b"/></g><rect x="373.7664" y="229.5664" width="45.5672" height="45.5672" fill="#f9f9fb"/><rect x="396.55" y="229.57" width="22.78" height="22.78" fill="#4a9e58"/><g transform="translate(396.55,229.57) scale(1.139) rotate(0)"><path d="M10 5L5 0L0 5L5 10L0 15L5 20L10 15L15 20L20 15L15 10L20 5L15 0L10 5Z" fill="#d3d3d5"/></g><rect x="396.55" y="252.35" width="22.78" height="22.78" fill="#d2d2d3"/><g transform="translate(396.55,252.35) scale(1.139) rotate(0)"><path d="M10 5L5 0L0 5L5 10L0 15L5 20L10 15L15 20L20 15L15 10L20 5L15 0L10 5Z" fill="#6f6f6f"/></g><rect x="512.7751999999999" y="224.37519999999998" width="55.94959999999999" height="55.94959999999999" fill="#f9f9fb"/><rect x="540.75" y="224.38" width="27.97" height="27.97" fill="#eef3f1"/><g transform="translate(540.75,224.38) scale(1.3984999999999999) rotate(0)"><rect width="2" height="20" fill="#838383"/><rect x="4" width="2" height="20" fill="#838383"/><rect x="8" width="2" height="20" fill="#838383"/><rect x="12" width="2" height="20" fill="#838383"/><rect x="16" width="2" height="20" fill="#838383"/></g><rect x="656.9752" y="224.37519999999998" width="55.94959999999999" height="55.94959999999999" fill="#f9f9fb"/><rect x="656.98" y="224.38" width="27.97" height="27.97" fill="#057b19"/><g transform="translate(656.98,224.38) scale(1.3984999999999999) rotate(0)"><path d="M10 0H20L0 20V10L10 0Z" fill="#399549"/><path d="M20 10V20H10L20 10Z" fill="#399549"/></g><rect x="684.95" y="224.38" width="27.97" height="27.97" fill="#bdbdbe"/><g transform="translate(684.95,224.38) scale(1.3984999999999999) rotate(0)"><path d="M19.9981 0.00193429L3.72652 -7.68637e-07L8.4784 4.75382L0 13.2345L6.76585 20L15.2462 11.5208L20 16.2746L19.9981 0.00193429Z" fill="#6e6e6e"/></g><rect x="656.98" y="252.35" width="27.97" height="27.97" fill="#a9a9aa"/><g transform="translate(656.98,252.35) scale(1.3984999999999999) rotate(0)"><rect width="2" height="20" fill="#60aa6d"/><rect x="4" width="2" height="20" fill="#60aa6d"/><rect x="8" width="2" height="20" fill="#60aa6d"/><rect x="12" width="2" height="20" fill="#60aa6d"/><rect x="16" width="2" height="20" fill="#60aa6d"/></g><rect x="684.95" y="252.35" width="27.97" height="27.97" fill="#d1d1d2"/><g transform="translate(684.95,252.35) scale(1.3984999999999999) rotate(0)"><rect width="20" height="10" fill="#1a862d"/></g><rect x="881.5811199999999" y="232.68112" width="39.337759999999996" height="39.337759999999996" fill="#f9f9fb"/><rect x="901.25" y="232.68" width="19.67" height="19.67" fill="#027915"/><g transform="translate(901.25,232.68) scale(0.9835) rotate(0)"><path d="M19.9981 0.00193429L3.72652 -7.68637e-07L8.4784 4.75382L0 13.2345L6.76585 20L15.2462 11.5208L20 16.2746L19.9981 0.00193429Z" fill="#e2e2e4"/></g><rect x="956.79584" y="235.79584" width="33.10831999999999" height="33.10831999999999" fill="#f9f9fb"/><rect x="973.35" y="235.8" width="16.55" height="16.55" fill="#87be91"/><g transform="translate(973.35,235.8) scale(0.8275) rotate(0)"><path d="M19.9981 0.00193429L3.72652 -7.68637e-07L8.4784 4.75382L0 13.2345L6.76585 20L15.2462 11.5208L20 16.2746L19.9981 0.00193429Z" fill="#969697"/></g><rect x="956.8" y="252.35" width="16.55" height="16.55" fill="#dedee0"/><g transform="translate(956.8,252.35) scale(0.8275) rotate(0)"><path d="M10 0H20L0 20V10L10 0Z" fill="#097d1c"/><path d="M20 10V20H10L20 10Z" fill="#097d1c"/></g><rect x="973.35" y="252.35" width="16.55" height="16.55" fill="#a2a2a3"/><path d="M 973.35 268.9 A 16.55 16.55 0 0 1  989.9 252.35 L 973.35 268.9 A 16.55 16.55 0 0 0 989.9 252.35" fill="#d5e6d9"/><rect x="1107.22528" y="242.02527999999998" width="20.64944" height="20.64944" fill="#f9f9fb"/><rect x="1107.23" y="242.03" width="10.32" height="10.32" fill="#c5decb"/><g transform="translate(1107.23,242.03) scale(0.516) rotate(0)"><path d="M10 5L5 0L0 5L5 10L0 15L5 20L10 15L15 20L20 15L15 10L20 5L15 0L10 5Z" fill="#bedac4"/></g><rect x="1117.55" y="242.03" width="10.32" height="10.32" fill="#19852b"/><g transform="translate(1117.55,242.03) scale(0.516) rotate(0)"><path d="M5 0H10L5 5L0 10V5L5 0Z" fill="#f6f8f8"/><path d="M20 15V20H15L20 15Z" fill="#f6f8f8"/><path d="M20 5V10L15 15L10 20H5L20 5Z" fill="#f6f8f8"/><path d="M15 0H20L5 15.0002L0 20.0002V15.0002L15 0Z" fill="#f6f8f8"/></g><rect x="1117.55" y="252.35" width="10.32" height="10.32" fill="#898989"/><g transform="translate(1117.55,252.35) scale(0.516) rotate(0)"><rect width="20" height="2" fill="#389548"/><rect y="4" width="20" height="2" fill="#389548"/><rect y="8" width="20" height="2" fill="#389548"/><rect y="12" width="20" height="2" fill="#389548"/><rect y="16" width="20" height="2" fill="#389548"/></g><rect x="96.78703999999999" y="313.08704" width="22.725919999999995" height="22.725919999999995" fill="#f9f9fb"/><rect x="96.79" y="313.09" width="11.36" height="11.36" fill="#74b47f"/><polygon points="96.79,313.09 108.15,324.45 96.79,324.45" fill="#a8a8a9"/><rect x="108.15" y="313.09" width="11.36" height="11.36" fill="#7cb887"/><circle cx="113.83000000000001" cy="318.77" r="5.68" fill="#3e984d"/><rect x="96.79" y="324.45" width="11.36" height="11.36" fill="#6d6d6e"/><g transform="translate(96.79,324.45) scale(0.568) rotate(0)"><path d="M5 0H10L5 5L0 10V5L5 0Z" fill="#2f903f"/><path d="M20 15V20H15L20 15Z" fill="#2f903f"/><path d="M20 5V10L15 15L10 20H5L20 5Z" fill="#2f903f"/><path d="M15 0H20L5 15.0002L0 20.0002V15.0002L15 0Z" fill="#2f903f"/></g><rect x="108.15" y="324.45" width="11.36" height="11.36" fill="#90c39a"/><g transform="translate(108.15,324.45) scale(0.568) rotate(0)"><path d="M10 0H20L0 20V10L10 0Z" fill="#f5f5f7"/><path d="M20 10V20H10L20 10Z" fill="#f5f5f7"/></g><rect x="300.62816" y="300.62816" width="47.64367999999999" height="47.64367999999999" fill="#f9f9fb"/><rect x="300.63" y="324.45" width="23.82" height="23.82" fill="#b8b8ba"/><g transform="translate(300.63,324.45) scale(1.191) rotate(0)"><rect width="20" height="2" fill="#707070"/><rect y="4" width="20" height="2" fill="#707070"/><rect y="8" width="20" height="2" fill="#707070"/><rect y="12" width="20" height="2" fill="#707070"/><rect y="16" width="20" height="2" fill="#707070"/></g><rect x="324.45" y="324.45" width="23.82" height="23.82" fill="#add1b4"/><g transform="translate(324.45,324.45) scale(1.191) rotate(0)"><path d="M10 0H20L0 20V10L10 0Z" fill="#63ab70"/><path d="M20 10V20H10L20 10Z" fill="#63ab70"/></g><rect x="368.5752" y="296.4752" width="55.94959999999999" height="55.94959999999999" fill="#f9f9fb"/><rect x="368.58" y="296.48" width="27.97" height="27.97" fill="#d2d2d4"/><g transform="translate(368.58,296.48) scale(1.3984999999999999) rotate(0)"><path d="M10 0L20 10L10 20L0 10L10 0Z" fill="#8e8e8f"/></g><rect x="396.55" y="296.48" width="27.97" height="27.97" fill="#e9f1ec"/><g transform="translate(396.55,296.48) scale(1.3984999999999999) rotate(0)"><path d="M10 0H20L0 20V10L10 0Z" fill="#178429"/><path d="M20 10V20H10L20 10Z" fill="#178429"/></g><rect x="368.58" y="324.45" width="27.97" height="27.97" fill="#bbbbbc"/><g transform="translate(368.58,324.45) scale(1.3984999999999999) rotate(0)"><path d="M10 0L20 10L10 20L0 10L10 0Z" fill="#787878"/></g><rect x="396.55" y="324.45" width="27.97" height="27.97" fill="#087c1b"/><g transform="translate(396.55,324.45) scale(1.3984999999999999) rotate(0)"><path fill-rule="evenodd" clip-rule="evenodd" d="M10 20C15.5228 20 20 15.5228 20 10C20 4.47715 15.5228 0 10 0C4.47715 0 0 4.47715 0 10C0 15.5228 4.47715 20 10 20ZM10 17C13.866 17 17 13.866 17 10C17 6.13401 13.866 3 10 3C6.13401 3 3 6.13401 3 10C3 13.866 6.13401 17 10 17Z" fill="#9dc9a5"/></g><rect x="577.9535999999999" y="289.55359999999996" width="69.7928" height="69.7928" fill="#f9f9fb"/><rect x="577.95" y="289.55" width="34.9" height="34.9" fill="#268c37"/><g transform="translate(577.95,289.55) scale(1.7449999999999999) rotate(0)"><path fill-rule="evenodd" clip-rule="evenodd" d="M10 20C15.5228 20 20 15.5228 20 10C20 4.47715 15.5228 0 10 0C4.47715 0 0 4.47715 0 10C0 15.5228 4.47715 20 10 20ZM10 17C13.866 17 17 13.866 17 10C17 6.13401 13.866 3 10 3C6.13401 3 3 6.13401 3 10C3 13.866 6.13401 17 10 17Z" fill="#268c38"/></g><rect x="577.95" y="324.45" width="34.9" height="34.9" fill="#18852b"/><g transform="translate(577.95,324.45) scale(1.7449999999999999) rotate(0)"><rect width="20" height="10" fill="#d1d1d2"/></g><rect x="650.0536" y="289.55359999999996" width="69.7928" height="69.7928" fill="#f9f9fb"/><rect x="650.05" y="289.55" width="34.9" height="34.9" fill="#e5e5e6"/><g transform="translate(650.05,289.55) scale(1.7449999999999999) rotate(0)"><rect width="20" height="10" fill="#a6a6a7"/></g><rect x="650.05" y="324.45" width="34.9" height="34.9" fill="#f1f1f3"/><g transform="translate(650.05,324.45) scale(1.7449999999999999) rotate(0)"><rect width="20" height="10" fill="#bdbdbe"/></g><rect x="684.95" y="324.45" width="34.9" height="34.9" fill="#646464"/><g transform="translate(684.95,324.45) scale(1.7449999999999999) rotate(0)"><path d="M10 5L5 0L0 5L5 10L0 15L5 20L10 15L15 20L20 15L15 10L20 5L15 0L10 5Z" fill="#d5e7da"/></g><rect x="724.92224" y="292.32223999999997" width="64.25551999999999" height="64.25551999999999" fill="#f9f9fb"/><rect x="724.92" y="292.32" width="32.13" height="32.13" fill="#717171"/><g transform="translate(724.92,292.32) scale(1.6065) rotate(0)"><rect width="20" height="10" fill="#7db988"/></g><rect x="757.05" y="292.32" width="32.13" height="32.13" fill="#389548"/><g transform="translate(757.05,292.32) scale(1.6065) rotate(0)"><path d="M5 0H10L5 5L0 10V5L5 0Z" fill="#dfdfe0"/><path d="M20 15V20H15L20 15Z" fill="#dfdfe0"/><path d="M20 5V10L15 15L10 20H5L20 5Z" fill="#dfdfe0"/><path d="M15 0H20L5 15.0002L0 20.0002V15.0002L15 0Z" fill="#dfdfe0"/></g><rect x="757.05" y="324.45" width="32.13" height="32.13" fill="#666666"/><polygon points="757.05,324.45 789.18,356.58 757.05,356.58" fill="#a2a2a3"/><rect x="801.1751999999999" y="296.4752" width="55.94959999999999" height="55.94959999999999" fill="#f9f9fb"/><rect x="801.18" y="296.48" width="27.97" height="27.97" fill="#e4e4e6"/><g transform="translate(801.18,296.48) scale(1.3984999999999999) rotate(0)"><path d="M19.9981 0.00193429L3.72652 -7.68637e-07L8.4784 4.75382L0 13.2345L6.76585 20L15.2462 11.5208L20 16.2746L19.9981 0.00193429Z" fill="#8b8b8b"/></g><rect x="829.15" y="296.48" width="27.97" height="27.97" fill="#f8f8fa"/><g transform="translate(829.15,296.48) scale(1.3984999999999999) rotate(0)"><path fill-rule="evenodd" clip-rule="evenodd" d="M10 20C15.5228 20 20 15.5228 20 10C20 4.47715 15.5228 0 10 0C4.47715 0 0 4.47715 0 10C0 15.5228 4.47715 20 10 20ZM10 17C13.866 17 17 13.866 17 10C17 6.13401 13.866 3 10 3C6.13401 3 3 6.13401 3 10C3 13.866 6.13401 17 10 17Z" fill="#9e9e9f"/></g><rect x="829.15" y="324.45" width="27.97" height="27.97" fill="#86be91"/><g transform="translate(829.15,324.45) scale(1.3984999999999999) rotate(0)"><path d="M10 0H20L0 20V10L10 0Z" fill="#56a564"/><path d="M20 10V20H10L20 10Z" fill="#56a564"/></g><rect x="877.4281599999999" y="300.62816" width="47.64367999999999" height="47.64367999999999" fill="#f9f9fb"/><rect x="901.25" y="300.63" width="23.82" height="23.82" fill="#9f9fa0"/><g transform="translate(901.25,300.63) scale(1.191) rotate(0)"><path d="M5 0H10L5 5L0 10V5L5 0Z" fill="#5ba769"/><path d="M20 15V20H15L20 15Z" fill="#5ba769"/><path d="M20 5V10L15 15L10 20H5L20 5Z" fill="#5ba769"/><path d="M15 0H20L5 15.0002L0 20.0002V15.0002L15 0Z" fill="#5ba769"/></g><rect x="877.43" y="324.45" width="23.82" height="23.82" fill="#1d872f"/><circle cx="889.3399999999999" cy="336.36" r="11.91" fill="#727272"/><rect x="901.25" y="324.45" width="23.82" height="23.82" fill="#aaaaab"/><circle cx="913.16" cy="336.36" r="11.91" fill="#e0e0e2"/><rect x="953.68112" y="304.78112" width="39.337759999999996" height="39.337759999999996" fill="#f9f9fb"/><rect x="973.35" y="304.78" width="19.67" height="19.67" fill="#c1c1c3"/><polygon points="973.35,304.78 993.02,324.45 973.35,324.45" fill="#929293"/><rect x="953.68" y="324.45" width="19.67" height="19.67" fill="#ececee"/><polygon points="953.68,324.45 973.3499999999999,324.45 973.3499999999999,344.12" fill="#b8d8bf"/><rect x="973.35" y="324.45" width="19.67" height="19.67" fill="#717171"/><g transform="translate(973.35,324.45) scale(0.9835) rotate(0)"><rect width="2" height="20" fill="#eeeef0"/><rect x="4" width="2" height="20" fill="#eeeef0"/><rect x="8" width="2" height="20" fill="#eeeef0"/><rect x="12" width="2" height="20" fill="#eeeef0"/><rect x="16" width="2" height="20" fill="#eeeef0"/></g><rect x="1106.18704" y="313.08704" width="22.725919999999995" height="22.725919999999995" fill="#f9f9fb"/><rect x="1106.19" y="313.09" width="11.36" height="11.36" fill="#e8f0ec"/><g transform="translate(1106.19,313.09) scale(0.568) rotate(0)"><path d="M19.9981 0.00193429L3.72652 -7.68637e-07L8.4784 4.75382L0 13.2345L6.76585 20L15.2462 11.5208L20 16.2746L19.9981 0.00193429Z" fill="#499e58"/></g><rect x="1117.55" y="313.09" width="11.36" height="11.36" fill="#888889"/><g transform="translate(1117.55,313.09) scale(0.568) rotate(0)"><path d="M10 0H20L0 20V10L10 0Z" fill="#8a8a8b"/><path d="M20 10V20H10L20 10Z" fill="#8a8a8b"/></g><rect x="164.38799999999998" y="380.688" width="31.72399999999999" height="31.72399999999999" fill="#f9f9fb"/><rect x="180.25" y="380.69" width="15.86" height="15.86" fill="#b8d8bf"/><g transform="translate(180.25,380.69) scale(0.7929999999999999) rotate(0)"><path d="M10 0L20 10L10 20L0 10L10 0Z" fill="#e5efe9"/></g><rect x="435.484" y="363.384" width="66.332" height="66.332" fill="#f9f9fb"/><rect x="435.48" y="363.38" width="33.17" height="33.17" fill="#a8cfb0"/><g transform="translate(435.48,363.38) scale(1.6585) rotate(0)"><rect width="2" height="20" fill="#cce2d1"/><rect x="4" width="2" height="20" fill="#cce2d1"/><rect x="8" width="2" height="20" fill="#cce2d1"/><rect x="12" width="2" height="20" fill="#cce2d1"/><rect x="16" width="2" height="20" fill="#cce2d1"/></g><rect x="468.65" y="363.38" width="33.17" height="33.17" fill="#76b581"/><path d="M 468.65 396.55 A 33.17 33.17 0 0 0 501.82 363.38 L 468.65 363.38L468.65 396.55" fill="#afafb0"/><rect x="468.65" y="396.55" width="33.17" height="33.17" fill="#75b480"/><g transform="translate(468.65,396.55) scale(1.6585) rotate(0)"><rect width="20" height="10" fill="#e8e8e9"/></g><rect x="576.8" y="360.5" width="72.1" height="72.1" fill="#f9f9fb"/><rect x="612.85" y="360.5" width="36.05" height="36.05" fill="#696969"/><g transform="translate(612.85,360.5) scale(1.8024999999999998) rotate(0)"><path d="M10 0H20L0 20V10L10 0Z" fill="#808080"/><path d="M20 10V20H10L20 10Z" fill="#808080"/></g><rect x="800.31" y="367.71" width="57.67999999999999" height="57.67999999999999" fill="#f9f9fb"/><rect x="829.15" y="367.71" width="28.84" height="28.84" fill="#d4d4d6"/><path d="M 829.15 396.54999999999995 A 28.84 28.84 0 0 1  857.99 367.71 L 829.15 396.54999999999995 A 28.84 28.84 0 0 0 857.99 367.71" fill="#666666"/><rect x="876.7359999999999" y="372.036" width="49.02799999999999" height="49.02799999999999" fill="#f9f9fb"/><rect x="876.74" y="372.04" width="24.51" height="24.51" fill="#8b8b8b"/><g transform="translate(876.74,372.04) scale(1.2255) rotate(0)"><rect width="2" height="20" fill="#aeaeaf"/><rect x="4" width="2" height="20" fill="#aeaeaf"/><rect x="8" width="2" height="20" fill="#aeaeaf"/><rect x="12" width="2" height="20" fill="#aeaeaf"/><rect x="16" width="2" height="20" fill="#aeaeaf"/></g><rect x="876.74" y="396.55" width="24.51" height="24.51" fill="#8a8a8a"/><g transform="translate(876.74,396.55) scale(1.2255) rotate(0)"><path fill-rule="evenodd" clip-rule="evenodd" d="M10 20C15.5228 20 20 15.5228 20 10C20 4.47715 15.5228 0 10 0C4.47715 0 0 4.47715 0 10C0 15.5228 4.47715 20 10 20ZM10 17C13.866 17 17 13.866 17 10C17 6.13401 13.866 3 10 3C6.13401 3 3 6.13401 3 10C3 13.866 6.13401 17 10 17Z" fill="#3f994e"/></g><rect x="901.25" y="396.55" width="24.51" height="24.51" fill="#747474"/><circle cx="913.505" cy="408.805" r="12.255" fill="#309141"/><rect x="953.1619999999999" y="376.362" width="40.37599999999999" height="40.37599999999999" fill="#f9f9fb"/><rect x="953.16" y="376.36" width="20.19" height="20.19" fill="#cce2d2"/><g transform="translate(953.16,376.36) scale(1.0095) rotate(0)"><path d="M10 0L20 10L10 20L0 10L10 0Z" fill="#62ab6f"/></g><rect x="953.16" y="396.55" width="20.19" height="20.19" fill="#8a8a8a"/><g transform="translate(953.16,396.55) scale(1.0095) rotate(0)"><rect width="2" height="20" fill="#7bb886"/><rect x="4" width="2" height="20" fill="#7bb886"/><rect x="8" width="2" height="20" fill="#7bb886"/><rect x="12" width="2" height="20" fill="#7bb886"/><rect x="16" width="2" height="20" fill="#7bb886"/></g><rect x="1029.588" y="380.688" width="31.72399999999999" height="31.72399999999999" fill="#f9f9fb"/><rect x="1029.59" y="380.69" width="15.86" height="15.86" fill="#e3e3e5"/><circle cx="1037.52" cy="388.62" r="7.93" fill="#b5d6bc"/><rect x="1106.014" y="385.014" width="23.071999999999996" height="23.071999999999996" fill="#f9f9fb"/><rect x="1106.01" y="396.55" width="11.54" height="11.54" fill="#939393"/><g transform="translate(1106.01,396.55) scale(0.577) rotate(0)"><path d="M10 5L5 0L0 5L5 10L0 15L5 20L10 15L15 20L20 15L15 10L20 5L15 0L10 5Z" fill="#8ec298"/></g><rect x="28.84" y="461.43999999999994" width="14.419999999999995" height="14.419999999999995" fill="#f9f9fb"/><rect x="28.84" y="461.44" width="7.21" height="7.21" fill="#e5e5e7"/><g transform="translate(28.84,461.44) scale(0.3605) rotate(0)"><rect width="20" height="10" fill="#6f6f6f"/></g><rect x="36.05" y="461.44" width="7.21" height="7.21" fill="#d8e8dc"/><circle cx="39.654999999999994" cy="465.045" r="3.605" fill="#2c8f3d"/><rect x="28.84" y="468.65" width="7.21" height="7.21" fill="#acd1b3"/><g transform="translate(28.84,468.65) scale(0.3605) rotate(0)"><path d="M5 0H10L5 5L0 10V5L5 0Z" fill="#b6b6b7"/><path d="M20 15V20H15L20 15Z" fill="#b6b6b7"/><path d="M20 5V10L15 15L10 20H5L20 5Z" fill="#b6b6b7"/><path d="M15 0H20L5 15.0002L0 20.0002V15.0002L15 0Z" fill="#b6b6b7"/></g><rect x="36.05" y="468.65" width="7.21" height="7.21" fill="#b7b7b9"/><g transform="translate(36.05,468.65) scale(0.3605) rotate(0)"><path d="M10 0L20 10L10 20L0 10L10 0Z" fill="#cdcdcf"/></g><rect x="164.73408" y="453.13408" width="31.03183999999999" height="31.03183999999999" fill="#f9f9fb"/><rect x="164.73" y="453.13" width="15.52" height="15.52" fill="#a5a5a6"/><g transform="translate(164.73,453.13) scale(0.776) rotate(0)"><rect width="2" height="20" fill="#7bb886"/><rect x="4" width="2" height="20" fill="#7bb886"/><rect x="8" width="2" height="20" fill="#7bb886"/><rect x="12" width="2" height="20" fill="#7bb886"/><rect x="16" width="2" height="20" fill="#7bb886"/></g><rect x="164.73" y="468.65" width="15.52" height="15.52" fill="#c6c6c8"/><g transform="translate(164.73,468.65) scale(0.776) rotate(0)"><path d="M10 5L5 0L0 5L5 10L0 15L5 20L10 15L15 20L20 15L15 10L20 5L15 0L10 5Z" fill="#399649"/></g><rect x="180.25" y="468.65" width="15.52" height="15.52" fill="#6eb17a"/><g transform="translate(180.25,468.65) scale(0.776) rotate(0)"><rect width="20" height="2" fill="#f7f7f9"/><rect y="4" width="20" height="2" fill="#f7f7f9"/><rect y="8" width="20" height="2" fill="#f7f7f9"/><rect y="12" width="20" height="2" fill="#f7f7f9"/><rect y="16" width="20" height="2" fill="#f7f7f9"/></g><rect x="300.62816" y="444.82815999999997" width="47.64367999999999" height="47.64367999999999" fill="#f9f9fb"/><rect x="300.63" y="444.83" width="23.82" height="23.82" fill="#b2b2b3"/><g transform="translate(300.63,444.83) scale(1.191) rotate(0)"><path d="M10 0H20L0 20V10L10 0Z" fill="#d7e7dc"/><path d="M20 10V20H10L20 10Z" fill="#d7e7dc"/></g><rect x="324.45" y="444.83" width="23.82" height="23.82" fill="#c2c2c3"/><g transform="translate(324.45,444.83) scale(1.191) rotate(0)"><rect width="20" height="2" fill="#6cb078"/><rect y="4" width="20" height="2" fill="#6cb078"/><rect y="8" width="20" height="2" fill="#6cb078"/><rect y="12" width="20" height="2" fill="#6cb078"/><rect y="16" width="20" height="2" fill="#6cb078"/></g><rect x="300.63" y="468.65" width="23.82" height="23.82" fill="#eeeef0"/><g transform="translate(300.63,468.65) scale(1.191) rotate(0)"><rect width="20" height="2" fill="#f2f2f4"/><rect y="4" width="20" height="2" fill="#f2f2f4"/><rect y="8" width="20" height="2" fill="#f2f2f4"/><rect y="12" width="20" height="2" fill="#f2f2f4"/><rect y="16" width="20" height="2" fill="#f2f2f4"/></g><rect x="324.45" y="468.65" width="23.82" height="23.82" fill="#7ab785"/><polygon points="324.45,468.65 348.27,468.65 348.27,492.46999999999997" fill="#aed2b6"/><rect x="368.5752" y="440.67519999999996" width="55.94959999999999" height="55.94959999999999" fill="#f9f9fb"/><rect x="368.58" y="440.68" width="27.97" height="27.97" fill="#686868"/><g transform="translate(368.58,440.68) scale(1.3984999999999999) rotate(0)"><rect width="20" height="10" fill="#96c69f"/></g><rect x="368.58" y="468.65" width="27.97" height="27.97" fill="#858585"/><polygon points="368.58,468.65 396.54999999999995,468.65 368.58,496.62" fill="#4fa15d"/><rect x="505.8535999999999" y="433.75359999999995" width="69.7928" height="69.7928" fill="#f9f9fb"/><rect x="505.85" y="433.75" width="34.9" height="34.9" fill="#b3d5ba"/><g transform="translate(505.85,433.75) scale(1.7449999999999999) rotate(0)"><path d="M10 0L20 10L10 20L0 10L10 0Z" fill="#89898a"/></g><rect x="540.75" y="433.75" width="34.9" height="34.9" fill="#bfbfc0"/><circle cx="558.2" cy="451.2" r="17.45" fill="#1b862d"/><rect x="505.85" y="468.65" width="34.9" height="34.9" fill="#bad8c1"/><g transform="translate(505.85,468.65) scale(1.7449999999999999) rotate(0)"><path d="M10 5L5 0L0 5L5 10L0 15L5 20L10 15L15 20L20 15L15 10L20 5L15 0L10 5Z" fill="#72b37e"/></g><rect x="540.75" y="468.65" width="34.9" height="34.9" fill="#b5d6bc"/><g transform="translate(540.75,468.65) scale(1.7449999999999999) rotate(0)"><path d="M5 0H10L5 5L0 10V5L5 0Z" fill="#399649"/><path d="M20 15V20H15L20 15Z" fill="#399649"/><path d="M20 5V10L15 15L10 20H5L20 5Z" fill="#399649"/><path d="M15 0H20L5 15.0002L0 20.0002V15.0002L15 0Z" fill="#399649"/></g><rect x="724.92224" y="436.52223999999995" width="64.25551999999999" height="64.25551999999999" fill="#f9f9fb"/><rect x="724.92" y="436.52" width="32.13" height="32.13" fill="#d9d9db"/><g transform="translate(724.92,436.52) scale(1.6065) rotate(0)"><rect width="20" height="2" fill="#168429"/><rect y="4" width="20" height="2" fill="#168429"/><rect y="8" width="20" height="2" fill="#168429"/><rect y="12" width="20" height="2" fill="#168429"/><rect y="16" width="20" height="2" fill="#168429"/></g><rect x="757.05" y="436.52" width="32.13" height="32.13" fill="#bdbdbe"/><path d="M 757.05 436.52 A 32.13 32.13 0 0 1 789.18 468.65 L 757.05 468.65L757.05 436.52" fill="#83bc8e"/><rect x="724.92" y="468.65" width="32.13" height="32.13" fill="#b6d6bd"/><g transform="translate(724.92,468.65) scale(1.6065) rotate(0)"><path d="M10 5L5 0L0 5L5 10L0 15L5 20L10 15L15 20L20 15L15 10L20 5L15 0L10 5Z" fill="#9d9d9d"/></g><rect x="757.05" y="468.65" width="32.13" height="32.13" fill="#6cb078"/><g transform="translate(757.05,468.65) scale(1.6065) rotate(0)"><path d="M19.9981 0.00193429L3.72652 -7.68637e-07L8.4784 4.75382L0 13.2345L6.76585 20L15.2462 11.5208L20 16.2746L19.9981 0.00193429Z" fill="#62ab6f"/></g><rect x="801.1751999999999" y="440.67519999999996" width="55.94959999999999" height="55.94959999999999" fill="#f9f9fb"/><rect x="829.15" y="468.65" width="27.97" height="27.97" fill="#9f9fa0"/><g transform="translate(829.15,468.65) scale(1.3984999999999999) rotate(0)"><path d="M10 0H20L0 20V10L10 0Z" fill="#848484"/><path d="M20 10V20H10L20 10Z" fill="#848484"/></g><rect x="877.4281599999999" y="444.82815999999997" width="47.64367999999999" height="47.64367999999999" fill="#f9f9fb"/><rect x="901.25" y="444.83" width="23.82" height="23.82" fill="#757575"/><g transform="translate(901.25,444.83) scale(1.191) rotate(0)"><path d="M5 0H10L5 5L0 10V5L5 0Z" fill="#61aa6e"/><path d="M20 15V20H15L20 15Z" fill="#61aa6e"/><path d="M20 5V10L15 15L10 20H5L20 5Z" fill="#61aa6e"/><path d="M15 0H20L5 15.0002L0 20.0002V15.0002L15 0Z" fill="#61aa6e"/></g><rect x="877.43" y="468.65" width="23.82" height="23.82" fill="#6eb17a"/><polygon points="901.25,468.65 901.25,492.46999999999997 877.43,492.46999999999997" fill="#a4a4a4"/><rect x="901.25" y="468.65" width="23.82" height="23.82" fill="#1e8830"/><g transform="translate(901.25,468.65) scale(1.191) rotate(0)"><path d="M19.9981 0.00193429L3.72652 -7.68637e-07L8.4784 4.75382L0 13.2345L6.76585 20L15.2462 11.5208L20 16.2746L19.9981 0.00193429Z" fill="#616161"/></g><rect x="1106.18704" y="457.28704" width="22.725919999999995" height="22.725919999999995" fill="#f9f9fb"/><rect x="1106.19" y="457.29" width="11.36" height="11.36" fill="#d9d9da"/><polygon points="1106.19,457.29 1117.55,457.29 1117.55,468.65000000000003" fill="#c0c0c1"/><rect x="1117.55" y="457.29" width="11.36" height="11.36" fill="#298d3a"/><g transform="translate(1117.55,457.29) scale(0.568) rotate(0)"><rect width="20" height="2" fill="#a4a4a5"/><rect y="4" width="20" height="2" fill="#a4a4a5"/><rect y="8" width="20" height="2" fill="#a4a4a5"/><rect y="12" width="20" height="2" fill="#a4a4a5"/><rect y="16" width="20" height="2" fill="#a4a4a5"/></g><rect x="1106.19" y="468.65" width="11.36" height="11.36" fill="#767676"/><g transform="translate(1106.19,468.65) scale(0.568) rotate(0)"><path d="M10 0H20L0 20V10L10 0Z" fill="#848484"/><path d="M20 10V20H10L20 10Z" fill="#848484"/></g><rect x="1117.55" y="468.65" width="11.36" height="11.36" fill="#5aa768"/><circle cx="1123.23" cy="474.33" r="5.68" fill="#8b8b8b"/><rect x="28.84" y="533.54" width="14.419999999999995" height="14.419999999999995" fill="#f9f9fb"/><rect x="28.84" y="533.54" width="7.21" height="7.21" fill="#cccccd"/><path d="M 28.84 533.54 A 7.21 7.21 0 0 1 36.05 540.75 L 28.84 540.75L28.84 533.54" fill="#6e6e6e"/><rect x="36.05" y="533.54" width="7.21" height="7.21" fill="#7fba89"/><path d="M 36.05 540.75 A 7.21 7.21 0 0 1  43.26 533.54 L 36.05 540.75 A 7.21 7.21 0 0 0 43.26 533.54" fill="#b8b8b9"/><rect x="28.84" y="540.75" width="7.21" height="7.21" fill="#96c69f"/><polygon points="36.05,540.75 36.05,547.96 28.84,547.96" fill="#087c1b"/><rect x="166.81055999999998" y="527.3105599999999" width="26.878879999999995" height="26.878879999999995" fill="#f9f9fb"/><rect x="166.81" y="527.31" width="13.44" height="13.44" fill="#7f7f80"/><g transform="translate(166.81,527.31) scale(0.6719999999999999) rotate(0)"><path d="M10 5L5 0L0 5L5 10L0 15L5 20L10 15L15 20L20 15L15 10L20 5L15 0L10 5Z" fill="#bababb"/></g><rect x="180.25" y="527.31" width="13.44" height="13.44" fill="#c4deca"/><g transform="translate(180.25,527.31) scale(0.6719999999999999) rotate(0)"><path d="M10 0H20L0 20V10L10 0Z" fill="#4da05b"/><path d="M20 10V20H10L20 10Z" fill="#4da05b"/></g><rect x="180.25" y="540.75" width="13.44" height="13.44" fill="#a7a7a8"/><g transform="translate(180.25,540.75) scale(0.6719999999999999) rotate(0)"><rect width="20" height="10" fill="#469c55"/></g><rect x="235.79584" y="524.19584" width="33.10831999999999" height="33.10831999999999" fill="#f9f9fb"/><rect x="235.8" y="524.2" width="16.55" height="16.55" fill="#bdbdbe"/><g transform="translate(235.8,524.2) scale(0.8275) rotate(0)"><path d="M10 0L20 10L10 20L0 10L10 0Z" fill="#bcbcbd"/></g><rect x="235.8" y="540.75" width="16.55" height="16.55" fill="#898989"/><g transform="translate(235.8,540.75) scale(0.8275) rotate(0)"><rect width="20" height="10" fill="#9bc8a4"/></g><rect x="252.35" y="540.75" width="16.55" height="16.55" fill="#e8f0eb"/><path d="M 252.35 540.75 A 16.55 16.55 0 0 1  268.9 557.3 L 252.35 540.75 A 16.55 16.55 0 0 0 268.9 557.3" fill="#85bd8f"/><rect x="373.7664" y="517.9663999999999" width="45.5672" height="45.5672" fill="#f9f9fb"/><rect x="373.77" y="517.97" width="22.78" height="22.78" fill="#7c7c7d"/><g transform="translate(373.77,517.97) scale(1.139) rotate(0)"><path d="M5 0H10L5 5L0 10V5L5 0Z" fill="#b3d5ba"/><path d="M20 15V20H15L20 15Z" fill="#b3d5ba"/><path d="M20 5V10L15 15L10 20H5L20 5Z" fill="#b3d5ba"/><path d="M15 0H20L5 15.0002L0 20.0002V15.0002L15 0Z" fill="#b3d5ba"/></g><rect x="396.55" y="517.97" width="22.78" height="22.78" fill="#79b784"/><path d="M 396.55 517.97 A 22.78 22.78 0 0 1  419.33000000000004 540.75 L 396.55 517.97 A 22.78 22.78 0 0 0 419.33000000000004 540.75" fill="#757575"/><rect x="396.55" y="540.75" width="22.78" height="22.78" fill="#b2b2b3"/><g transform="translate(396.55,540.75) scale(1.139) rotate(0)"><rect width="20" height="2" fill="#c3c3c4"/><rect y="4" width="20" height="2" fill="#c3c3c4"/><rect y="8" width="20" height="2" fill="#c3c3c4"/><rect y="12" width="20" height="2" fill="#c3c3c4"/><rect y="16" width="20" height="2" fill="#c3c3c4"/></g><rect x="442.75167999999996" y="514.85168" width="51.79663999999999" height="51.79663999999999" fill="#f9f9fb"/><rect x="442.75" y="514.85" width="25.9" height="25.9" fill="#77b683"/><g transform="translate(442.75,514.85) scale(1.295) rotate(0)"><path fill-rule="evenodd" clip-rule="evenodd" d="M10 20C15.5228 20 20 15.5228 20 10C20 4.47715 15.5228 0 10 0C4.47715 0 0 4.47715 0 10C0 15.5228 4.47715 20 10 20ZM10 17C13.866 17 17 13.866 17 10C17 6.13401 13.866 3 10 3C6.13401 3 3 6.13401 3 10C3 13.866 6.13401 17 10 17Z" fill="#cececf"/></g><rect x="468.65" y="514.85" width="25.9" height="25.9" fill="#b4d5bb"/><g transform="translate(468.65,514.85) scale(1.295) rotate(0)"><path d="M10 5L5 0L0 5L5 10L0 15L5 20L10 15L15 20L20 15L15 10L20 5L15 0L10 5Z" fill="#9b9b9c"/></g><rect x="442.75" y="540.75" width="25.9" height="25.9" fill="#a2a2a3"/><circle cx="455.7" cy="553.7" r="12.95" fill="#7a7a7a"/><rect x="468.65" y="540.75" width="25.9" height="25.9" fill="#acd1b3"/><circle cx="481.59999999999997" cy="553.7" r="12.95" fill="#d7d7d9"/><rect x="656.9752" y="512.7751999999999" width="55.94959999999999" height="55.94959999999999" fill="#f9f9fb"/><rect x="684.95" y="512.78" width="27.97" height="27.97" fill="#a6ceae"/><g transform="translate(684.95,512.78) scale(1.3984999999999999) rotate(0)"><path d="M10 0L20 10L10 20L0 10L10 0Z" fill="#c7c7c8"/></g><rect x="656.98" y="540.75" width="27.97" height="27.97" fill="#bababb"/><path d="M 656.98 568.72 A 27.97 27.97 0 0 1  684.95 540.75 L 656.98 568.72 A 27.97 27.97 0 0 0 684.95 540.75" fill="#e3e3e5"/><rect x="684.95" y="540.75" width="27.97" height="27.97" fill="#d4e6d8"/><path d="M 684.95 540.75 A 27.97 27.97 0 0 1  712.9200000000001 568.72 L 684.95 540.75 A 27.97 27.97 0 0 0 712.9200000000001 568.72" fill="#4a9f59"/><rect x="731.15168" y="514.85168" width="51.79663999999999" height="51.79663999999999" fill="#f9f9fb"/><rect x="757.05" y="514.85" width="25.9" height="25.9" fill="#ddebe1"/><path d="M 757.05 540.75 A 25.9 25.9 0 0 0 782.9499999999999 514.85 L 757.05 514.85L757.05 540.75" fill="#9ecaa6"/><rect x="757.05" y="540.75" width="25.9" height="25.9" fill="#858585"/><g transform="translate(757.05,540.75) scale(1.295) rotate(0)"><rect width="20" height="2" fill="#d9d9db"/><rect y="4" width="20" height="2" fill="#d9d9db"/><rect y="8" width="20" height="2" fill="#d9d9db"/><rect y="12" width="20" height="2" fill="#d9d9db"/><rect y="16" width="20" height="2" fill="#d9d9db"/></g><rect x="806.3663999999999" y="517.9663999999999" width="45.5672" height="45.5672" fill="#f9f9fb"/><rect x="829.15" y="517.97" width="22.78" height="22.78" fill="#b4b4b5"/><polygon points="829.15,517.97 851.93,517.97 829.15,540.75" fill="#3e984d"/><rect x="806.37" y="540.75" width="22.78" height="22.78" fill="#329242"/><g transform="translate(806.37,540.75) scale(1.139) rotate(0)"><path fill-rule="evenodd" clip-rule="evenodd" d="M10 20C15.5228 20 20 15.5228 20 10C20 4.47715 15.5228 0 10 0C4.47715 0 0 4.47715 0 10C0 15.5228 4.47715 20 10 20ZM10 17C13.866 17 17 13.866 17 10C17 6.13401 13.866 3 10 3C6.13401 3 3 6.13401 3 10C3 13.866 6.13401 17 10 17Z" fill="#adadae"/></g><rect x="829.15" y="540.75" width="22.78" height="22.78" fill="#afafb0"/><path d="M 829.15 540.75 A 22.78 22.78 0 0 1  851.93 563.53 L 829.15 540.75 A 22.78 22.78 0 0 0 851.93 563.53" fill="#67ad74"/><rect x="881.5811199999999" y="521.0811199999999" width="39.337759999999996" height="39.337759999999996" fill="#f9f9fb"/><rect x="881.58" y="521.08" width="19.67" height="19.67" fill="#787878"/><g transform="translate(881.58,521.08) scale(0.9835) rotate(0)"><rect width="20" height="10" fill="#717171"/></g><rect x="881.58" y="540.75" width="19.67" height="19.67" fill="#a9d0b1"/><path d="M 881.58 560.42 A 19.67 19.67 0 0 1  901.25 540.75 L 901.25 560.42L881.58 560.42" fill="#499e58"/><rect x="956.79584" y="524.19584" width="33.10831999999999" height="33.10831999999999" fill="#f9f9fb"/><rect x="956.8" y="540.75" width="16.55" height="16.55" fill="#4da05b"/><circle cx="965.0749999999999" cy="549.025" r="8.275" fill="#087c1b"/><rect x="973.35" y="540.75" width="16.55" height="16.55" fill="#94c59d"/><path d="M 973.35 557.3 A 16.55 16.55 0 0 1  989.9 540.75 L 973.35 557.3 A 16.55 16.55 0 0 0 989.9 540.75" fill="#89898a"/><rect x="1107.22528" y="530.4252799999999" width="20.64944" height="20.64944" fill="#f9f9fb"/><rect x="1107.23" y="530.43" width="10.32" height="10.32" fill="#b0d3b7"/><g transform="translate(1107.23,530.43) scale(0.516) rotate(0)"><path fill-rule="evenodd" clip-rule="evenodd" d="M10 20C15.5228 20 20 15.5228 20 10C20 4.47715 15.5228 0 10 0C4.47715 0 0 4.47715 0 10C0 15.5228 4.47715 20 10 20ZM10 17C13.866 17 17 13.866 17 10C17 6.13401 13.866 3 10 3C6.13401 3 3 6.13401 3 10C3 13.866 6.13401 17 10 17Z" fill="#67ad74"/></g><rect x="1107.23" y="540.75" width="10.32" height="10.32" fill="#c7dfcd"/><circle cx="1112.39" cy="545.91" r="5.16" fill="#59a667"/><rect x="28.84" y="605.64" width="14.419999999999995" height="14.419999999999995" fill="#f9f9fb"/><rect x="36.05" y="612.85" width="7.21" height="7.21" fill="#bbbbbc"/><path d="M 36.05 612.85 A 7.21 7.21 0 0 1 43.26 620.0600000000001 L 36.05 620.0600000000001L36.05 612.85" fill="#75b480"/><rect x="98.86352" y="603.5635199999999" width="18.572959999999995" height="18.572959999999995" fill="#f9f9fb"/><rect x="98.86" y="603.56" width="9.29" height="9.29" fill="#b7b7b8"/><g transform="translate(98.86,603.56) scale(0.46449999999999997) rotate(0)"><path fill-rule="evenodd" clip-rule="evenodd" d="M10 20C15.5228 20 20 15.5228 20 10C20 4.47715 15.5228 0 10 0C4.47715 0 0 4.47715 0 10C0 15.5228 4.47715 20 10 20ZM10 17C13.866 17 17 13.866 17 10C17 6.13401 13.866 3 10 3C6.13401 3 3 6.13401 3 10C3 13.866 6.13401 17 10 17Z" fill="#b8d7be"/></g><rect x="108.15" y="603.56" width="9.29" height="9.29" fill="#7bb886"/><g transform="translate(108.15,603.56) scale(0.46449999999999997) rotate(0)"><path d="M5 0H10L5 5L0 10V5L5 0Z" fill="#419a51"/><path d="M20 15V20H15L20 15Z" fill="#419a51"/><path d="M20 5V10L15 15L10 20H5L20 5Z" fill="#419a51"/><path d="M15 0H20L5 15.0002L0 20.0002V15.0002L15 0Z" fill="#419a51"/></g><rect x="98.86" y="612.85" width="9.29" height="9.29" fill="#6db179"/><g transform="translate(98.86,612.85) scale(0.46449999999999997) rotate(0)"><path d="M10 0H20L0 20V10L10 0Z" fill="#aed2b5"/><path d="M20 10V20H10L20 10Z" fill="#aed2b5"/></g><rect x="308.93408" y="597.33408" width="31.03183999999999" height="31.03183999999999" fill="#f9f9fb"/><rect x="324.45" y="597.33" width="15.52" height="15.52" fill="#c7dfcd"/><g transform="translate(324.45,597.33) scale(0.776) rotate(0)"><path d="M10 0L20 10L10 20L0 10L10 0Z" fill="#53a361"/></g><rect x="324.45" y="612.85" width="15.52" height="15.52" fill="#989898"/><g transform="translate(324.45,612.85) scale(0.776) rotate(0)"><rect width="20" height="2" fill="#b2b2b3"/><rect y="4" width="20" height="2" fill="#b2b2b3"/><rect y="8" width="20" height="2" fill="#b2b2b3"/><rect y="12" width="20" height="2" fill="#b2b2b3"/><rect y="16" width="20" height="2" fill="#b2b2b3"/></g><rect x="448.98112" y="593.18112" width="39.337759999999996" height="39.337759999999996" fill="#f9f9fb"/><rect x="448.98" y="593.18" width="19.67" height="19.67" fill="#e4e4e6"/><polygon points="448.98,593.18 468.65000000000003,593.18 468.65000000000003,612.8499999999999" fill="#c5c5c6"/><rect x="468.65" y="612.85" width="19.67" height="19.67" fill="#5ca869"/><path d="M 468.65 612.85 A 19.67 19.67 0 0 0 488.32 632.52 L 488.32 612.85L468.65 612.85" fill="#ececee"/><rect x="519.6967999999999" y="591.7968" width="42.106399999999994" height="42.106399999999994" fill="#f9f9fb"/><rect x="540.75" y="591.8" width="21.05" height="21.05" fill="#7e7e7e"/><g transform="translate(540.75,591.8) scale(1.0525) rotate(0)"><path d="M10 5L5 0L0 5L5 10L0 15L5 20L10 15L15 20L20 15L15 10L20 5L15 0L10 5Z" fill="#d3d3d5"/></g><rect x="519.7" y="612.85" width="21.05" height="21.05" fill="#298d3a"/><g transform="translate(519.7,612.85) scale(1.0525) rotate(0)"><path d="M10 0L20 10L10 20L0 10L10 0Z" fill="#d3e5d7"/></g><rect x="540.75" y="612.85" width="21.05" height="21.05" fill="#d1d1d3"/><polygon points="561.8,612.85 561.8,633.9 540.75,633.9" fill="#97c6a0"/><rect x="591.7968" y="591.7968" width="42.106399999999994" height="42.106399999999994" fill="#f9f9fb"/><rect x="591.8" y="591.8" width="21.05" height="21.05" fill="#ebf2ee"/><g transform="translate(591.8,591.8) scale(1.0525) rotate(0)"><rect width="20" height="2" fill="#82bb8c"/><rect y="4" width="20" height="2" fill="#82bb8c"/><rect y="8" width="20" height="2" fill="#82bb8c"/><rect y="12" width="20" height="2" fill="#82bb8c"/><rect y="16" width="20" height="2" fill="#82bb8c"/></g><rect x="612.85" y="612.85" width="21.05" height="21.05" fill="#c1c1c2"/><g transform="translate(612.85,612.85) scale(1.0525) rotate(0)"><path d="M10 0H20L0 20V10L10 0Z" fill="#c1c1c3"/><path d="M20 10V20H10L20 10Z" fill="#c1c1c3"/></g><rect x="663.8968" y="591.7968" width="42.106399999999994" height="42.106399999999994" fill="#f9f9fb"/><rect x="663.9" y="591.8" width="21.05" height="21.05" fill="#74b480"/><g transform="translate(663.9,591.8) scale(1.0525) rotate(0)"><rect width="20" height="10" fill="#82bb8d"/></g><rect x="684.95" y="591.8" width="21.05" height="21.05" fill="#7eba89"/><polygon points="706,591.8 706,612.8499999999999 684.95,612.8499999999999" fill="#cde2d2"/><rect x="663.9" y="612.85" width="21.05" height="21.05" fill="#cbcbcc"/><g transform="translate(663.9,612.85) scale(1.0525) rotate(0)"><path d="M19.9981 0.00193429L3.72652 -7.68637e-07L8.4784 4.75382L0 13.2345L6.76585 20L15.2462 11.5208L20 16.2746L19.9981 0.00193429Z" fill="#69696a"/></g><rect x="684.95" y="612.85" width="21.05" height="21.05" fill="#8e8e8e"/><g transform="translate(684.95,612.85) scale(1.0525) rotate(0)"><path d="M10 0H20L0 20V10L10 0Z" fill="#dedee0"/><path d="M20 10V20H10L20 10Z" fill="#dedee0"/></g><rect x="737.38112" y="593.18112" width="39.337759999999996" height="39.337759999999996" fill="#f9f9fb"/><rect x="757.05" y="612.85" width="19.67" height="19.67" fill="#309140"/><g transform="translate(757.05,612.85) scale(0.9835) rotate(0)"><path d="M10 5L5 0L0 5L5 10L0 15L5 20L10 15L15 20L20 15L15 10L20 5L15 0L10 5Z" fill="#2d8f3d"/></g><rect x="885.73408" y="597.33408" width="31.03183999999999" height="31.03183999999999" fill="#f9f9fb"/><rect x="901.25" y="597.33" width="15.52" height="15.52" fill="#f2f2f4"/><g transform="translate(901.25,597.33) scale(0.776) rotate(0)"><path d="M5 0H10L5 5L0 10V5L5 0Z" fill="#5ca869"/><path d="M20 15V20H15L20 15Z" fill="#5ca869"/><path d="M20 5V10L15 15L10 20H5L20 5Z" fill="#5ca869"/><path d="M15 0H20L5 15.0002L0 20.0002V15.0002L15 0Z" fill="#5ca869"/></g><rect x="959.9105599999999" y="599.4105599999999" width="26.878879999999995" height="26.878879999999995" fill="#f9f9fb"/><rect x="973.35" y="599.41" width="13.44" height="13.44" fill="#acacad"/><g transform="translate(973.35,599.41) scale(0.6719999999999999) rotate(0)"><path fill-rule="evenodd" clip-rule="evenodd" d="M10 20C15.5228 20 20 15.5228 20 10C20 4.47715 15.5228 0 10 0C4.47715 0 0 4.47715 0 10C0 15.5228 4.47715 20 10 20ZM10 17C13.866 17 17 13.866 17 10C17 6.13401 13.866 3 10 3C6.13401 3 3 6.13401 3 10C3 13.866 6.13401 17 10 17Z" fill="#abd1b3"/></g><rect x="959.91" y="612.85" width="13.44" height="13.44" fill="#75b581"/><g transform="translate(959.91,612.85) scale(0.6719999999999999) rotate(0)"><rect width="2" height="20" fill="#228a34"/><rect x="4" width="2" height="20" fill="#228a34"/><rect x="8" width="2" height="20" fill="#228a34"/><rect x="12" width="2" height="20" fill="#228a34"/><rect x="16" width="2" height="20" fill="#228a34"/></g><rect x="1034.08704" y="601.48704" width="22.725919999999995" height="22.725919999999995" fill="#f9f9fb"/><rect x="1034.09" y="601.49" width="11.36" height="11.36" fill="#71b37d"/><g transform="translate(1034.09,601.49) scale(0.568) rotate(0)"><path d="M10 5L5 0L0 5L5 10L0 15L5 20L10 15L15 20L20 15L15 10L20 5L15 0L10 5Z" fill="#656565"/></g><rect x="1034.09" y="612.85" width="11.36" height="11.36" fill="#7bb886"/><path d="M 1034.09 624.21 A 11.36 11.36 0 0 1  1045.4499999999998 612.85 L 1045.4499999999998 624.21L1034.09 624.21" fill="#dcdcde"/><rect x="1045.45" y="612.85" width="11.36" height="11.36" fill="#c9e0ce"/><path d="M 1045.45 624.21 A 11.36 11.36 0 0 1  1056.81 612.85 L 1045.45 624.21 A 11.36 11.36 0 0 0 1056.81 612.85" fill="#bfdbc5"/><rect x="1108.26352" y="603.5635199999999" width="18.572959999999995" height="18.572959999999995" fill="#f9f9fb"/><rect x="1108.26" y="603.56" width="9.29" height="9.29" fill="#bababc"/><g transform="translate(1108.26,603.56) scale(0.46449999999999997) rotate(0)"><path d="M5 0H10L5 5L0 10V5L5 0Z" fill="#f5f5f7"/><path d="M20 15V20H15L20 15Z" fill="#f5f5f7"/><path d="M20 5V10L15 15L10 20H5L20 5Z" fill="#f5f5f7"/><path d="M15 0H20L5 15.0002L0 20.0002V15.0002L15 0Z" fill="#f5f5f7"/></g><rect x="1108.26" y="612.85" width="9.29" height="9.29" fill="#dfece3"/><g transform="translate(1108.26,612.85) scale(0.46449999999999997) rotate(0)"><rect width="20" height="2" fill="#dddddf"/><rect y="4" width="20" height="2" fill="#dddddf"/><rect y="8" width="20" height="2" fill="#dddddf"/><rect y="12" width="20" height="2" fill="#dddddf"/><rect y="16" width="20" height="2" fill="#dddddf"/></g><rect x="170.96352" y="675.66352" width="18.572959999999995" height="18.572959999999995" fill="#f9f9fb"/><rect x="180.25" y="675.66" width="9.29" height="9.29" fill="#cbe1d0"/><g transform="translate(180.25,675.66) scale(0.46449999999999997) rotate(0)"><rect width="20" height="10" fill="#e8e8e9"/></g><rect x="170.96" y="684.95" width="9.29" height="9.29" fill="#7bb886"/><path d="M 170.96 684.95 A 9.29 9.29 0 0 1  180.25 694.24 L 170.96 684.95 A 9.29 9.29 0 0 0 180.25 694.24" fill="#f4f6f6"/><rect x="180.25" y="684.95" width="9.29" height="9.29" fill="#c7dfcd"/><g transform="translate(180.25,684.95) scale(0.46449999999999997) rotate(0)"><path d="M10 5L5 0L0 5L5 10L0 15L5 20L10 15L15 20L20 15L15 10L20 5L15 0L10 5Z" fill="#7e7e7f"/></g><rect x="242.02527999999998" y="674.62528" width="20.64944" height="20.64944" fill="#f9f9fb"/><rect x="242.03" y="674.63" width="10.32" height="10.32" fill="#888888"/><g transform="translate(242.03,674.63) scale(0.516) rotate(0)"><rect width="20" height="10" fill="#0a7d1d"/></g><rect x="252.35" y="674.63" width="10.32" height="10.32" fill="#f4f4f6"/><circle cx="257.51" cy="679.79" r="5.16" fill="#7ab786"/><rect x="242.03" y="684.95" width="10.32" height="10.32" fill="#75b480"/><g transform="translate(242.03,684.95) scale(0.516) rotate(0)"><rect width="20" height="10" fill="#9c9c9c"/></g><rect x="252.35" y="684.95" width="10.32" height="10.32" fill="#dfdfe0"/><circle cx="257.51" cy="690.11" r="5.16" fill="#6cb078"/><rect x="384.1488" y="672.5488" width="24.80239999999999" height="24.80239999999999" fill="#f9f9fb"/><rect x="384.15" y="672.55" width="12.4" height="12.4" fill="#4fa15e"/><g transform="translate(384.15,672.55) scale(0.62) rotate(0)"><rect width="20" height="10" fill="#757576"/></g><rect x="384.15" y="684.95" width="12.4" height="12.4" fill="#d3d3d5"/><g transform="translate(384.15,684.95) scale(0.62) rotate(0)"><path d="M10 0H20L0 20V10L10 0Z" fill="#d9d9db"/><path d="M20 10V20H10L20 10Z" fill="#d9d9db"/></g><rect x="526.6184" y="670.8184" width="28.26319999999999" height="28.26319999999999" fill="#f9f9fb"/><rect x="526.62" y="670.82" width="14.13" height="14.13" fill="#8f8f8f"/><g transform="translate(526.62,670.82) scale(0.7065) rotate(0)"><path d="M5 0H10L5 5L0 10V5L5 0Z" fill="#d7d7d8"/><path d="M20 15V20H15L20 15Z" fill="#d7d7d8"/><path d="M20 5V10L15 15L10 20H5L20 5Z" fill="#d7d7d8"/><path d="M15 0H20L5 15.0002L0 20.0002V15.0002L15 0Z" fill="#d7d7d8"/></g><rect x="540.75" y="670.82" width="14.13" height="14.13" fill="#b3d5ba"/><g transform="translate(540.75,670.82) scale(0.7065) rotate(0)"><path d="M10 0H20L0 20V10L10 0Z" fill="#2f903f"/><path d="M20 10V20H10L20 10Z" fill="#2f903f"/></g><rect x="526.62" y="684.95" width="14.13" height="14.13" fill="#bcbcbd"/><path d="M 526.62 699.08 A 14.13 14.13 0 0 1  540.75 684.95 L 526.62 699.08 A 14.13 14.13 0 0 0 540.75 684.95" fill="#6f6f6f"/><rect x="540.75" y="684.95" width="14.13" height="14.13" fill="#919192"/><path d="M 540.75 699.08 A 14.13 14.13 0 0 1  554.88 684.95 L 540.75 699.08 A 14.13 14.13 0 0 0 554.88 684.95" fill="#c0c0c1"/><rect x="670.8184" y="670.8184" width="28.26319999999999" height="28.26319999999999" fill="#f9f9fb"/><rect x="670.82" y="670.82" width="14.13" height="14.13" fill="#f4f4f5"/><g transform="translate(670.82,670.82) scale(0.7065) rotate(0)"><path d="M10 0L20 10L10 20L0 10L10 0Z" fill="#cbe1d0"/></g><rect x="684.95" y="670.82" width="14.13" height="14.13" fill="#52a260"/><g transform="translate(684.95,670.82) scale(0.7065) rotate(0)"><path d="M5 0H10L5 5L0 10V5L5 0Z" fill="#a5a5a6"/><path d="M20 15V20H15L20 15Z" fill="#a5a5a6"/><path d="M20 5V10L15 15L10 20H5L20 5Z" fill="#a5a5a6"/><path d="M15 0H20L5 15.0002L0 20.0002V15.0002L15 0Z" fill="#a5a5a6"/></g><rect x="670.82" y="684.95" width="14.13" height="14.13" fill="#017915"/><g transform="translate(670.82,684.95) scale(0.7065) rotate(0)"><path d="M5 0H10L5 5L0 10V5L5 0Z" fill="#cacacb"/><path d="M20 15V20H15L20 15Z" fill="#cacacb"/><path d="M20 5V10L15 15L10 20H5L20 5Z" fill="#cacacb"/><path d="M15 0H20L5 15.0002L0 20.0002V15.0002L15 0Z" fill="#cacacb"/></g><rect x="684.95" y="684.95" width="14.13" height="14.13" fill="#228933"/><g transform="translate(684.95,684.95) scale(0.7065) rotate(0)"><rect width="2" height="20" fill="#b8b8b9"/><rect x="4" width="2" height="20" fill="#b8b8b9"/><rect x="8" width="2" height="20" fill="#b8b8b9"/><rect x="12" width="2" height="20" fill="#b8b8b9"/><rect x="16" width="2" height="20" fill="#b8b8b9"/></g><rect x="743.61056" y="671.5105599999999" width="26.878879999999988" height="26.878879999999988" fill="#f9f9fb"/><rect x="743.61" y="671.51" width="13.44" height="13.44" fill="#76b581"/><path d="M 743.61 684.95 A 13.44 13.44 0 0 1  757.0500000000001 671.51 L 757.0500000000001 684.95L743.61 684.95" fill="#0a7d1d"/><rect x="757.05" y="671.51" width="13.44" height="13.44" fill="#686868"/><g transform="translate(757.05,671.51) scale(0.6719999999999999) rotate(0)"><path fill-rule="evenodd" clip-rule="evenodd" d="M10 20C15.5228 20 20 15.5228 20 10C20 4.47715 15.5228 0 10 0C4.47715 0 0 4.47715 0 10C0 15.5228 4.47715 20 10 20ZM10 17C13.866 17 17 13.866 17 10C17 6.13401 13.866 3 10 3C6.13401 3 3 6.13401 3 10C3 13.866 6.13401 17 10 17Z" fill="#ededee"/></g><rect x="743.61" y="684.95" width="13.44" height="13.44" fill="#228a34"/><g transform="translate(743.61,684.95) scale(0.6719999999999999) rotate(0)"><path d="M19.9981 0.00193429L3.72652 -7.68637e-07L8.4784 4.75382L0 13.2345L6.76585 20L15.2462 11.5208L20 16.2746L19.9981 0.00193429Z" fill="#686868"/></g><rect x="757.05" y="684.95" width="13.44" height="13.44" fill="#c9e0cf"/><g transform="translate(757.05,684.95) scale(0.6719999999999999) rotate(0)"><rect width="20" height="2" fill="#208932"/><rect y="4" width="20" height="2" fill="#208932"/><rect y="8" width="20" height="2" fill="#208932"/><rect y="12" width="20" height="2" fill="#208932"/><rect y="16" width="20" height="2" fill="#208932"/></g><rect x="816.7488" y="672.5488" width="24.80239999999999" height="24.80239999999999" fill="#f9f9fb"/><rect x="816.75" y="672.55" width="12.4" height="12.4" fill="#7cb887"/><polygon points="829.15,672.55 829.15,684.9499999999999 816.75,684.9499999999999" fill="#949495"/><rect x="829.15" y="672.55" width="12.4" height="12.4" fill="#f1f5f4"/><g transform="translate(829.15,672.55) scale(0.62) rotate(0)"><rect width="20" height="2" fill="#cacacb"/><rect y="4" width="20" height="2" fill="#cacacb"/><rect y="8" width="20" height="2" fill="#cacacb"/><rect y="12" width="20" height="2" fill="#cacacb"/><rect y="16" width="20" height="2" fill="#cacacb"/></g><rect x="816.75" y="684.95" width="12.4" height="12.4" fill="#a1a1a2"/><path d="M 816.75 684.95 A 12.4 12.4 0 0 0 829.15 697.35 L 829.15 684.95L816.75 684.95" fill="#148327"/><rect x="829.15" y="684.95" width="12.4" height="12.4" fill="#939394"/><polygon points="829.15,684.95 841.55,684.95 841.55,697.35" fill="#e5e5e7"/><rect x="963.02528" y="674.62528" width="20.64944" height="20.64944" fill="#f9f9fb"/><rect x="963.03" y="674.63" width="10.32" height="10.32" fill="#bad8c1"/><g transform="translate(963.03,674.63) scale(0.516) rotate(0)"><rect width="20" height="10" fill="#f8f8fa"/></g><rect x="973.35" y="674.63" width="10.32" height="10.32" fill="#a1a1a1"/><g transform="translate(973.35,674.63) scale(0.516) rotate(0)"><rect width="20" height="2" fill="#929293"/><rect y="4" width="20" height="2" fill="#929293"/><rect y="8" width="20" height="2" fill="#929293"/><rect y="12" width="20" height="2" fill="#929293"/><rect y="16" width="20" height="2" fill="#929293"/></g><rect x="963.03" y="684.95" width="10.32" height="10.32" fill="#787879"/><circle cx="968.1899999999999" cy="690.11" r="5.16" fill="#b9b9ba"/><rect x="1036.1635199999998" y="675.66352" width="18.572959999999995" height="18.572959999999995" fill="#f9f9fb"/><rect x="1045.45" y="675.66" width="9.29" height="9.29" fill="#f1f1f2"/><g transform="translate(1045.45,675.66) scale(0.46449999999999997) rotate(0)"><path fill-rule="evenodd" clip-rule="evenodd" d="M10 20C15.5228 20 20 15.5228 20 10C20 4.47715 15.5228 0 10 0C4.47715 0 0 4.47715 0 10C0 15.5228 4.47715 20 10 20ZM10 17C13.866 17 17 13.866 17 10C17 6.13401 13.866 3 10 3C6.13401 3 3 6.13401 3 10C3 13.866 6.13401 17 10 17Z" fill="#777777"/></g><rect x="1036.16" y="684.95" width="9.29" height="9.29" fill="#288d39"/><g transform="translate(1036.16,684.95) scale(0.46449999999999997) rotate(0)"><rect width="20" height="2" fill="#7ab785"/><rect y="4" width="20" height="2" fill="#7ab785"/><rect y="8" width="20" height="2" fill="#7ab785"/><rect y="12" width="20" height="2" fill="#7ab785"/><rect y="16" width="20" height="2" fill="#7ab785"/></g><rect x="1045.45" y="684.95" width="9.29" height="9.29" fill="#b0d3b7"/><path d="M 1045.45 684.95 A 9.29 9.29 0 0 1 1054.74 694.24 L 1045.45 694.24L1045.45 684.95" fill="#636363"/><rect x="1109.30176" y="676.7017599999999" width="16.49648" height="16.49648" fill="#f9f9fb"/><rect x="1117.55" y="676.7" width="8.25" height="8.25" fill="#c0c0c1"/><g transform="translate(1117.55,676.7) scale(0.4125) rotate(0)"><path d="M19.9981 0.00193429L3.72652 -7.68637e-07L8.4784 4.75382L0 13.2345L6.76585 20L15.2462 11.5208L20 16.2746L19.9981 0.00193429Z" fill="#b0b0b1"/></g><rect x="1109.3" y="684.95" width="8.25" height="8.25" fill="#f3f3f5"/><g transform="translate(1109.3,684.95) scale(0.4125) rotate(0)"><path fill-rule="evenodd" clip-rule="evenodd" d="M10 20C15.5228 20 20 15.5228 20 10C20 4.47715 15.5228 0 10 0C4.47715 0 0 4.47715 0 10C0 15.5228 4.47715 20 10 20ZM10 17C13.866 17 17 13.866 17 10C17 6.13401 13.866 3 10 3C6.13401 3 3 6.13401 3 10C3 13.866 6.13401 17 10 17Z" fill="#449b53"/></g></g></svg>